<?xml version="1.0" encoding="utf-8"?>
<!-- Generator: Adobe Illustrator 26.0.2, SVG Export Plug-In . SVG Version: 6.00 Build 0)  -->
<svg version="1.1" id="OBJECTS" xmlns="http://www.w3.org/2000/svg" xmlns:xlink="http://www.w3.org/1999/xlink" x="0px" y="0px"
	 viewBox="0 0 500 500" style="enable-background:new 0 0 500 500;" xml:space="preserve">
<path d="M231.8,309.4c0.9,1,1.2,2.5,2.2,3.3c1,0.9,1.4-0.9,1.6-1.6c0.2-0.6,0.6-2.1,1.4-2.4c0.2-0.1,0.5,0,0.8,0
	c0.1,0,0.3-0.1,0.4-0.1c0.2,0,0.3,0.1,0.4,0.2c0.5,0.1,0.8-0.1,1-0.5c0.4,0.2,0.5,0.7,0.9,0.9c0.3,0.2,0.3,0.1,0.6,0.2
	c0.2,0,0.3,0.1,0.6,0.2c0.2,0,0.3,0.1,0.5,0.1c0.2,0,0.4,0,0.6-0.1c0.4,0,0.6,0.3,1,0.3c0.5-0.1,0.4-0.3,0.7,0.3
	c0.2,0.5,0.4,0.9,0.7,1.3c0.1,0.2,0.5,0.6,0.8,0.6c0.4-0.1,0.2-0.9,0.3-1.1c0.1-0.4,0.2-0.5,0.5-0.8c0.3-0.2,0.4-0.3,0.6-0.7
	c0.2-0.4,0.4-0.9,0.7-1.2c0.3-0.3,0.6-0.5,0.8-0.9c0.3-0.3,0.5-0.7,0.7-1.1c0.2-0.3,0.3-0.6,0.5-0.9v-94.7c-0.3-0.2-0.6-0.3-0.9-0.3
	c-0.6,0.1-0.9,0.7-1.1,1.2c-0.3,0.7-0.5,1.5-0.9,2.2c-0.5,0.7-0.8,0.7-1.6,0.5c-0.4-0.1-0.8-0.4-1.1-0.4c-0.2-0.1-0.4-0.1-0.5,0.1
	c-0.1,0.4-0.3,0.7-0.6,0.9c-0.4-0.1-0.8-0.4-1-0.8c-0.1-0.4-0.3-0.5-0.6-0.4c-0.1,0.2-0.3,0.3-0.5,0.4c-0.2,0.1-0.4,0.1-0.6,0
	c-0.8-0.1-0.6,1-1.4,1.1c-0.5,0.1-0.7-0.5-1.2-0.6c-0.2,0-0.4,0.1-0.6,0c-0.2-0.2-0.5-0.5-0.6-0.8c-0.3-0.4-0.4-0.6-0.8-0.7
	c-0.4-0.2-0.7-0.1-1-0.5c-0.3-0.4-0.2-0.8-0.6-1.2c-0.3-0.3-0.6-0.6-0.9-0.8c-0.4-0.3-0.8-0.2-1.2,0.1c-0.3,0.3-0.3,0.6-0.7,0.8
	c-0.2,0.1-0.6,0.1-0.8,0.1c-0.1,0-0.5-0.2-0.6-0.2c-0.3,0-0.6,0.9-0.8,1.1c-0.4,0.5-0.7,1.4-1.4,0.7c-0.5,0.2-1,0.6-1.4,0
	c-0.2,0.1-0.4,0.2-0.5,0.4c-0.2,0.1-0.5,0.1-0.7,0c-0.3-0.1-0.5-0.1-0.8-0.1c-0.1,0-0.1,0-0.2,0v96.3c0.3-0.4,0.7-0.7,1-1
	c0.5-0.4,0.8-0.7,1.5-0.7c0.3,0,1.1,0.2,1.4,0c0.2-0.1,0.2-0.5,0.3-0.7c0.4,0.1,0.8,0.6,1.2,0.9
	C230.6,308.7,231.2,308.8,231.8,309.4z"/>
</svg>
