<?xml version="1.0" encoding="utf-8"?>
<!-- Generator: Adobe Illustrator 26.0.2, SVG Export Plug-In . SVG Version: 6.00 Build 0)  -->
<svg version="1.1" id="Objects" xmlns="http://www.w3.org/2000/svg" xmlns:xlink="http://www.w3.org/1999/xlink" x="0px" y="0px"
	 viewBox="0 0 800 800" style="enable-background:new 0 0 800 800;" xml:space="preserve">
<g>
	<path d="M419.7,404.9c2.1,0,1.3-0.8,1.6-0.9c-1.8,0.1-2.1,0.4-2.1,0.6C419.3,404.8,419.8,405,419.7,404.9z"/>
	<path d="M387.6,406.1l0.6-0.3c0,0-1.2,0.2-2.3,0.3c-1.2,0.2-2.4,0.3-2.4,0.3s1.1-0.1,2.1-0.2C386.6,406.2,387.6,406.1,387.6,406.1z
		"/>
	<path d="M357.3,405.5c2.9,1.4,11-0.2,16.4,0.4l0.9,0.3l2.5-1.1C370.5,405.1,361.9,405.9,357.3,405.5z"/>
	<path d="M341.2,402.5c1,0.6-3.5,0.5,3.7,0.2c-0.4-0.1-0.5-0.1-0.7-0.1C343.6,402.5,342.7,402.5,341.2,402.5z"/>
	<path d="M344.3,402.5C347.4,402.4,342.2,402,344.3,402.5L344.3,402.5z"/>
	<path d="M329.6,402.8l4.2-0.5c-0.9-0.3-4.6-0.4-3.2-0.6C326.2,402,327.1,402.3,329.6,402.8z"/>
	<path d="M325.6,403.9l2.2-0.2C327.4,403.5,326.8,403.5,325.6,403.9z"/>
	<path d="M332.4,403.2l-4.6,0.5c0.6,0.2,0.7,0.7,2.1-0.2C329.5,403.9,330.4,403.5,332.4,403.2z"/>
	<path d="M335,403.4c2.4,0.3,5.4,0.5,1.2,1C344.2,404.2,343,403.2,335,403.4z"/>
	<path d="M355.8,407l3.1,0.4l2.7-0.5C360.3,407.1,355.6,406.5,355.8,407z"/>
	<path d="M303.3,402.5c-0.3,0.3,1.4,0.8,1.8,1.1l3.1-0.4C306.6,403.1,303.5,403,303.3,402.5z"/>
	<path d="M305.1,403.7l-4.6,0.7C304.6,404.3,305.3,404,305.1,403.7z"/>
	<polygon points="324.8,405.5 332.5,404.3 323.4,405.5 	"/>
	<polygon points="285.5,403.2 288.1,402.4 283.5,403.6 	"/>
	<path d="M273.9,403.7c1.9-0.6-2.7-0.9-0.6-1.3c-3.2,0.2-5.9,0.8-8.3,1.3C267.5,403.4,270.3,403.4,273.9,403.7z"/>
	<path d="M260.8,404.5c1.3-0.2,2.6-0.5,4.1-0.8C263.5,403.9,262.2,404.1,260.8,404.5z"/>
	<path d="M292.5,404.5c-0.4-0.2-1.1-0.6-3.7-0.7l1.8,0.8C291.2,404.6,291.8,404.5,292.5,404.5z"/>
	<path d="M290.7,404.6L290.7,404.6c-2,0-3.4,0.1-4,0.1C287.2,404.7,288.4,404.7,290.7,404.6z"/>
	<path d="M292.9,404.5c-0.2,0-0.3,0-0.5,0C292.6,404.6,292.8,404.6,292.9,404.5z"/>
	<path d="M312.6,404.9c-2.7,0.5-8.4,1.2-2.9,1.8C311.7,406,308.6,405.7,312.6,404.9z"/>
	<path d="M295.3,405.5l4.9,0c-0.1-0.2-1-0.5,0.3-0.8L295.3,405.5z"/>
	<polygon points="292.8,405.8 295.3,405.5 293.4,405.5 	"/>
	<path d="M269.3,405c-2.1,0.4-4.4,0.5-7.1,0.7c2.8,0.1,5.7,0.1,8.5,0C271.1,405.4,272.3,404.9,269.3,405z"/>
	<path d="M279.7,404.9c-0.1,0-0.3,0-0.5,0.1C279.5,405.1,279.8,405.1,279.7,404.9z"/>
	<path d="M236.2,406.9c0.1,0,0.3,0.1,0.4,0.1c0-0.1,0-0.1,0.1-0.2L236.2,406.9z"/>
	<path d="M271.2,405.8c2.1,0.1,3.4-0.1,4.6-0.4c-1.6,0.1-3.2,0.2-5,0.3C270.5,405.8,270.5,405.9,271.2,405.8z"/>
	<path d="M253.6,405.2c1.1,0.1,2.4,0.2,3.7,0.3C256.2,405.3,254,404.9,253.6,405.2z"/>
	<path d="M278.5,404.8c0.1,0,0.2,0,0.3,0C278.1,404.6,278.2,404.7,278.5,404.8z"/>
	<path d="M278.5,404.8c-1.1,0.2-1.9,0.4-2.8,0.6c1.3-0.1,2.5-0.2,3.5-0.4C279,404.9,278.7,404.9,278.5,404.8z"/>
	<path d="M228.8,413c0.3-0.8,5.8-2,10.7-1.5c4.7-0.9,1.5-3.3-2.8-4.5c-0.1,0.4-0.1,0.7-5,1.5c1.8,0.3,10.9,0.3,6.8,1.2
		c-6.4,0.8-5.3,0.1-8.5-0.1c1.4,0.4-0.6,0.9-2.8,1.5c-2.2,0.6-4.5,1.2-3.7,1.9c0,0,1.4-0.2,2.8-0.4c1.4-0.2,2.8-0.5,2.8-0.5
		C229.2,412.4,227.2,412.9,228.8,413z"/>
	<path d="M246,406.6l2-0.2c-2.3,0-4-0.3-7-0.7c-3.3,0.6-4,0.9-4.2,1.2c0,0,2.5-0.1,5-0.3c2.5-0.1,5-0.2,5-0.2L246,406.6z"/>
	<path d="M257,406c-1.5,0.9-6.3,1.5-3.4,2.3c5.9-0.3,4.1-0.9,7.6-1.4C251.8,407.5,264,406.4,257,406c1.9-0.1,3.6-0.2,5.2-0.3
		c-1.7-0.1-3.4-0.1-4.9-0.2c0.1,0,0.1,0,0.2,0l0,0c0,0,0,0,0,0c0.4,0.1,0.6,0.2,0.1,0.1c0,0-0.1,0-0.2,0
		C257.4,405.8,257.2,405.9,257,406c-2.8-0.1-0.4-0.2,0.4-0.3c0,0,0.1-0.1,0.1-0.1c0,0,0,0,0,0l-9.5,0.9
		C250,406.4,252.5,406.3,257,406z"/>
	<path d="M304.8,408.7c-0.3-0.1-0.3-0.1-0.3-0.2C303.8,408.6,303.6,408.7,304.8,408.7z"/>
	<path d="M300.8,408.3c0.7-0.1,1.3-0.5,3.5-0.5c2,0.2,0,0.4,0.1,0.7c1.3-0.3,4.7-0.7,0.5-1.1l-0.7,0.1c-3.8-0.2-8.8-1.1-8.1-1.2
		C297.3,407.1,298.3,407.6,300.8,408.3z"/>
	<path d="M278.7,407.4l-7.9,0.7l4,0.6l-0.2-0.4C279.1,408.3,278.1,407.8,278.7,407.4z"/>
	<polygon points="235.3,406.6 236.2,405.6 231.7,407.2 	"/>
	<polygon points="225,407.5 225.4,406.7 222.7,407.3 	"/>
	<path d="M410.3,429l-2.3,0.2C409.1,429.1,409.8,429.1,410.3,429z"/>
	<path d="M427.1,429.2l0.4-0.4C426.7,429,426.4,429.2,427.1,429.2z"/>
	<path d="M229.4,410.5c3.3,0.6,7.1,1.8,6.7,0.9l-1-0.9C232.7,410.8,230.9,410.7,229.4,410.5z"/>
	<path d="M401.7,414.7c-0.3-0.1-0.6-0.2-1-0.3c-0.8,0.2-1.6,0.4-2.3,0.6C399.4,414.9,400.5,414.8,401.7,414.7z"/>
	<path d="M404.4,411.3l4.4,0.9C407.8,411.9,406.4,411.6,404.4,411.3z"/>
	<path d="M318.9,431.6l-2.6,1C320.4,432.4,318.6,432,318.9,431.6z"/>
	<path d="M120.1,413.9c-0.7,0-1.4-0.1-2-0.1c-0.7,0-1.4-0.1-2-0.1c-1.3,0-2.4,0-3.5,0.1c1.8,0.1,3.5,0.3,4.9,0.4
		C118.8,414.3,119.7,414.3,120.1,413.9z"/>
	<path d="M417,419.8c-1.4,0.1-2,0.3-2,0.5C416.5,420.2,417.3,420,417,419.8z"/>
	<path d="M104.3,414.6c0.5,0,1,0.1,1.5,0.1c2-0.3,4.1-0.7,6.8-0.9C109.9,413.7,107,413.8,104.3,414.6z"/>
	<path d="M272.4,435.6c0.2,0,0.5,0.1,0.8,0.1C273.2,435.6,272.9,435.6,272.4,435.6z"/>
	<path d="M369,445.6c-0.9-0.1-2.4-0.2-3.8-0.3C365.8,445.4,366.9,445.4,369,445.6z"/>
	<path d="M183.7,409.7C185.9,409.5,184.1,409.6,183.7,409.7L183.7,409.7z"/>
	<path d="M194.6,412.3c-0.5,0.1-0.8,0.3-0.8,0.5C193.9,412.6,194.2,412.4,194.6,412.3z"/>
	<path d="M120.3,417.2c0.1,0,0.1,0,0.2,0C119.8,417.1,120,417.1,120.3,417.2z"/>
	<path d="M187.1,409.8c-0.8,0-1.8-0.1-2.8,0C184.7,409.8,185.6,409.8,187.1,409.8z"/>
	<path d="M186.6,409.5c0.8,0,1.3,0,1.9-0.1C188.8,409.2,188.5,409.2,186.6,409.5z"/>
	<path d="M180.7,410c1.2-0.1,2.4-0.2,3.5-0.2c-0.4,0-0.6-0.1-0.5-0.1C183.1,409.8,182.2,409.8,180.7,410z"/>
	<path d="M165.6,446.8c-0.1,0-0.3,0-0.5,0C163,447.6,164,447.3,165.6,446.8z"/>
	<path d="M286.2,402.1c-0.1,0-0.2,0-0.3,0C286,402.2,286.1,402.2,286.2,402.1L286.2,402.1z"/>
	<path d="M294.1,401.9c-3.4,0.9-5.3,0.7-7.8,0.3l2.5,2.6L294.1,401.9z"/>
	<path d="M370.1,429.2l5.5,0.8c-6.6,1.3-11.4,0.8-6.3,1.9c0.8-2.7,21.4-0.3,22.1-3l3.6,0.6c-1,0-1.2,0.1-2.2,0.1
		c7,1.3,5.2-2,14.3-1.6c3.2,0.2,5.4,0.6,3.2,0.9l7-0.7c2,0.1,1.5,0.5-0.5,0.5c0,0,2.7,0,5.3-0.1c2.7,0,5.4,0,5.4,0l-0.1,0.1
		c1.5-0.4,5-1,6.7-1.2c2.7,0.4-1.4,0.3-0.7,0.6l6-0.5c2.4,0.8-2.5,1.3-6.6,1.1c5.5,2.8,4.9-0.5,17,1.2l-5.7,0.3
		c3.6,1.6,8.1,1.1,14.5,2.1c-0.7-0.3-4-0.8-6.2-1.5c-2.2-0.6-3.4-1.3-0.1-1.6c1.8,0.2,4.3,0.3,7.7-0.2c0,1,3.4,0.7,7.6,0.8l-0.3,1.3
		c4.6-0.3,4.2-0.9,6.9-1.4c5.1,0.3,6.1,1.4,7.3,2.2c0.4,0,0.8,0,1.1,0.1l1.9-12.7c-3.1-0.8-1.3,0.1-0.2,0.9l-1.7,11
		c-0.7-0.3-1.1-0.6,0-0.8l1.4-9.5c-0.5,0-1.5-0.2-3.1-0.5c-6.9-2-12-1.9-20.1-2.2c-4.6-1.1,0.9-0.7-0.7-1.3l-4.3,0.4
		c-1-0.2-0.6-0.4-0.5-0.6c-3.6-0.1-0.5,1.2-6.1,0.8c-1.7,1.2-11.1-3.8-18.3-3c-1.7-0.6,0.9-0.7,0.5-1.2c-4.8-0.1-6.9-0.1-8.8-0.1
		c-1.9,0-3.5,0.2-7.5,0.6l-6.6-1.4c4.8,1.4-1.5,2-7.1,2.4c1.7,0.6,3.1,1.1,4.1,1.4l-8.8-0.1c-1-0.3-0.1-0.7,1.4-1.1
		c-0.6,0.1-1.2,0.1-1.6,0.2c-3.1-0.7-1.4-1.3,0.9-1.9c1,0.3,2.1,0.7,3.1,1.1c2.2-0.6,4.3-1.3,3.9-2.1c-0.6,0.1-1.7,0.1-2.9,0.1
		c0.6-0.2,1-0.3,0.7-0.5c-0.3-0.2-1.2,0-2.7,0.3l-1.9-1.6l-0.5,0.5l-11.4-1.9c-8.3,0.7-15.6,2.3-28.6,1.7c3.3-0.8,0.8-1.6,1.1-2.9
		c3.4,1.6,10.1,0.3,16.8,1.1c-3.5-0.4-2.7-1-1.8-1.1l-12.1,0.2c0.3-1-2.5-1-5.6-1.7c2.2,2.2-9,0.7-13.9,0.9c-0.3-0.7,1-1.3,6.9-0.7
		c-6.4-2-8.7,1.7-15-0.1c1.5,0.1,2.2,0.3,2.8,0c-3.4,0.3-11.7-0.8-9.7-1.2l1.5,0.1c-9.6-1-29.4-2.1-31-0.5c-0.1-0.2,1.4-2,2-2.3
		c0,0-4.4,1.2-8.8,2.4c-4.4,1.2-8.7,2.5-8.7,2.5c1.6-1.4-4.1-5.1,3.9-5.6c-2.3-0.3-5.2-0.7-10.1-0.3c1.6,0.3,3.9,2.2,1.7,2.3
		c-5.9-1.8-4.1-1-11.3-2.5c2.4,0.4-0.3,2.6-4,2.5c0.6-0.3-0.3-2.3,1.1-2.5l-9.3,2.2c2.3-0.4,0.4-1.9-1.7-2.5c1,0.4-8-0.1-10.5,0.2
		l3.9,0.5c-5.2-0.2-7.8,0.6-10.4,1.5c-2.6,0.8-5.1,1.7-10.3,1.8c1.2-0.5,3-3-2.3-3.1c-2.4,1.2-10.4,6.1-19.4,7.8l-1.8-0.5l-6.9,1.4
		c4.1-2.2,16.1-7,22.8-8.7c-4-0.3-1.2-0.7-7.1-0.2c-2.1-0.5,3.2-1.2,4.9-1.3c0,0-3.5,0.2-6.9,0.3c-3.4,0.2-6.9,0.4-6.9,0.4
		c0.7,1.3-10.3,2.4-9.7,3.5c0,0,3.7-0.7,7.3-1.5c3.7-0.7,7.4-1.4,7.4-1.4c0.7,1.3-8.3,4.5-17.9,5.4c-2.5-0.3,1.6-2.6,1.3-3
		c-1.2,0.6-9.1,1.9-10,1.7l4-1.2c-5.4,0.1-8.5,2.8-15.1,2.3c-2.2,0.2-6.8-0.9-7.1-0.1c3.8,1.1,5.1,5.7,2.8,7.2
		c-0.8,0-11.8-0.1-14.4-0.5c-3.8-0.8,5.1-3.5,1.9-4.2c-0.1,0.4-2.1,1.1-2.9,1.3c-2.4,0,0.9-1.3-4.2-0.5c-0.7,1.4-10.4,1.3-2.3,1.5
		c-4.9,1.1-5.3,0.5-11.1,1.4c2,0.6-4.7,3.8-9.7,4.8c0.2-0.4-0.9-0.7-1.5-0.8c-3.8,0.5-7,0.8-9.9,1.1c-1.5,0.1-2.9,0.3-4.4,0.4
		c-1.5,0.1-2.9,0.6-4.3,0.6l0.1,1.6c2,0,4.2-0.2,6.5-0.4c0.9,0.2,5.5,0.2,3.6,1c1.3-0.4,2.5-1,5.4-1.2c2.9,0.5,1.2,0.6-0.5,0.7
		c-1.8,0.2-3.7,0.5-1.5,1c0.1-0.2,0.6-0.4,1.3-0.6c0.8-0.2,1.8-0.4,3-0.5c2.4-0.3,5.3-0.8,7.3-1.2c-0.7-0.6-3.1-0.4-5.9-0.1
		c-1.4,0.2-2.9,0.3-4.2,0.6c-1.4,0.2-2.6,0.5-3.7,0.7c-0.1-0.8,1.6-1.9,4.7-2.8c3-0.8,7.2-1.8,12.2-2.6c4-0.5,4.9-0.2,4.9,0.1
		c0.1,0.3-0.7,0.6,0,0.5c7.5-0.1,10.6-0.8,13.5-1.5c2.8-0.7,5.3-1.2,11.4-0.9c4.9,0.7,0.4,2.1,1.5,2.8c-6.4,0.8-9.9-0.2-14.2-0.1
		l5.4,0.4c-2,0.4-6.3,0.8-8.7,0.5c2.1,0.4,8.3,0.5,15.5,0.1c7.2-0.5,15.3-1.1,21-1.1c2-0.5,5.5-1.2,3.8-1.5l-3.6,0.4
		c-3.4-0.6,6.7-1.7,2.1-1.8c4.8-1,10.2-2.4,17.1-2.4l1.4,1.1c-0.2-0.4-4.5-0.4-6.4,0.1c1.4-0.4,4.1-0.2,6.7-0.1
		c2.7,0.1,5.4,0.1,6.9-0.7l-4.9-0.6c4.9-0.9,10.9-2.4,16.9-2.4c-2.8-1.1-1.4,0.2-5.7-1c1.9,0.8-2,1-5.6,1.1
		c-3.6,0.2-6.9,0.4-3.9,1.1c-2.3-0.7-4.2-0.8-6.3-0.8c-2.1,0-4.4,0.1-7.3-0.4c0.2,0.4,2.1,0.6-3,0.8c-0.2,0.1-0.8,0.3-1.1,0.4
		c-0.2,0-0.2,0-0.3,0c0.1,0,0.2,0,0.3,0c-0.2,0.1-0.2,0.1,0.1,0c1.2,0.1,2.2,0.2,2.6,0.4c-2.5,1.1-10.6,1.7-13.3,2.4
		c-3,0,1.2-0.6-0.5-0.9l-4,1c-0.5-0.9-8.2-0.9-1.1-1.9l-6.4,0.5c-1-0.1-2-0.1-3-0.1c-1,0-2.1,0-3.2,0c-2.1,0.1-4.2,0.2-5.7,0.4
		c-3-0.1-7.5,1.2-4.9,0.4l-10.1,0.7l-0.1-0.2c-1.2,0-2.5,0.1-3.9,0.1c-1.3,0.1-2.6,0.2-3.9,0.4c-2.6,0.3-5.2,0.6-7.7,0.9
		c-1.3,0.1-2.6,0.2-3.9,0.3c-1.4,0.1-2.8,0.1-4.2,0.2c-2.8,0.1-5.6,0.3-8.4,0.1c-1.4,0.2-2.7,0.4-4.2,0.6l0.4,9.6
		c1.9-0.1,3.2-0.6,4.3-0.8c0.3-0.1,0.4-0.1,0.8-0.1c0.3,0,0.7-0.1,1-0.1c0.7-0.1,1.5-0.2,2.3-0.2l1.2,0.6c4.2-0.9,12.7-1,14.5-2
		c2.5,0.7,7.7,0,13.1-0.9c2.7-0.4,5.5-0.9,8.1-1.3c2.6-0.4,5-0.7,6.9-0.8l0.2-1c5.2-0.6,10.1-1.4,16.4-2.6l-0.5-0.8
		c5.4-1.4,14.3-1.1,22.9-2.1c-0.6,0.4-2.8,0.6-4.4,0.5c10.6,0.8,21.8-3.7,31.3-2.7c2.3-0.4,4-0.4,5.7-0.2c-0.2,0-0.4,0-0.6,0.1
		c0.2,0,0.6,0,1,0c1,0.1,2.1,0.2,3.3,0.4c-1-0.2-1.9-0.4-2.7-0.4c1.8-0.1,4.5-0.3,7.2-0.5l1.2,0.9c0.2,0,0.4,0,0.6,0
		c2.7,0.3,2.1-0.5,0.7-1.2c1.4-0.2,2.6-0.4,3.6-0.6c2.2,1.5,7.1-0.5,10.1,1.1c1.8-0.8,13.6-0.5,15.1-2.2c0.1,0.2,0.9,0.3-0.6,0.3
		c3,0.2,6,0.5,8.8,0.1l1.2,1.3l6.6-1.4c4,0.9,5.6,1.4,1.6,2.2c9.6-1,7.8-0.2,16-1.1l-0.4,0.8c2.9,0.1,7.7-0.6,9.4,0.2
		c6.4,1.9,32.3,2.6,49.1,5.3c-3.1-2.6,7.7,1.7,8.5,0c0.9,0.6,3.2,1.1,0.5,1.4c8.6,0.2,12.8,2,18.8,0.9c0.9,0.6-1.9,0.7-1.1,1.1
		c0.7-0.1,2.8-0.2,3.6,0.2c0.8,0.4-1.3,0.4-2.7,0.5c8.7,0.6,9.8-1,10.5-2.5c4.4,1.1,6.6,1.2,9.9,0.4c1.5,0.6,4,1.4-1.4,1.1
		c3,0.3,18.6,2.3,19,1.1c0.9,0.4,4.2,0.6,5,0.5c6.8,0.9,7.4,1.1,14.1,2l-1.8-0.5c2.9-1.1,5.6,0.5,11,1.1l-0.2,0.1
		c12.2,2.9,5.5,0.3,17.5,3.1l-0.5-1c1.2-1.6,8.5,1.5,14.7,3.2l0.7-4.8c-1-0.1-1.9-0.1-2.8,0l2.6,0.7c-3.9,0.5-10.8-3.3-14.8-3.6
		c-0.9-0.2,1.4-0.3,2.6-0.4c-10.4-1.4-1.4,1.2-9.1,1.4c-1.4-0.7,1.9-1.7-3.4-1.9c-1.3-0.3-5,0.3-9.3,0.7c-4.3,0.4-9.1,0.7-12.6-0.1
		c1.5,0.6,3.1,1.1-0.5,1.4c-5.4,0.1-14.7-2.3-19.7-0.6c-0.7-0.1-1-0.3-1-0.4c-4.2,0.4-13.6,0.7-16.1,1.6c-3.8-3.3-25.9,1.6-25.8-1.5
		c0,0-3.2,0-6.4,0.1c-3.2,0.1-6.5,0.1-6.5,0.1l0.3-0.3c-8.3-0.1-11.2,0.8-14,1.6c-1.9-0.1-0.5-0.5-0.4-0.6
		c-12-0.1-13.2,0.1-23.2,2.1l-1.1-0.9c-1.3,0.4-5.7,0.2-11.2,0.2c-5.5,0.1-12.1,0.4-17.9,1.5c0.1-0.1,0.3-0.3,1.2-0.6
		c-6.5,1.2-14.5,1.3-21.3,1.5c-1.7,0.1-3.3,0.1-4.9,0.2c-1.5,0.1-3,0.2-4.3,0.4c-2.6,0.4-4.6,1-5.8,2.1l-8.6,1.8
		c11.3-1-1.5,1.7,3.2,1.8c-4.4,0.7-11.5,0.2-6.1-0.6l0.9,0.1c1.8-2.1-14,1-13.9-0.3c-11.1,1.4-22,3.1-32.6,4.4
		c-10.7,1.3-21.2,2.5-31.6,4.1l2.6,1.1c0,0-1.8,0.3-3.6,0.6c-1.8,0.3-3.6,0.6-3.6,0.6c-1.9,0-2.7-0.7,2.4-1.5
		c-2.9-0.4-8.5,2.3-8.6,2.6c-10.2,1.4,3.6-2.5,0.5-1.9l-4.2,0.9l1,0c-3.3,1.3-3.5,2-9.6,3.3c-3.9,0.6-2.2-0.4-3.7-0.1
		c0-0.1-0.5,0-2.3,0.5c0,0-2.2,0.5-4.5,1c-1.1,0.2-2.3,0.5-2.9,0.6c-0.7,0.1-1,0.1-1,0.1s0.6,0.2,1.4,0.3c0.4,0.1,0.9,0.1,1.2,0.1
		c0.4,0,0.6,0,0.6,0c-1,0.4-2,0.7-2.7,0.8c-0.7,0.2-1.3,0.2-1.7,0.2l-0.1,5.8c0.8-0.1,1-0.2,0-0.5l0.1-4.7c0.2,0.1,0.4,0.2,0.8,0.4
		c-0.2-0.1-0.5-0.2-0.8-0.3l-0.1,4.5c2,0.4,5.1,0.5,8.7,0.3c3.6-0.2,7.6-0.6,11.5-1.1c7.8-1,15-2,16.9-2c5.5-1.5,11.1-2.2,18-3
		c-1.7,0-2.9-1.2,3-1.8c-1.8,2.9,11-0.2,15.9,1.3c-2.2-0.4,2-0.9,5.9-1.4c3.9-0.4,7.5-0.9,4.1-1.6c5-0.1,0.4,1,4.2,1.4
		c11.7-1.8,26-0.6,40.6-1.1c0.2-0.4-2.2-0.9,0.9-1.4l7.8,1.7c2.9-0.2,2.7-2,8-0.8c-0.7-0.3-1.9-0.7,0.1-0.9
		c7.2,0.4,14.5,0.6,21.8,0.5c7.3,0,14.7-0.2,22.1-0.3c14.7-0.2,29.5-0.1,43.9,2.3c-1.9-0.4-2.3-0.6-1.7-0.7c0.5-0.1,2,0,3.4,0.1
		c-1.9-0.3,0.1-0.9-0.2-1.4c0,0,2.9,0.5,5.9,1.3c3,0.7,6,1.4,6,1.4c1.2-0.5,4.5-0.1,7.8,0.1c1.5,0.1,2.9,0.3,4.1,0.4
		c1.2,0.1,2.2,0.1,2.5-0.2l-3.8-0.3c2.6-0.4,1-1.5-1.2-2.6c-2.3-1-5-2.3-4.6-3.2c-2.9,0.6-6.6-0.6-10.8-1.7c-2.1-0.5-4.4-1-6.8-1.2
		c-2.3-0.1-4.7-0.1-7.1,0.4c-2.1-0.5,1.8-0.5,0.7-1c-2.5,0.7-5.4,0.8-10.7,0.3l0.6-0.2c-15.2-0.1-21.6-0.9-38.6-1.3l1.3,0.9
		c-3.6-0.1-4.4-0.4-6.1-0.6c-4.2,1.5,10.2,0,6.4,1.6c-2.4-1-8.8-0.9-15.1-0.9c-6.2,0-12.2-0.1-13.9-1.2c-5.6,0,1.6,1.1-4,1.1
		l-1.5-0.6l-1.4,0.8c-3.7-0.1-5.5-0.8-5.7-1.4c0.9,0.1,2.5-0.2,3.5-0.2c-4.8-0.7-13.5,0.3-15.1,0.1l5.4,0.3
		c-15.3,0.6-34.1,0.4-48.9,2.7l1.2,0.4c-5.6,0.8-7.9,0.9-10.3,1c-1.2,0-2.5,0-4.2,0.2c-1.7,0.1-3.9,0.3-7,0.8l0.4-0.2
		c-2.4,0.7-5.7,1.4-9.1,1.7c3-0.9-6-0.3-2-1.4c-12,2.4-5.9,1.4-13.7,4.1l-1.9-0.5c-2.6,1-2.8,1.4-8.9,2.4c5-1.3-4-0.6,1.5-2.2
		c-6.5,0-11.2,1-15.1,1.8c-3.9,0.7-6.9,1.3-9.8,0.2c-2.8,1.2-0.1,1.4,3,1.2c3.1-0.2,6.5-0.7,4.9-0.3c2.8,0.4-4.7,2.1-8.7,2.1
		c-1.3,0-2.4-0.2-3.7-0.5l-0.1,3.8c0.8,0.2,1.8,0.4,2.8,0.5c1,0.1,2.1,0,3.2,0c2.2-0.1,4.9-0.4,8.4-1.3c-1,0.2-1,0.4-2.1,0.6
		c3.9-0.4,7.3-2.5,12.1-2.6c2.3-1.8,6-1.2,6.5-2.9c0,0-2.3,0.6-4.6,1.1c-2.3,0.6-4.6,1.2-4.6,1.2c5.1-1.6,9.8-4.4,18.7-5
		c-0.6,0.4-3.2,1.3-4.9,1.8c2.6,0,4.9-1.2,7.6-1.1c-0.5,1.7-11.4,2.2-16.7,4.6c2.8,0.1,10.4-3.2,7.9-1c3.7-2.9,10.1-1.5,16.8-4.1
		l-0.3,1c1.1-0.3,3.3-1.1,5.3-1.4l-3.5,1.8c5.5-1.9,11-0.7,16.4-2c-11.4,1.7-2.7-0.8-7.6-0.7c13.8-3.3,8.5,1.3,24.1-1.6
		c-2.1,0.5-8.1,0.7-4.8-0.3c3-0.3,7-0.5,8.9-0.3c10.3-1.8-1.7-0.7,2.6-2c3.7,0.6,5-1.2,9.5-2.2l0.2,1c11.9-0.8,2.9-2.4,13.6-2.9
		l-4.4,1.9l5.5-1l-1,1.2c6-1.5,7.9-1.5,13.8-1.8c-1.4-0.5,0.6-1.8,5.8-2.3c3.6,0.3-2,1.1,5.5,0.3c-0.8,0.4-1.7,0.8-2.8,1
		c-1.1,0.2-2.3,0.3-4,0c-0.3,0.3-1.6,0.8-1.9,1.1c2,0.1,4.3,0,6.6-0.3c2.3-0.2,4.5-0.6,5.8-0.7c-1.1,0.1-2.3,0.1-3,0l10.8-2.3
		c1.7,0.2,0.4,0.6-0.9,1c2.2-0.3,3.7-0.9,6.9-1.3c-0.8,0.9-0.5,1.6-5,2.5l10.2-1.9c0.7,0.3,5.4,0.4,4.1,0.9
		c5.7-0.1,13.8-2.8,21.4-2.5c0.4-0.2,1.2-0.4,2.8-0.6c7.2-0.2,13.6,0.4,21.9-1l4.8,1.2c6.6-0.5-6.5-1.6,4.4-2.4
		c7.8-0.6,2.9,1.1,5.7,1.5c1.9-0.4,4.5-0.9,7.6-1.2c3.1-0.3,6.6-0.4,10.2,0.2C374.2,429.3,372.3,429.1,370.1,429.2z M452.2,429.2
		c-1.6,0.2-4.8,0.8-6,0.2C448,428.3,449.4,428.9,452.2,429.2z M389.8,411.8c1.2-0.2,3,0.1,5,0.6
		C393.4,412.4,391.7,412.2,389.8,411.8z M160,412.3c-0.1,0-0.1,0-0.2,0.1C156.4,412.2,157.6,412.3,160,412.3z M167.3,412.2
		c0.7-0.2,0.7-0.3,0.3-0.4c-0.5,0.3-2.1,0.4-4,0.5C164.2,412.5,165.2,412.6,167.3,412.2z M141.5,445.3l1.5-0.1
		C139.8,446.2,140.7,445.8,141.5,445.3z"/>
	<path d="M404.1,411.7c0.4,0.2,0.5,0.4,0.6,0.6C405.3,412.1,405.4,412,404.1,411.7z"/>
	<path d="M319.3,431.4l-0.2,0c-0.1,0.1-0.2,0.1-0.2,0.2L319.3,431.4z"/>
	<path d="M149,409.3c1.5,0,2.4,0,3,0.1C152,409.2,151.3,409.1,149,409.3z"/>
	<path d="M206.3,407.7l-4.7,0.5c2.3-0.2,3.1,0,4.3,0.1C205.8,408,204.9,407.7,206.3,407.7z"/>
	<path d="M247.5,411.1c0.7-0.2,1.5-0.1,2.1-0.2l-0.2-0.4C246.5,410.6,244.5,411.1,247.5,411.1z"/>
	<path d="M210.9,410.6c0.4,0.8,3.4,0.4,6.6,0.1c-0.2,0-0.4,0-0.6,0C217.8,409.5,214.4,410.1,210.9,410.6z"/>
	<path d="M218.3,410.6c1-0.1,2-0.2,3-0.2C221.7,410,220.1,410.4,218.3,410.6z"/>
	<path d="M176.6,410.9c1.6,0.1,0.9-1.1,1.8-0.9C180.1,408.9,168.1,412.1,176.6,410.9z"/>
	<polygon points="213.7,413.2 212.4,412.2 210.6,413.1 	"/>
	<path d="M187.6,414.1l5.3-0.1c-0.1-0.2,0.6-0.3,1.4-0.5C191,413.8,187.4,413.8,187.6,414.1z"/>
	<path d="M194.2,413.5c1.7-0.1,3.3-0.3,4.2-0.5C197.6,413.1,195.6,413.3,194.2,413.5z"/>
	<polygon points="206.5,413.8 204.9,413.7 201.2,413.8 	"/>
	<path d="M130.9,417l-5.7,0.7c-0.6,0.4,1,0.5,3.2,0.2C129.6,417.5,131.8,417.2,130.9,417z"/>
	<path d="M148.4,419.2c-1.6-0.2-1.7-0.4-2.6-0.7l-0.2,1.2L148.4,419.2z"/>
	<path d="M131.7,420c-0.5,0.4-8.2,1.6-1,1C131.2,420.5,136.9,420,131.7,420z"/>
	<polygon points="158.2,411.7 156.8,411.9 157.2,413.8 	"/>
	<path d="M234.5,400.1c-7-0.4-1.6,1.3-7.9,0.8c-1.6,0.5,5.1,0.4,3.5,0.8C234.2,401.1,236.4,401.4,234.5,400.1z"/>
	<path d="M230.1,401.7c-0.7,0.1-1.4,0.2-2.1,0.4C229.1,401.9,229.7,401.8,230.1,401.7z"/>
	<path d="M385,448.5c0,0,0.9,0.2,1.9,0.4c1,0.3,2,0.5,2,0.5l-2.6-1c0,0-0.4,0-0.7,0.1C385.3,448.5,385,448.5,385,448.5z"/>
	<path d="M393.4,448c0,0,0.3,0.3,0.5,0.7c0.3,0.3,0.5,0.7,0.5,0.7l1.2-0.4l1.3-6.3c0.1,0-0.6,0.7-0.8,0.5c0,0,0.1,0.1,0.1,0.1
		c0,0,0.1,0,0.1-0.1c0.1,0,0.2-0.1,0.3-0.2c0.2-0.1,0.3-0.4,0.3-0.4l-1.3,5.7C394.7,448.4,393.9,448.3,393.4,448z"/>
	<path d="M464.3,431.9l0.3-0.3c-0.7-0.3-1.7-0.4-3.7-0.5L464.3,431.9z"/>
	<polygon points="404.8,430.3 405.8,430.3 403.9,429.1 	"/>
	<path d="M355,431.9c2,0,4.4-0.3,6.4-0.3C357,431.8,354.4,430.4,355,431.9z"/>
</g>
</svg>
