<?xml version="1.0" encoding="utf-8"?>
<!-- Generator: Adobe Illustrator 26.0.2, SVG Export Plug-In . SVG Version: 6.00 Build 0)  -->
<svg version="1.1" id="Objects" xmlns="http://www.w3.org/2000/svg" xmlns:xlink="http://www.w3.org/1999/xlink" x="0px" y="0px"
	 viewBox="0 0 800 800" style="enable-background:new 0 0 800 800;" xml:space="preserve">
<g>
	<path d="M399.8,416.4c-1.4-0.3-2.1-0.9-2.4-1.1c-0.4-0.3-0.6-0.4-0.7-0.5c-0.2-0.1-0.2,0.1-0.4-0.1c0.5,0.7,1.2,1.2,1.9,1.6
		c0.7,0.3,1.3,0.5,1.8,0.5c0.9,0,1-0.1,1-0.1c-0.1-0.1-0.4-0.1-0.6-0.1C400,416.5,399.8,416.4,399.8,416.4z"/>
	<polygon points="391.2,411.5 391.9,411 386.1,413.7 	"/>
	<path d="M413.3,403.2c-0.6,0.3-1.4,0.5-2.2,0.6l-0.3,0l-0.1,0c0,0,0,0,0,0l-0.1,0c-0.1,0-0.3,0-0.4,0.1c-0.1,0.1-0.3,0.1-0.4,0.2
		c-0.2,0.1-0.4,0.2-0.6,0.3c-1.5,0.7-3.2,1.6-5,2.6c-3.6,1.9-7.6,4.1-10.9,5.6l-1.1,0.4l-2.7,2c3.9-2,8.4-4.4,12.6-6.5
		c2.1-1.1,4.1-2.1,5.9-3.1c0.5-0.2,0.9-0.5,1.3-0.7c0.2-0.1,0.4-0.2,0.6-0.3c0.1-0.1,0.3-0.2,0.4-0.2l0.2,0l0.3,0
		c0.3,0,0.5-0.1,0.8-0.2C412.3,403.8,412.8,403.6,413.3,403.2z"/>
	<path d="M394.6,402.7c1.4-0.2-4.3,2,4.7-1.8c-0.5,0.1-0.6,0.2-0.9,0.3C397.6,401.5,396.5,401.9,394.6,402.7z"/>
	<path d="M398.4,401.2C402.5,399.6,395.7,402,398.4,401.2L398.4,401.2z"/>
	<path d="M380.1,408.3l5.2-2.2c-1.2,0.2-5.9,1.9-4.2,1.2C375.8,409.4,377,409.2,380.1,408.3z"/>
	<path d="M375.3,410.6l2.7-1.1C377.5,409.6,376.8,409.9,375.3,410.6z"/>
	<path d="M383.7,407.2l-5.7,2.3c0.8-0.2,1,0,2.6-1.1C380.2,408.8,381.3,408.2,383.7,407.2z"/>
	<path d="M387.1,406.1c3-0.9,6.7-2.2,1.6-0.1c4.9-1.9,7-3,6.6-2.9C394.9,403.1,392,404.3,387.1,406.1z"/>
	<path d="M414.4,400.5c0,0-0.1,0.3-0.3,0.8c-0.2,0.5-0.7,1-1.2,1.3c-1.1,0.6-2.3,0.6-2.2,0.6c0,0-0.2,0-0.5,0.1
		c-0.3,0.2-0.6,0.4-1,0.6c-0.8,0.5-1.6,0.9-1.6,0.9c0.4-0.2,1-0.6,1.8-0.9c0.4-0.2,0.7-0.4,1-0.4c0.3,0,0.9-0.1,1.4-0.2
		c1-0.3,1.9-1,2.3-1.7C414.4,400.9,414.4,400.4,414.4,400.5z"/>
	<path d="M373.3,415.4c0.2-0.3-1.9,0.4-2.3,0.4c0,0-0.9,0.5-1.8,1c-0.9,0.5-1.8,1-1.8,1C369.3,416.9,373,415.3,373.3,415.4z"/>
	<path d="M371,415.8c0,0,1.4-0.7,2.7-1.4c1.4-0.7,2.8-1.4,2.8-1.4C371.4,415.2,370.6,415.8,371,415.8z"/>
	<polygon points="374.7,411.7 384,407.7 372.8,412.4 	"/>
	<polygon points="395.1,406.2 392,407.9 397.5,405 	"/>
	<path d="M409.5,400.2c-2.3,1.2,3.5-0.9,1,0.3c3.9-1.6,7.2-3.2,10.2-4.5C417.5,397.3,414.1,398.6,409.5,400.2z"/>
	<path d="M425.8,393.8c-1.6,0.7-3.3,1.4-5.1,2.2C422.4,395.3,424.1,394.6,425.8,393.8z"/>
	<path d="M386.2,409c0.5-0.1,1.4-0.2,4.7-1.5l-2.4,0.5C387.8,408.4,387,408.7,386.2,409z"/>
	<path d="M388.4,408.1L388.4,408.1c2.5-1,4.2-1.7,5-2C392.7,406.3,391.2,407,388.4,408.1z"/>
	<path d="M385.6,409.3c0.2-0.1,0.4-0.1,0.6-0.2C386,409.1,385.8,409.1,385.6,409.3z"/>
	<path d="M361.9,419.7c3-2,9.6-5.6,3-2.6C362.7,418.6,366.4,416.8,361.9,419.7z"/>
	<path d="M382.6,409.9l-6.1,2.5c0.2,0.1,1.3-0.3-0.3,0.6c0,0,1.6-0.8,3.2-1.5C381,410.7,382.6,409.9,382.6,409.9z"/>
	<polygon points="385.6,408.6 382.6,409.9 384.9,409 	"/>
	<path d="M415.1,397.3c2.6-1.2,5.4-2.3,8.8-3.5c-3.6,1.2-7.2,2.5-10.7,3.9C412.8,398,411.4,398.8,415.1,397.3z"/>
	<path d="M402.1,402.4c0.2-0.1,0.4-0.2,0.6-0.3C402.3,402.3,402,402.4,402.1,402.4z"/>
	<path d="M402.3,394.5c0.2,0,0.4-0.1,0.6-0.1c0,0,0.1-0.1,0.1-0.1L402.3,394.5z"/>
	<path d="M412.6,397.8c-2.7,1-4.2,1.7-5.6,2.4c1.9-0.8,4-1.7,6.2-2.6C413.4,397.5,413.4,397.5,412.6,397.8z"/>
	<path d="M424.4,387.2c1.4-0.3,3-0.6,4.7-0.8l1.5,4.9c-0.1,0-0.3,0.1-0.4,0.2c0.1,0,0.3-0.1,0.4-0.2l-1.5-4.9
		C427.5,386.5,424.9,386.9,424.4,387.2z"/>
	<path d="M403.6,401.9c-0.1,0.1-0.2,0.1-0.4,0.2C404.1,401.8,404,401.8,403.6,401.9z"/>
	<path d="M403.6,401.9c1.3-0.6,2.3-1.1,3.4-1.7c-1.6,0.7-3,1.3-4.3,1.9C403,402.1,403.4,402,403.6,401.9z"/>
	<path d="M393,400.1c0.4-0.5,7.4-3,13.7-4.4c6-2.1,1.6-2.2-3.9-1.3c-0.1,0.2-0.1,0.4-6.3,2.4c2.3-0.4,14-3.6,8.9-1.7
		c-8.2,2.6-6.8,1.9-10.9,2.9c3.6-0.5-10.3,3.8-8.3,4c0,0,0.4-0.2,1.1-0.4c0.7-0.2,1.6-0.5,2.5-0.8c1.8-0.6,3.6-1.2,3.6-1.2
		C393.6,399.6,391,400.6,393,400.1z"/>
	<path d="M414.7,390.9l2.5-0.9c-1.5,0.5-2.7,0.8-4.1,1.2c-1.3,0.3-2.9,0.7-4.8,1.1c-4.2,1.5-5.1,1.9-5.3,2.1c0,0,3.2-0.9,6.3-1.8
		c0.8-0.2,1.6-0.5,2.3-0.7c0.7-0.2,1.4-0.4,2-0.6c1.2-0.4,1.9-0.6,1.9-0.6L414.7,390.9z"/>
	<path d="M430.5,391.1C430.5,391,430.5,391,430.5,391.1l-1.3-4.4c-1.1,0.4-3.3,1-4.6,1.5c-1.3,0.5-1.9,0.8,0.1,0.5
		c2.2-0.6,3.6-0.9,4.6-1.1l0.7,2.5c-2.3,1.2-2,1.3-5.2,2.6c3-1.2,4.3-1.8,4.7-1.9c0.4-0.2-0.1,0.1-0.8,0.5c-0.6,0.3-1.3,0.7-1.4,0.8
		c0,0.1,0.7-0.1,2.9-1c-2.3,1.2-4.5,2-6.5,2.8c2.2-0.8,4.3-1.5,6.3-2.4c-0.1,0-0.2,0.1-0.3,0.1l-0.1,0l0,0c-0.5,0.2-0.7,0.2-0.1,0
		c0,0,0.2-0.1,0.2-0.1C430,391.4,430.2,391.2,430.5,391.1C430.5,391,430.5,391,430.5,391.1l-1.3-4.4c-3.3,0.5-1.4,0.1,0-0.1l1.4,4.6
		c-0.2,0.1-0.4,0.2-0.6,0.3c0,0-0.1,0.1-0.1,0.1c0,0,0,0,0,0l0.7-0.3l-1.4-4.8c-4.3,0.7-8.2,2.1-11.9,3.5c1.3-0.4,2.8-0.9,4.6-1.5
		c1.9-0.6,4.2-1.3,7.4-1.8L430.5,391.1C430.5,391,430.5,391,430.5,391.1z"/>
	<path d="M370.5,413.3c0.4-0.1,0.4-0.1,0.4-0.1C371.6,412.8,371.9,412.7,370.5,413.3z"/>
	<path d="M375.3,411.4c-0.8,0.4-1.5,0.9-4.2,2.1c-2.4,1-0.1-0.2-0.3-0.3c-1.6,0.9-5.6,3-0.4,0.7l0.8-0.4c4.7-2,11-4,10.2-3.6
		C379.9,410.1,378.6,410.4,375.3,411.4z"/>
	<path d="M403,400.7c0,0,2.4-1,4.9-2.1c2.4-1,4.9-2.1,4.9-2.1l-5.1,1.6l0.3,0.1C402.3,400.5,403.7,400.3,403,400.7z"/>
	<polygon points="401.1,394.6 402.3,393.8 396.6,396.2 	"/>
	<path d="M387.9,398.6l0.4-0.5c0,0-0.9,0.3-1.7,0.6c-0.8,0.3-1.7,0.7-1.7,0.7s0.8-0.2,1.5-0.4C387.1,398.8,387.9,398.6,387.9,398.6z
		"/>
	<path d="M319,403l-2.8,1.3C317.6,403.7,318.4,403.3,319,403z"/>
	<path d="M339.8,394.3l0.4-0.4C339.3,394.4,338.9,394.7,339.8,394.3z"/>
	<path d="M389.2,386.8c4.3-1.6,9.1-3.1,8.4-3.3l-1.4,0.2C393.4,385.1,391.1,386,389.2,386.8z"/>
	<path d="M330.4,400.1c-0.4,0.1-0.8,0.3-1.3,0.5c-0.9,0.6-1.8,1.2-2.6,1.7C327.7,401.6,329,400.9,330.4,400.1z"/>
	<path d="M332.5,397.1l5.5-2.3C336.7,395.3,335,396,332.5,397.1z"/>
	<path d="M381.6,361.1l3.2-1.9C379.6,361.5,382,360.7,381.6,361.1z"/>
	<path d="M427.6,385.4c1.3-0.3,2.5-0.6,3.6-0.8l-1.6-4.8c-2,0.7-3.7,1.2-5.4,1.6c2.2-0.4,4-0.9,5.5-1.4l1.4,4.3
		C429.4,384.7,428.2,385,427.6,385.4z"/>
	<path d="M325.4,395.3c-1.7,0.8-2.4,1.2-2.4,1.3C324.8,395.8,325.8,395.3,325.4,395.3z"/>
	<path d="M413.2,383.9c0.7-0.1,1.4-0.3,2-0.4c2.8-0.8,5.7-1.4,9-2.1c-1.6,0.3-3.5,0.6-5.3,1C417,382.8,415.1,383.3,413.2,383.9z"/>
	<path d="M338.2,367.9c0.3-0.1,0.7-0.3,0.9-0.4C339.2,367.4,338.8,367.6,338.2,367.9z"/>
	<path d="M308.9,367c1.2-0.4,3.2-1.1,5.1-1.7C313.1,365.6,311.6,366.1,308.9,367z"/>
	<path d="M348.1,416.5C345.5,417.6,347.7,416.7,348.1,416.5L348.1,416.5z"/>
	<path d="M349.2,412.9c-0.6,0.2-1,0.4-1,0.6C348.3,413.3,348.7,413.1,349.2,412.9z"/>
	<path d="M385.8,394.2c-0.1,0-0.1,0-0.2,0.1C386.5,394.1,386.3,394.1,385.8,394.2z"/>
	<path d="M344.2,418c0.9-0.4,2.1-0.8,3.3-1.3C347,416.9,345.9,417.3,344.2,418z"/>
	<path d="M344.8,417.9c-0.6,0.3-1.2,0.6-1.8,0.9l-2.2-4.9l0.4-0.1c0.2-0.1,0.2-0.1-0.4,0l2.2,5.1
		C343.3,418.7,343.8,418.4,344.8,417.9z"/>
	<path d="M352,414.9c-1.6,0.7-3.1,1.2-4.4,1.7c0.5-0.2,0.8-0.2,0.6-0.2C348.9,416.2,350,415.8,352,414.9z"/>
	<path d="M342.6,374.7c0.2-0.1,0.4-0.2,0.6-0.2C345.7,372.9,344.6,373.5,342.6,374.7z"/>
	<path d="M423.6,373.6c0.1,0,0.2-0.1,0.3-0.1c-0.1,0-0.3,0.1-0.4,0.1L423.6,373.6z"/>
	<path d="M413.6,376.8c4.1-1.7,6.6-2.4,9.9-3.2l-3.7-0.2L413.6,376.8z"/>
	<path d="M320.2,393.4l-6.6,3.4c7.4-5.1,13.1-8.1,6.8-5.1c-0.1,0.4-1.6,1.5-4,3c-1.2,0.7-2.5,1.6-4,2.4c-0.7,0.4-1.5,0.9-2.2,1.3
		c-0.8,0.5-1.5,0.9-2.2,1.3c-3,1.7-6.3,3.3-8.7,5c-2.4,1.6-4,3.1-4,3.6l-1,0.7l2.2,4.2c1.5-0.3,3.1-0.9,4.4-1.7
		c-0.7,0.5-1.2,0.8-1.6,1c-0.5,0.2-0.9,0.5-1.8,0.7c1.5-0.4,2.6-1,3.6-1.6c0.1-0.1,0.2-0.2,0.3-0.2l0.2-0.2c0,0,0.1-0.1,0.1-0.1
		c0.3-0.2,0.6-0.3,0.8-0.4c1.1-0.6,1.9-1.2,2.8-1.7c1.7-1.2,3.8-2.4,9.5-4.7c3.9-1.5,6.7-2.5,4.1-1.2l8.5-4c2.5-1,2-0.6-0.5,0.5
		c0,0,3.3-1.4,6.6-2.8c3.3-1.4,6.6-2.8,6.6-2.8l-0.1,0.1c1.8-1,6-3.1,8-4.1c3.5-1.2-1.6,0.8-0.7,0.6l7.2-3.4c3.1-0.9-2.8,1.9-7.9,4
		c3.7-0.8,5.2-1.5,7.7-2.7c2.5-1.2,5.9-2.9,13.5-5.5l-6.9,3c4.8-1.1,10.2-3.5,18.2-6.3c-2,0.5-16.3,5.2-8.4,1.7c2.3-0.8,5.3-2,9.5-4
		c0.2,0.4,4.4-1.4,9.7-3.5l-0.1,0.7c5.7-2.5,5.1-2.6,8.3-4.2c3.2-1.2,5.2-2,6.6-2.4c1.4-0.4,2.2-0.5,3-0.6c2.5-1.1,3.3-1.4,3.3-1.5
		c0-0.1-0.9,0.2-1.6,0.4c-0.8,0.2-1.5,0.4-1.3,0.2c0.2-0.2,1.3-0.8,4.3-2c2.7-0.9,5.1-1.6,7.5-2l-1.5-4.5c-2.4,1.2-4.8,2.3-7.5,3.5
		c-2.7,1.2-5.6,2.6-9,4.2c-6,2.4,0.9-0.8-1.3-0.1l-5,2.7c-1.3,0.5-0.9,0.2-0.8,0.1c-4.3,2.1-0.1,0.7-6.9,3.9
		c-1.6,1.5-14.6,5.3-22.8,9.7c-2.2,0.8,0.9-0.8,0.1-0.7c-5.8,2.8-8.2,4-10.4,5.1c-2.2,1.1-4.1,2.2-8.7,4.7l-8.3,3.5
		c6.1-2.4-1.2,1.7-7.6,5.4c2.2-0.8,4.1-1.5,5.3-2l-10.4,5.4c-1.3,0.5-0.4-0.2,1.3-1.3c-0.7,0.4-1.4,0.8-1.9,1.1
		c-3.9,1.6-2.1,0.3,0.5-1.3c1.3-0.5,2.7-1,4-1.5c2.4-1.6,4.7-3.2,4-3.3c-0.7,0.4-1.9,1.1-3.4,1.8c0.6-0.4,1-0.7,0.7-0.6
		c-0.4,0.1-1.4,0.8-3.1,1.8l-2.7,0.5l-0.5,0.5l-14,6.2c-2.3,1.3-4.6,2.6-6.9,3.9l1.4,2.9c7-4.1,14.8-8,27.1-12.8
		c-3.9,2-0.6,1.1-0.6,1.8c-4.7,1.1-12.5,5-20.8,8.5c4.3-1.8,3.5-1.1,2.4-0.6c0,0,3.6-1.7,7.3-3.3c3.7-1.6,7.4-3.2,7.4-3.2
		c-0.2,0.6,3.3-0.9,7.3-2.1c-3.3,0.2,11-4.9,17.1-7.3c0.5,0.2-0.9,1-8.4,3.7c8.5-2.3,10.3-5,18.7-7.2c-1.8,0.6-2.9,0.9-3.5,1.4
		c4.2-1.8,14.8-5.1,12.5-4l-1.8,0.6c6.2-2,15.5-5,23.6-7.6c8.1-2.6,14.9-4.7,15.7-5.4c0.2,0.1-1.4,1.5-2.1,1.8c0,0,5.4-2.3,10.7-4.6
		c5.4-2.3,10.7-4.7,10.7-4.7c-1.7,1.3,6.2,0.7-3.9,4.2c1.5-0.4,3.2-0.8,5.2-1.4c2.1-0.6,4.6-1.4,7.7-2.7c-2.1,0.7-5.4,0.7-2.6-0.2
		c1.4-0.3,2.5-0.6,3.4-0.9c0.4-0.1,0.7-0.2,1-0.3c0.2,0,0.3-0.1,0.5-0.1c0.1,0,0.2,0,0.2,0c0.1,0,0.3,0,0.5,0c0.3-0.1,0.7-0.1,1-0.3
		c0.7-0.3,1.3-0.8,1.8-1.5l1.7-2.7l-3.2,0.4c-1.5,0.2-3.5,0.4-7.2,1.1c3.2-0.6-0.1,1.3-4.8,2.7c0.7-0.4-0.7-1,1-1.6
		c0,0-2.9,1.2-5.8,2.4c-2.9,1.2-5.7,2.6-5.7,2.6c2.9-1.2,0.2-1.1-2.5-0.4c0.6-0.1-1.9,0.8-5,2c-3.1,1.2-6.6,2.6-8.1,3.3l5-1.8
		c-6.6,2.6-9.6,4.4-12.6,6.1c-3,1.8-5.9,3.6-12.3,6.5c1.4-0.9,3.2-3.1-3.3-0.2c-2.7,1.9-11.8,8.6-22.6,14.5l-2.3,0.8l-8.2,4.6
		c4.8-3.5,18.8-12.5,26.6-17c-4.8,2-1.5,0.3-8.6,3.7c-2.6,0.9,3.7-2.3,5.7-3.3c0,0-4.1,2-8.3,3.9c-4.1,2-8.3,4-8.3,4
		c1,0.2-12.2,6.9-11.3,7.1c0,0,4.4-2.4,8.7-4.8c4.4-2.4,8.8-4.7,8.8-4.7c1,0.3-9.5,6.8-21,12.7c-3.1,1.3,1.6-2.2,1.3-2.3
		c-1.4,1-10.7,6.1-11.8,6.5l4.7-2.9c-5.3,2.6-8.6,5.2-14,8l1.8,2.9c1.1-0.7,2.3-1.3,3.8-1.8c2.6-1.3,8.4-2.7,8.7-3.2
		c-4.8,1.1-6.6-0.7-3.8-2.5c0.5-0.2,4.2-1.5,8.2-2.9c4-1.4,8.3-2.7,10-3.1c4.8-1.2-6.4,3.9-2.3,2.9c0.1-0.2,2.6-1.4,3.6-1.9
		c3-0.9-1,1,5.3-1.4c0.8-1,13.1-4.5,2.8-1.6c6.2-2.4,6.7-2.2,14.2-4.7c-2.5,0.4,6.2-3.7,12.6-5.8c-0.3,0.3,1.2,0,1.9-0.1
		c6.6-2,11.6-3.3,16.6-4.6c5-1.2,9.9-2.4,16.1-3.8c1.2-0.1,7.3-1.2,4.8-0.4c0.9-0.3,1.7-0.6,2.8-0.9c1.1-0.4,2.5-0.8,4.3-1.6
		c0.2,0,0.3-0.1,0.4-0.1l-0.5-1.5c-2.7,0.5-1.8,0.2-0.1-0.3l0.7,2c-2.4,1.1-6.6,2.1-3.1,1.6c0.1-0.2,1.4-0.7,3.2-1.5l-0.7-2.3
		c-3.3,1-8.5,2.7-11.8,4.1c1.3,0,6.8-2.1,12-3.6l0.4,1.2c-2.1,1-4.2,1.6-5.9,2.1c-0.1-0.2,0.4-0.5,1.4-1c1-0.5,2.4-1.1,4.1-2
		l0.2,0.6c-3.8,1.3-9.3,3.5-15.8,6c-9.8,3.9-4.5,1.1-6.2,1.9c-9.3,3.5-13.2,5.3-16.6,6.9c-1.7,0.8-3.4,1.6-5.5,2.5
		c-1.1,0.4-2.3,0.9-3.8,1.5c-0.7,0.3-1.5,0.5-2.3,0.8c-0.8,0.3-1.7,0.7-2.7,1c-6.2,2-0.7-0.9-2.2-0.7c3.9-1.8,7.1-2.9,9.9-3.8
		c2.8-1,5.3-1.8,8-2.8l-6.8,2.3c2.5-1.1,7.9-3.3,10.8-4.3c-2.6,0.8-10.6,3.7-19.5,7.2c-8.9,3.7-19,7.9-26.2,10.6
		c-2.4,1.3-6.8,3.1-4.6,2.5c0,0,1.1-0.5,2.2-0.9c1.1-0.5,2.2-1,2.2-1c2.1-0.7,0.1,0.4-1.8,1.3c-1.9,0.9-3.6,1.7-0.7,0.6
		c-2.3,1-4.7,2.1-6.9,3.4l-1-2.3c4.2-1.6,8.9-3.3,14.4-4.9l1.8,0c-0.2-0.1-5.8,1.5-8.2,2.5c3.6-1.5,13.6-3.6,17.4-5.7l-6.3,1.6
		c6.1-2.3,13.6-5.5,21.4-7.9c-3.7,0.6-1.8,0.7-7.5,1.8c5-0.7-19.8,6.5-11.9,4.8c-5.9,1.1-9.9,2.9-17.5,4.7c0.3,0.1,2.7-0.5-3.8,1.6
		c-0.1,0-0.2,0.1-0.3,0.2l2.1,4.8c0.2-0.2,0.6-0.4,0.9-0.6c0.2-0.1,0.2-0.1,0.4-0.2c-0.1,0-0.2,0.1-0.3,0.1c0.2-0.1,0.3-0.2-0.1,0.1
		c-0.3,0.1-0.7,0.3-0.9,0.4l-1.9-4.4c1.1-0.3,2-0.5,2.4-0.5c-0.5,0.3-1.3,0.6-2.2,0.9l1.6,3.6c1.8-1.1,4.6-2.3,7.3-3.5
		c2.8-1.2,5.2-2.3,6.6-3c3.8-1.5-1.5,0.9,0.7,0.2l4.9-2.4c0.7,0.2,10.2-3.4,1.5,0.5l7.9-3.3c2.4-0.9,5.2-1.9,7.9-3
		c2.7-1.1,5.3-2,7.3-2.9c3.8-1.3,9.4-4.1,6.2-2.5l12.5-5l0.2,0.1c4.1-1.5,8.2-3.2,12.5-4.8c4.2-1.6,8.6-3.1,13.1-4.3l-1.4-4.1
		c-4.2,1.8-9.2,2.4-14.5,3.4c-4.4,1.2-8.8,2.4-16.1,4.3l-1.5,0c-5.5,1.6-16.8,4.5-19,5.7c-3.1,0.5-9.8,2.6-16.9,5
		c-7.1,2.5-14.6,5.3-19.3,7.1l-0.2,0.6c-3.3,1.2-6.5,2.6-9.8,4c-3.3,1.4-6.9,2.9-10.9,5l0.7,0.1c-1,0.6-2.1,1.2-3.4,2l1.9,3.1
		c6.4-3.6,15.3-7.8,24.2-12.4c-0.6,0.5-3.3,1.8-5.2,2.7c12.9-5.6,26.1-14.1,38-18.9c2.8-1.5,4.9-2.4,7-3.3c-0.3,0.1-0.5,0.2-0.7,0.4
		c0.3-0.1,0.7-0.3,1.2-0.5c1.3-0.5,2.6-1.1,4.1-1.6c-1.3,0.5-2.4,0.9-3.5,1.3c2.2-1.1,5.5-2.7,8.8-4.3l1.6-0.2
		c0.3-0.1,0.5-0.2,0.8-0.4c3.3-1.3,2.5-1.4,0.6-0.9c1.6-0.8,3.1-1.6,4.3-2.2c3-0.4,8.7-3.9,12.7-4.5c1.1-0.6,5.3-2.3,9.5-3.9
		c4.2-1.6,8.4-3,9.2-3.7c0.1,0.1,1.2-0.2-0.7,0.4c3-0.8,6-1.4,8.8-2l-1.3-2c-0.2,0.4-0.4,0.6-1.2,0.7l-0.5-0.1
		c-0.3,0-0.6,0.1-0.9,0.1l-0.7,0c0,0-2,1-4,1.9c-2,0.9-4.1,1.7-4.1,1.7c-5.3,1.2-7.5,1.6-2.5-0.4c-12.2,4.4-10,3.2-20.4,6.9l0.4-0.5
		c-3.8,1.1-9.7,3.4-12,3.7c-4.3,0.9-14.8,4.1-26.7,8.1c-12,4-25.5,8.9-36.2,12.5c4.5-0.5-10,3.2-10.5,4.4c-1.3,0.2-4.3,1.3-1-0.3
		c-7.4,3.1-12.3,5-17,7.3l2,4.3c2.1-1,4-2,6.2-3.3c1.3-0.3-2.1,1.4-0.9,1.1c0.8-0.4,3.2-1.8,4.4-2.2c1.1-0.4-1.4,0.9-3,1.8
		c10.6-5.1,11.3-6.4,11.7-7.5c5.5-2.3,8.2-3.6,11.8-6c2-0.7,5.2-1.9-1.3,1.3c1.9-0.9,7.5-3.5,12.8-6c5.3-2.5,10.1-4.8,10.1-5.1
		c1.2-0.4,5.2-2.3,6.2-2.8c8.5-3.7,9.2-3.9,17.5-7.6l-2.3,0.9c3-2.1,6.8-3.2,13.5-6.2l-0.2,0.2c7.8-3.1,9.4-3.9,11-4.7
		c1.6-0.7,3.2-1.6,10.9-4.5l-1-0.1c0.5-0.7,3.6-1.9,7.6-3.6l-0.5-1.4c-2.4,0.3-5.2,0.9-7.8,1.8c-2.6,0.9-5.2,2-7.5,3.1l3.3-1.1
		c-2.4,1.2-5.8,2.4-9.4,3.4c-3.6,1-7.1,1.9-9.6,2.8c-1.1,0.3,1.6-0.8,3.1-1.5c-13,4.6-1.4,1.2-10.9,5.2c-1.9,0.4,1.9-1.7-4.5,0.8
		c-1.6,0.5-6.2,2.6-11.5,5c-2.6,1.2-5.4,2.4-8.1,3.5c-2.7,1.2-5.3,2.2-7.6,3c2-0.6,4-1.1-0.3,0.9c-6.7,2.9-18.7,6.6-24.4,10
		c-0.9,0.3-1.2,0.4-1.3,0.3c-2.6,1.2-6.7,3-10.6,4.8c-1.9,0.9-3.8,1.7-5.4,2.5c-1.6,0.7-2.8,1.5-3.5,1.9c-0.8,0.1-1.9,0.5-3.3,1.1
		c-0.2,0.1-0.4,0.2-0.7,0.3c-0.3,0.1-0.5,0.3-0.7,0.5c-0.3,0.2-0.6,0.4-0.9,0.6c-0.7,0.4-1.4,0.7-2.2,0.9l1.6,3
		c3.5-3.3,9.3-6.2,13.8-8.9c4.4-2.7,7.7-4.6,7.9-4.1c0,0,3.7-2.2,7.4-4.3c3.7-2.1,7.4-4.2,7.4-4.2l-0.3,0.4
		c9.6-5.2,12.9-7.3,16.1-9.4c2.3-1.1,0.7-0.1,0.6,0.1c7.2-3.6,11.1-5.5,14.7-7.4c3.6-1.9,6.9-3.8,12.8-6.9l1.5-0.1
		c1.4-0.8,5.7-2.6,11.3-4.7c5.7-2.1,12.7-4.5,19.4-7.1l-1.2-3.8c-2,0.6-4,1.3-5.8,2c0.1-0.1,0.4-0.3,1.6-0.8
		c-2.1,0.8-4.3,1.8-6.5,2.7c-2.2,0.9-4.4,1.8-6.7,2.6c-4.6,1.7-9.3,3.4-13.6,5.1c-8.6,3.3-15.8,6.5-18.4,8.7c0,0-2.6,1.3-5.2,2.6
		c-2.6,1.3-5.2,2.7-5.2,2.7c13.8-6.3-1.7,1.7,4.1-0.7c-5.4,2.6-14.1,6.1-7.6,2.9l1.1-0.4c1-1-3.3,0.9-7.8,3.1
		c-4.5,2.1-9.2,4.4-9.2,4.1c-5.7,2.8-11.4,5.6-17.1,8.4c-2.8,1.4-5.7,2.8-8.5,4.2l-2.1,1l-1.1,0.5c-0.3,0.1-0.5,0.3-0.7,0.4
		l-0.4,0.3c-1.1,0.7-2.3,1.2-3.6,1.4l1.4,3.2c3.2-2.4,6.8-4.3,10.3-6.5c3.6-2.2,7-4.4,10.4-6.5c6.9-4.3,13.8-8.3,20.8-12l-3.2,0.9
		c0,0,2.1-1.1,4.3-2.2c2.2-1.1,4.3-2.2,4.3-2.2c2.4-1,3.3-1-2.9,2.1c3.4-1.3,10.2-5.5,10.3-5.7c12.3-5.7-4.4,3.1-0.6,1.3l5.1-2.5
		l-1.2,0.5c4-2.3,4.2-2.7,11.8-6.3c4.8-2.2,2.6-0.8,4.5-1.7c0,0,0.2,0,0.6-0.2c0.4-0.2,1.2-0.6,2.3-1.1c0,0,2.7-1.3,5.5-2.6
		c2.8-1.3,5.6-2.4,5.6-2.4s-1.2,0.3-2.3,0.7c-1.2,0.4-2.3,0.7-2.3,0.7c4.8-2.5,10.6-4.2,5.1-2.9c1.6-0.4,4.3-1.3,7.6-2.3l-1-2.7
		c-3.2,1.3-7.1,2.5-11.2,3.9c-4.2,1.4-8.4,3-12.4,4.6c-7.9,3.2-14.4,6.2-16.3,6.9c-6.8,3.5-13.6,6.7-22,10.6
		c2.1-0.9,3.7-0.9-3.6,2.4c2.1-2.5-13.6,5.7-19.8,7.5c2.8-0.9-2.4,1.5-7.2,3.8c-4.8,2.3-9.2,4.4-4.8,2.9c-6.1,2.7-0.6-0.3-5.3,1.6
		c-2.3,1.2-4.8,2.3-7.4,3.2l1.3,3.2c3.3-1.6,6.5-3.5,9.7-5.3c3.2-1.9,6.6-3.7,10-5.6c6.9-3.7,14-7.5,21.2-11.4
		c0.2-0.3-2.8,1,0.8-1.2c0,0,2.4-1,4.8-2c2.4-1,4.8-2,4.8-2c3.4-1.8,2.7-2.5,9.3-5.2c-1,0.3-2.4,0.8-0.1-0.4
		c6.9-3.4,13.8-6.9,20.8-10.4c1.7-0.9,3.5-1.7,5.2-2.6l2.6-1.3c0.9-0.4,1.7-0.8,2.6-1.2c3.5-1.5,7.4-2.9,10.9-5.3l-1.7-2.8
		c-4.8,2.5-10.9,3.1-16.7,4.8c-5.8,1.5-11.5,3.4-17.2,5.1c-2.8,0.8-5.7,1.6-8.5,2.3c-2.9,0.7-5.8,1.4-8.7,2.1
		c-5.8,1.4-11.5,2.8-17.3,4.3c5.2-1.2,1.8-0.2-2.1,1c2.6-0.7,0.1,0.4,0.6,0.5c0,0-4,1.1-7.9,2.2c-4,1.1-7.9,2.4-7.9,2.4
		c-2.7,1.6-16.4,6.4-17.8,7.7l4.8-2c-6.2,3.3,9.6-2,9-0.7c3.4-1.8,8.3-3.2,13.8-4.7c5.5-1.5,11.6-3.1,17.5-5.4
		c2.7-0.6-2.2,0.9-0.7,0.8c3-1.3,6.7-2.4,13.7-4l-0.8,0.3c9.4-2.3,16.2-4.5,23.1-6.5c3.5-1,7-1.9,10.9-2.8c2-0.4,4.1-0.8,6.4-1.3
		c2.3-0.5,4.8-1.2,7.4-2.5l-2.2-3.7c-0.5,0.3-1.2,0.7-1.9,1.1c0,0,0.4-0.1,0.8-0.2c0.4-0.1,0.8-0.2,0.8-0.2
		c-1.9,1.2-3.3,1.7-4.3,2.1c-1,0.4-1.8,0.7-2.9,1c-1.9,1.1-0.4,0.5,1.9-0.4c1.1-0.5,2.4-1.1,3.5-1.6c1.1-0.6,2-1.1,2.5-1.4l1.6,2.7
		c-0.6,0.2-0.7,0.2-0.1-0.2l-1.3-2.2c0,0-0.1,0.1-0.2,0.2c-1.4,0.7-3.9,1.8-7.3,3.1c-1.7,0.7-3.5,1.4-5.4,2.3
		c-1.8,0.9-3.7,1.8-5.6,2.7c-7.5,3.7-14.7,7.4-16.9,7.9c-6.7,3.4,2.2-0.5-4.5,2.9l-1.9,0.7l-1.5,1.2c-4.4,2.2-6.8,3-7.1,2.9
		c1.1-0.5,3-1.6,4.1-2.2c-2.9,1.3-6.9,3.4-10.4,5.3c-3.5,1.9-6.5,3.6-7.5,4.1l6.5-3.2c-7.1,3.8-14.7,7.9-22.4,12.2
		c-3.9,2.2-7.7,4.3-11.5,6.6c-3.8,2.2-7.4,4.5-11.1,6.3l1.6,3.8c4.7-1.7,8.8-3.9,12.7-5.8l-1.5,0.4c13.5-6.7,11.1-4.9,26.1-12
		l-0.5,0.3c2.9-1.6,6.9-3.6,11-5.5c-3.7,2,7.4-2.9,2.5-0.3c14.7-7.3,7.2-3.8,16.7-9l2.4-0.7c3.2-1.8,3.4-2.1,11-5.5
		c-6.1,2.9,5.1-1.5-1.7,1.8c8-3,13.9-5.5,18.8-7.3c4.9-1.8,8.8-3.1,12.8-4.2l-1.4-3.9l-0.2,0c-2.5,1.2-1.7,1.1,0.4,0.5l1,2.8
		c-3.9,1.6-12.8,4.5-10,3.4c-1.7,0.4-0.6-0.1,1.6-1c2.2-0.9,5.4-2.1,8-3.2l-0.4-1.2c-0.6,0.2-1.1,0.3-1.6,0.5
		c-2.7,0.9-5,1.4-8.3,2.4c-3.3,1-7.6,2.6-13.8,5.7c1.2-0.6,1.3-0.7,2.6-1.3c-4.8,2.1-9.1,4.8-15,7.2c-3,2.1-7.5,3.6-8.1,4.8
		l11.5-5.8c-6.5,3.4-12.2,7.1-23.1,12.2c0.7-0.6,3.8-2.4,6-3.6c-3.2,1.4-5.9,3.2-9.3,4.8c0.3-0.6,3.7-2.5,7.9-4.7
		c4.2-2.2,9.3-4.6,12.6-6.6c-3.5,1.3-13,7-9.9,4.5c-2.3,1.8-5.4,3.3-8.9,5.1c-3.5,1.8-7.4,3.9-11.3,6.7l0.3-0.7
		c-1.3,0.8-3.8,2.6-6.2,4.1l4-3.2c-3.2,2.2-6.4,4.1-9.5,5.9c-1.6,0.9-3.2,1.8-4.7,2.8c-1.5,0.9-3,1.8-4.6,2.8c1.6-1,2.9-1.7,3.9-2.3
		c1-0.6,1.7-1,2.2-1.3c1-0.6,1.2-0.6,1.1-0.4c-0.1,0.3-1.1,1.2,1.7-0.4c-2.8,1.9-4.9,3.3-6.6,4.3c-1.7,1-3,1.7-4.1,2.2
		c-2.2,1.1-3.8,1.7-6.7,3.6l2,4.7c1.6-0.2,3.5-0.7,5.6-2c0.2-0.1,0.4-0.2,0.5-0.4c0.2-0.1,0.3-0.2,0.5-0.2c0.5-0.2,1-0.5,1.6-0.8
		c1.1-0.6,2.3-1.2,3.7-1.8c-1.3,0.7-3.7,1.8-5.4,2.5c-0.1,0-0.2,0.1-0.3,0.1c-0.1,0-0.1,0-0.1,0c-0.1,0-0.1,0-0.2,0.1
		c-0.3,0.2-0.5,0.3-0.6,0.3c-0.1,0-0.1,0,0.1-0.2c0.1-0.1,0.2-0.2,0.4-0.3c0.1-0.1,0.1-0.1,0.3-0.2c3.7-1.7,8.5-3.9,10.8-4.8
		c12.5-6.4-2.2,0.5,3.1-2.4c4.5-1.6,6.1-3.3,11.5-6.2l0.3,0.4c14.5-6.8,3.4-2.8,16.5-8.7l-5.2,3.2l6.7-3.4l-1.2,1.2
		c7.2-3.9,9.6-4.9,16.9-8c-1.8,0.5,0.6-1.3,7.1-4.1c4.6-1.6-2.3,1.5,6.9-2.5c-2,1.2-4.1,2.5-8.3,3.8c-0.3,0.3-1.9,1.2-2.3,1.5
		c4.9-1.8,12-5.1,15.4-6.5c-1.3,0.5-2.9,1.1-3.7,1.4c0,0,3.3-1.5,6.6-3.1c3.3-1.5,6.6-3,6.6-3c2.2-0.7,0.6,0.1-1.1,0.9
		c2.7-1.2,4.5-2,8.6-3.7c-0.4,0.4-0.6,0.7-1.3,1.1c-0.4,0.2-0.9,0.5-1.7,0.9c-0.8,0.4-1.8,0.8-3.2,1.4c0,0,0.8-0.3,2-0.9
		c1.2-0.5,2.8-1.2,4.4-1.9c1.6-0.7,3.2-1.4,4.3-1.9c1.2-0.5,2-0.8,2-0.8c0.5-0.1,2.1-0.6,3.4-0.9c1.3-0.3,2.3-0.4,1.6-0.1
		c0.1,0,0.3-0.1,0.4-0.1l-1.9-6.1c-3.6,1.3-7.9,3.1-12.5,5c-4.6,1.9-9.5,4-14.1,5.9c-0.5,0.3-1.4,0.8-3.4,1.7
		c-8.8,3.9-16.7,7.4-26.6,13.2l-6.1,2.4c-7.9,4.3,8.2-3.3-4.9,3.9c-9.2,5.2-3.7,1.4-7.1,3c-4.4,2.8-12,8-20.6,12.4
		C315.4,396.1,317.6,395,320.2,393.4z M370.7,381.4c-1.9,0.9-5.8,2.8-7.3,3.1C365.5,383.1,367.3,382.6,370.7,381.4z M315.4,406.3
		c1.4-0.8,3.6-1.8,6.2-2.9C319.8,404.4,317.7,405.4,315.4,406.3z M377.5,403.9c0.1,0,0.1-0.1,0.2-0.1
		C382.2,402.1,380.6,402.7,377.5,403.9z M368.4,407.5c-0.9,0.4-0.8,0.5-0.4,0.4c0.6-0.4,2.6-1.2,5-2.2
		C372.3,405.8,371,406.2,368.4,407.5z M372.1,363.9l-1.8,0.7C374.1,362.6,373.1,363.3,372.1,363.9z"/>
	<path d="M332.2,397.5c0.6-0.2,0.8-0.2,0.9-0.2C333.8,396.9,333.8,396.8,332.2,397.5z"/>
	<path d="M381.1,361.5l0.3-0.1c0.2-0.1,0.2-0.2,0.3-0.2L381.1,361.5z"/>
	<path d="M349.2,408.6c-1.9,0.6-3,1-3.7,1.1C345.4,409.8,346.3,409.6,349.2,408.6z"/>
	<path d="M363.8,406.1l-6,2.1c2.9-1,4-1.2,5.5-1.6C363.1,406.5,361.9,406.7,363.8,406.1z"/>
	<path d="M417.1,392.5c0.9-0.4,1.9-0.6,2.7-1l-0.3-0.1C415.8,392.6,413.3,393.7,417.1,392.5z"/>
	<path d="M369.9,405.7c0.6,0.2,4.3-1.1,8.5-2.6c-0.3,0.1-0.5,0.2-0.7,0.2C378.7,402.4,374.3,404.1,369.9,405.7z"/>
	<path d="M379.4,402.8c1.3-0.4,2.6-0.9,3.9-1.3C383.7,401.1,381.7,402,379.4,402.8z"/>
	<path d="M357,412.5c-2,0.7-1,1-2.2,1.3C352.8,415.2,367.4,407.9,357,412.5z"/>
	<polygon points="373.7,405.9 372,405.9 369.8,407.1 	"/>
	<path d="M343,416.2c-0.4,0.2-0.8,0.4-1.2,0.6l-0.3-0.6l5.5-1.7c-0.1,0,0.7-0.4,1.7-0.8c-2.8,0.9-5.7,1.8-7.3,2.4l0.4,0.8
		C342.6,416.4,343.1,416.2,343,416.2z"/>
	<path d="M348.8,413.7c2.2-0.7,4.2-1.4,5.4-1.9C353.1,412.2,350.6,413,348.8,413.7z"/>
	<polygon points="364.5,409.1 362.5,409.6 357.8,411.1 	"/>
	<path d="M413.7,388.1c0,0,0.5-0.2,1.1-0.4c0.7-0.3,1.6-0.6,2.5-0.9c1.8-0.7,3.6-1.3,3.6-1.3c0.7-0.4-1.3,0.2-4,1.2
		C415.2,387.3,412.5,388.3,413.7,388.1z"/>
	<path d="M391.4,395.1c2-0.6,2.2-0.6,3.3-0.9l0-0.7L391.4,395.1z"/>
	<path d="M412.4,386.9c0.6-0.5,10.4-4.2,1.2-0.9C412.9,386.4,405.7,389.3,412.4,386.9z"/>
	<polygon points="337.4,411.3 339.3,410.5 338.6,409.7 	"/>
	<path d="M393.5,379.2c-8.5,3.6-1.7,1.5-9.4,4.7c-1.9,1.1,6.3-2.6,4.3-1.5C393.4,379.8,396.1,378.8,393.5,379.2z"/>
	<path d="M388.4,382.3c-0.8,0.4-1.6,0.8-2.5,1.3C387.4,382.9,388,382.6,388.4,382.3z"/>
	<polygon points="288.4,373.9 282.8,375.9 286.5,374.8 	"/>
	<path d="M278.1,378.8c0,0-0.4,0-0.8,0c-0.4,0-0.7,0-0.7,0s-0.7,0.5-1.2,0.7c-0.3,0.1-0.5,0.2-0.6,0.3c-0.2,0-0.3,0-0.3,0
		c0.1,0,0.2,0,0.3,0c0.1,0,0.2,0,0.3,0c0.3,0,0.6-0.1,1-0.3C276.7,379.3,277.5,378.9,278.1,378.8z"/>
	<path d="M386.4,376.5l0.4-0.3c-0.9,0.2-2.2,0.7-4.8,1.7L386.4,376.5z"/>
	<polygon points="312.5,406.5 313.7,405.9 311.1,406.4 	"/>
	<path d="M337.6,382.2c-2.4,1.3-5.2,3-7.6,4.3C335.1,383.5,338.6,382.5,337.6,382.2z"/>
</g>
</svg>
