<?xml version="1.0" encoding="utf-8"?>
<!-- Generator: Adobe Illustrator 26.0.2, SVG Export Plug-In . SVG Version: 6.00 Build 0)  -->
<svg version="1.1" id="Objects" xmlns="http://www.w3.org/2000/svg" xmlns:xlink="http://www.w3.org/1999/xlink" x="0px" y="0px"
	 viewBox="0 0 800 800" style="enable-background:new 0 0 800 800;" xml:space="preserve">
<g>
	<path d="M507.6,330.9c-1.6-0.2-1.1,0.3-1.3,0.4c1.3,0,1.7-0.1,1.6-0.2C507.9,331,507.6,330.8,507.6,330.9z"/>
	<polygon points="536.3,340.1 535.8,340 540.1,341.4 	"/>
	<path d="M548.2,343.9c0.7,0.4,1.8,0.9,3.1,1.3c1.3,0.4,2.9,0.7,4.4,0.6l-0.9,2.2c-0.7-0.6-1.8-1.1-2.9-1.6
		c-1.1-0.5-2.2-0.9-3.2-1.3l-0.8-0.5l-2.4-0.4c0.8,0.3,1.5,0.6,2.4,1c0.8,0.3,1.7,0.6,2.5,0.9c0.8,0.3,1.6,0.6,2.4,0.9
		c0.7,0.3,1.4,0.7,1.9,1.1l1-2.6C552.9,345.7,550.1,344.6,548.2,343.9z"/>
	<path d="M533.5,338.3c0.9,0.5-3.3-0.5,3.5,0.9c-0.3-0.1-0.4-0.2-0.6-0.2C535.8,338.9,534.9,338.7,533.5,338.3z"/>
	<path d="M536.4,339C539.4,339.7,534.5,338.3,536.4,339L536.4,339z"/>
	<path d="M522.5,336.2l4,0.6c-0.8-0.3-4.3-1.1-3-0.9C519.4,335.2,520.2,335.5,522.5,336.2z"/>
	<path d="M518.7,336l2.1,0.3C520.4,336.1,519.8,336,518.7,336z"/>
	<path d="M525.1,336.9l-4.4-0.7c0.6,0.2,0.6,0.5,2,0.3C522.3,336.7,523.2,336.7,525.1,336.9z"/>
	<path d="M527.5,337.5c2.2,0.6,5,1.3,1,0.7c3.8,0.8,5.4,1,5.2,0.8C533.5,338.9,531.3,338.3,527.5,337.5z"/>
	<path d="M546.5,344.1c0,0,0.7,0.3,1.4,0.6c0.7,0.3,1.4,0.6,1.4,0.6s0.6,0.1,1.3,0.3c0.6,0.1,1.3,0.2,1.3,0.2
		C550.6,345.6,546.4,343.8,546.5,344.1z"/>
	<path d="M497.8,331.5c-0.3,0.1,1.3,0.6,1.6,0.8l3,0.3C500.8,332.3,498,331.8,497.8,331.5z"/>
	<path d="M499.4,332.3l-4.4-0.4C498.9,332.5,499.6,332.6,499.4,332.3z"/>
	<path d="M517.8,336.6l7.3,0.9c0,0-2.2-0.3-4.3-0.6c-2.2-0.3-4.3-0.6-4.3-0.6L517.8,336.6z"/>
	<polygon points="480.9,329.4 483.4,329.3 478.9,329.4 	"/>
	<path d="M479.7,337.6c-2-0.2,2.5,1.1,0.4,0.8c0.4,0.1,0.8,0.2,1.1,0.2c0.3,0.1,0.6,0.1,0.9,0.2c0.7,0.1,1.4,0.3,2,0.4
		c1.3,0.2,2.6,0.4,3.7,0.6c-1.2-0.2-2.5-0.5-3.9-0.9c-0.7-0.2-1.4-0.4-2.1-0.6C481.3,338.1,480.5,337.8,479.7,337.6z"/>
	<path d="M491.9,340.4c-1.2-0.2-2.5-0.4-3.9-0.6C489.3,340,490.6,340.2,491.9,340.4z"/>
	<path d="M487.4,330.9c-0.3-0.1-1-0.5-3.4-0.8l1.7,0.6C486.2,330.8,486.8,330.8,487.4,330.9z"/>
	<path d="M485.7,330.7L485.7,330.7c-2-0.2-3.3-0.4-3.8-0.5C482.4,330.3,483.5,330.5,485.7,330.7z"/>
	<path d="M487.8,331c-0.2,0-0.3,0-0.4-0.1C487.6,331,487.7,331,487.8,331z"/>
	<path d="M506.4,334.2c-2.6-0.2-8-0.8-2.9,0.4C505.4,334.6,502.5,333.9,506.4,334.2z"/>
	<path d="M489.9,331.8l4.7,0.7c-0.1-0.1-0.9-0.4,0.4-0.3L489.9,331.8z"/>
	<polygon points="487.6,331.6 489.9,331.8 488.2,331.5 	"/>
	<path d="M484.1,338.1c2,0.3,4.2,0.8,6.7,1.4c-2.6-0.7-5.3-1.4-7.9-2.1C482.5,337.4,481.3,337.4,484.1,338.1z"/>
	<path d="M473.3,333.9c0.3,0.4,0.7,0.8,0.9,0.9C473.8,334.5,473.3,333.7,473.3,333.9z"/>
	<path d="M514.9,345.3c-0.1-0.1-0.2-0.1-0.4-0.2c0,0-0.1,0-0.1,0.1L514.9,345.3z"/>
	<path d="M482.5,337.2c-0.8-0.3-1.7-0.4-2.4-0.6c-0.7-0.1-1.3-0.2-1.9-0.3c1.5,0.4,3.2,0.7,4.7,1.1
		C483.1,337.4,483.1,337.3,482.5,337.2z"/>
	<path d="M498.6,341.9c-1-0.3-2.2-0.7-3.4-1.1C496.3,341.2,498.3,341.9,498.6,341.9z"/>
	<path d="M475.1,335.5c-0.1-0.1-0.3-0.1-0.4-0.2C475.6,335.8,475.5,335.7,475.1,335.5z"/>
	<path d="M475.1,335.5c1.3,0.5,2.1,0.6,3,0.8c-0.6-0.2-1.3-0.3-1.9-0.6c-0.6-0.2-1.2-0.4-2-0.9C474.6,335.1,474.9,335.3,475.1,335.5
		z"/>
	<path d="M522.8,344.2c-0.4,0.3-5.7-0.5-10.1-1.9c-4.5-0.7-1.9,1.2,1.8,2.8c0.2-0.1,0.2-0.3,4.8,0.5c-1.5-0.6-10-2.7-6.1-2.2
		c6.1,1.1,4.9,1.2,7.8,2.1c-2.4-1,7.8,1,6.7,0l-5.3-0.9C522.3,344.4,524.3,344.6,522.8,344.2z"/>
	<path d="M505.9,343.1l-1.9-0.4c2.1,0.6,3.6,1.1,6.3,2.1c3.2,0.5,3.8,0.5,4.1,0.4c0,0-2.3-0.5-4.6-1c-2.3-0.6-4.6-1.2-4.6-1.2
		L505.9,343.1z"/>
	<path d="M495.6,340.6c1.6-0.1,6.1,0.9,3.5-0.3c-5.5-1.3-3.9-0.6-7.2-1.2C500.7,341.2,489.3,338.7,495.6,340.6
		c-1.8-0.4-3.4-0.8-4.9-1.1c1.6,0.4,3.1,0.9,4.5,1.3c-0.1,0-0.1-0.1-0.2-0.1l0,0l0,0c-0.4-0.1-0.5-0.2-0.1-0.1c0,0,0.1,0,0.2,0
		C495.3,340.6,495.4,340.6,495.6,340.6c2.5,0.7,0.4,0.2-0.4,0.1c0,0-0.1,0-0.1,0c0,0,0,0,0,0l8.9,2
		C502.1,342.1,499.8,341.6,495.6,340.6z"/>
	<path d="M498.6,334.7c-0.3-0.1-0.3-0.1-0.3-0.1C497.7,334.6,497.5,334.6,498.6,334.7z"/>
	<path d="M494.9,333.9c0.7,0,1.2-0.1,3.4,0.3c1.8,0.4,0,0.2,0,0.4c1.3,0.1,4.5,0.4,0.5-0.4l-0.6,0c-3.6-0.7-8.2-1.8-7.6-1.8
		C491.7,332.8,492.6,333.2,494.9,333.9z"/>
	<path d="M475.7,334.2c0,0,0.5,0.2,1.2,0.5c0.7,0.2,1.7,0.5,2.6,0.7c1.8,0.4,3.7,0.8,3.7,0.8l-3.6-1.3l0.1,0.3
		c-2.1-0.6-2.9-0.9-3.4-1C475.9,334.1,476,334.3,475.7,334.2z"/>
	<polygon points="515.7,345.7 514.6,345.9 519,346.2 	"/>
	<polygon points="525.3,347.7 524.8,348 527.4,348.4 	"/>
	<path d="M457.3,351.8l2.2,0.4C458.5,352,457.8,351.9,457.3,351.8z"/>
	<path d="M441.5,348.5l-0.4,0.1C441.8,348.6,442.1,348.6,441.5,348.5z"/>
	<path d="M539,354.4c-3.1-1-6.6-2.2-6.3-1.7l0.9,0.6C535.8,353.6,537.5,354,539,354.4z"/>
	<path d="M519.9,357.2c-0.3-0.1-0.6-0.2-0.9-0.3c-0.8,0-1.6,0-2.2,0C517.7,357,518.7,357.1,519.9,357.2z"/>
	<path d="M522.4,355.8c0,0,1,0.3,2.1,0.5c1,0.3,2.1,0.6,2.1,0.6C525.7,356.6,524.3,356.2,522.4,355.8z"/>
	<path d="M470,363.6l-2.6-0.1C471.3,364.4,469.6,363.8,470,363.6z"/>
	<path d="M490.7,336.5c-2.8-0.4-5-0.5-7-0.7C487.1,336.2,489.8,336.8,490.7,336.5z"/>
	<path d="M450.2,355c1.3,0.2,1.9,0.2,1.9,0.1C450.7,354.9,450,354.8,450.2,355z"/>
	<path d="M475.6,335.4c0.5,0,1,0.1,1.5,0.1c2.1,0,4.1,0.1,6.6,0.2C481.3,335.5,478.4,335.2,475.6,335.4z"/>
	<path d="M383.7,368.3c-0.2,0-0.5,0-0.7,0C382.9,368.4,383.2,368.4,383.7,368.3z"/>
	<path d="M291,375.3c0.9-0.2,2.4-0.4,3.8-0.7C294.1,374.7,292.9,374.9,291,375.3z"/>
	<path d="M551.2,347.2C553.3,347.8,551.6,347.3,551.2,347.2L551.2,347.2z"/>
	<path d="M554.3,352.8c0.4,0,0.8,0.1,0.9,0C555,352.8,554.7,352.8,554.3,352.8z"/>
	<path d="M471.7,342c0.1,0,0.1,0,0.2,0.1C471.3,341.8,471.4,341.8,471.7,342z"/>
	<path d="M554.3,348.4c-0.8-0.3-1.7-0.6-2.6-0.9C552.1,347.6,552.9,347.9,554.3,348.4z"/>
	<path d="M554,348.1c0.7,0.3,1.3,0.5,1.8,0.7C556.1,348.8,555.9,348.6,554,348.1z"/>
	<path d="M548.4,346.5c1.2,0.3,2.3,0.6,3.3,0.9c-0.4-0.1-0.6-0.2-0.5-0.2C550.6,347.1,549.8,346.9,548.4,346.5z"/>
	<path d="M446,362.1c-0.1,0-0.3-0.1-0.4-0.1C443.4,361.9,444.3,362,446,362.1z"/>
	<path d="M484.7,350.1c0.1,0,0.1,0,0.2,0C484.9,350.1,484.7,350.1,484.7,350.1L484.7,350.1z"/>
	<path d="M477.3,349.4c3.2-0.1,5,0.2,7.4,0.6l-2.3-1.6L477.3,349.4z"/>
	<path d="M495,360.3c0,0-1.3-0.4-2.5-0.9c-1.3-0.4-2.5-0.9-2.5-0.9c6.4,1,10.8,2.6,6.1,0.6c-0.5,0.5-5.5-0.8-10.5-2
		c-5-1.2-10-2.2-10.5-1.6l-3.3-1c1,0.2,1.1,0.2,2.1,0.4c-6.5-2.1-5.1-0.1-13.6-2.1c-2.9-0.7-5-1.4-2.9-1.1l-6.7-1.1
		c-1.9-0.4-1.4-0.6,0.5-0.1c0,0-2.5-0.5-5-1c-1.2-0.3-2.6-0.5-3.6-0.7c-1-0.1-1.6-0.2-1.6-0.2l0.1,0c-1.5,0-4.7-0.3-6.1-0.7
		c-1.1-0.5-0.8-0.5-0.3-0.3c0.5,0.2,1.2,0.4,0.9,0.2c-1.2-0.3-2.4-0.8-3.4-1.4l-0.7,2.9c0.5-0.1,0.9-0.2,1.4-0.3
		c1.3,0.1,0.3,0.3-1.3,0.7l0.9-3.6c0.9,0.6,2.3,1.2,3.7,1.6c-1.7-1.1-2.4-1.6-3.4-2.1l-1.1,4.8c1.8-0.4,4.1-1.2,10.7-0.2
		c0,0-1.3-0.1-2.6-0.1c-1.3,0-2.6,0-2.6,0c3.3,0.8,7.2,1,13.4,2c-0.7-0.2-3.8-0.8-5.8-1.3c-2-0.5-3.1-0.9-0.1-0.8
		c1.7,0.3,4,0.6,7.4,0.6c0,0.5,3.2,0.6,7.3,1l-0.3,0.6c4.4,0.3,4.1-0.1,6.7-0.1c4.8,0.6,5.8,1.3,6.9,1.8c7.7,1.2-5.2-1.5,3.9-0.4
		c6.4,1.2,10.9,1.7,18.6,2.8c4.4,1.1-0.9,0.2,0.7,0.7l4.1,0.3c1,0.2,0.6,0.3,0.4,0.3c3.4,0.5,0.4-0.6,5.7,0.3
		c0.8-0.2,3.4,0.6,6.7,1.5c3.3,0.9,7.3,1.8,10.7,1.9c1.6,0.4-0.8,0.3-0.4,0.6c3.5,0.4,5.5,0.6,7.1,0.7c1.7,0.1,3,0.2,5.2,0.1l0.6-3
		c-0.3,0-1.5-0.4-3.3-0.8c0,0-1.5-0.6-3.1-1.1c-1.6-0.5-3.1-0.9-3.1-0.9c4.6,1.5-1.5,0.6-6.8,0.3c1.6,0.5,3,0.9,3.9,1.2l-8.3-1.1
		c-1-0.3-0.1-0.4,1.3-0.4c-0.6,0-1.1-0.1-1.5-0.1c-2.9-0.7-1.3-0.8,0.9-0.8c1,0.3,2,0.6,2.9,0.9c2.1,0,4.1-0.1,3.7-0.6
		c-0.6,0-1.6-0.1-2.7-0.3c0.6,0,0.9,0,0.7-0.2c-0.3-0.1-1.2-0.1-2.5-0.2l-1.7-1l-0.5,0.2l-10.7-2.2c-7.9-0.6-14.8-0.6-27.1-2.4
		c3.1,0,0.8-0.7,1.1-1.3c3.2,1.2,9.5,1.3,15.9,2.5c-3.3-0.6-2.5-0.8-1.7-0.8l-11.4-1.3c0.3-0.5-2.3-0.8-5.2-1.5
		c2,1.4-8.5-0.9-13.2-1.5c-0.2-0.4,0.9-0.5,6.5,0.7c-6-1.9-8.2-0.5-14.1-2.3c1.4,0.3,2.1,0.5,2.7,0.4c-1.6-0.2-4.4-0.7-6.4-1.3
		c-2-0.6-3.3-1.3-2.4-1.1c0,0,0.3,0.1,0.6,0.2c0.3,0.1,0.6,0.2,0.6,0.2c-0.8-0.3-1.7-0.6-2.6-1l-1,3.1c4.9,0.9,11.3,1.4,16.5,1.8
		c5.2,0.4,9.4,0.7,10.1,0.4c0.1,0.1-1.3,0.9-1.9,1c0,0,4.2-0.2,8.4-0.4c4.2-0.1,8.4-0.3,8.4-0.3c-1.5,0.5,3.7,3-3.9,2.4
		c2.2,0.4,4.8,0.9,9.5,1.3c-1.5-0.3-3.5-1.6-1.5-1.4c5.5,1.6,3.8,1,10.6,2.7c-2.2-0.5,0.4-1.3,4-0.7c-0.6,0.1,0.1,1.2-1.2,1.1
		l8.9,0.3c-2.2-0.2-0.5,0.9,1.4,1.5c-0.9-0.4,7.5,1.3,9.9,1.6l-3.6-0.9c9.8,1.9,10,0.1,19.7,2.1c-1.2,0-3.2,0.8,1.7,1.9
		c1.7-0.1,6.5-0.4,12.2,0l-0.1,1.4c-2.2,0.4-4.7,0.4-7.2,0.2l-1.6-0.6c0,0-1.7-0.2-3.4-0.4c-1.7-0.2-3.3-0.4-3.3-0.4
		c1.5,0,4,0,6.8,0c2.8,0,6-0.1,8.7-0.6l-0.2,2.2c-2.8-0.3-5.1-0.5-7-0.6c3.6,1,0.9,0.6,6.4,1.7c0.2,0.1,0.3,0.1,0.3,0.1l0.4-4.7
		c-0.2,0-0.2-0.1,0-0.1l-0.5,4.9c-0.7,0-3.7-0.5-4.9-0.8l4.9,1.1l0.5-5.6c-2.4,0-4.9-0.3-7.5-0.7c0.2,0.4-2.2,0.2-4.7-0.2
		c-2.5-0.3-5-0.6-4.8-0.3c0,0,3.5,0.5,7,0.9c1.7,0.2,3.5,0.4,4.7,0.5c1.3,0.1,2.1,0.1,2.1,0.1c0.3,0.3-1.7,0.7-5,0.6
		c-3.3-0.2-7.8-0.7-12.3-1.6c-2.3-0.7,1.9-0.8,1.8-1.1c-1.2,0-8.7-1.2-9.5-1.6l3.9,0.4c-5-1.2-8.4-0.8-14.3-2.7
		c-2.1-0.5-6-2.3-6.4-2c3.2,1.5,3.3,4,0.9,4c-0.7-0.2-10.7-3.3-13-4.3c-3.3-1.4,5.5-0.1,2.7-1.4c-0.2,0.1-2.1-0.1-2.9-0.2
		c-2.1-0.7,1-0.3-3.7-1.4c-1,0.5-9.6-2.5-2.4,0c-4.7-1-4.9-1.4-10.3-2.8c1.6,0.9-5.2,0.2-9.9-1.1c0.3-0.1-0.6-0.6-1.1-0.9
		c-0.8-0.3-1.6-0.5-2.4-0.8c-0.4-0.1-0.8-0.2-1.1-0.4c-0.4,0-0.8,0-1.1-0.1c-1.5-0.2-2.6-1.1-3.1-2.3l-0.2,0.3
		c4.9-0.4,9.2-0.3,15.1-0.1c0.8,0.2,5.2,0.6,3.3,0.8c1.3,0,2.5-0.2,5.3-0.1c5.4,0.9-6.3-0.3-2.2,0.7c0.4-0.4,7.3-0.1,11.3,0
		c-1.2-0.7-9.2-0.8-13.2-0.7c0-0.8,7-1.4,16.6-1c7.6,0.5,3.2,0.9,4.5,0.9c7.1,0.9,10.1,1.1,12.9,1.2c2.8,0.2,5.2,0.4,11,2
		c4.5,1.6,0,1.1,0.9,1.7c-6.1-1.2-9.2-2.4-13.3-3c0,0,1.3,0.3,2.5,0.6c1.3,0.3,2.5,0.6,2.5,0.6c-2-0.2-6-0.8-8.2-1.3
		c1.9,0.5,7.8,1.5,14.5,3.1c6.7,1.5,14.2,3.6,19.4,5.3c1.9,0.3,5.2,1,3.7,0.4l-3.4-0.8c-3-1.2,6.5,1.1,2.3-0.2
		c2.6,0.5,5.5,1.1,8.5,2.4l-0.9,2.7c-2.4-0.4-5-0.9-7.7-1.7l-1.1-0.9c0.1,0.2,4.1,1.4,5.9,1.6c-2.8-0.3-9.6-3.2-12.7-3l4.4,1.5
		c-4.6-0.8-10.4-1.4-16-2.8c2.5,1.2,1.3,0.2,5.2,1.8c-1.7-0.8,2,0,5.3,0.7c3.3,0.7,6.4,1.5,3.7,0.4c3.9,1.8,7,2.1,12.4,3.9
		c-0.1-0.2-1-0.5,0.2-0.3l1.7-5c-0.5-0.2-1.3-0.6-2.7-1.2c-0.2,0-0.8-0.2-1.1-0.2c-0.1-0.1-0.2-0.1-0.3-0.1c0.1,0,0.2,0.1,0.3,0.1
		c-0.2,0-0.2,0,0.1,0c1.1,0.5,2,1,2.4,1.3c-1.3-0.3-3.8-1.1-6.4-1.7c-2.6-0.6-5-1.2-6.3-1.4c-2.8-0.9,1.2,0.1-0.2-0.5l-3.9-0.7
		c-0.3-0.5-7.3-2.7-0.6-1.2l-6-1.6c-3.5-1.1-8.4-2.4-11.4-2.8c-2.9-0.7-7.4-0.8-4.8-0.8c0,0-2.4-0.3-4.8-0.6
		c-2.4-0.3-4.8-0.5-4.8-0.5l-0.1-0.1c-9.5-1.2-19.7-1-30.5-2.3c-3.3,0-6.6,0-12.2,0.4l-1.1-0.3c-0.1,0-0.2,0-0.4,0l-3.9,0.5l1.7,3.4
		c0.4,0.7,0.9,1.6,1.7,2.3c0.8,0.7,1.9,1.2,2.9,1.5c0.5,0.1,1,0.2,1.5,0.3l0.3,0c0,0,0.1,0,0.1,0c0.6,0.2,1.3,0.4,1.9,0.7
		c2.6,0.9,4.9,1.6,5.8,1.7c2,1.1,6.8,2.6,12,3.8c5.2,1.3,10.8,2.5,14.3,3.4l0.4-0.4c4.8,1.2,9.5,2.2,15.6,3.4l-0.3-0.5
		c5.3,0.8,13.4,3.2,21.7,4.7c-0.6,0.1-2.7-0.4-4.2-0.8c3.3,1,6.8,1.6,10.4,2.2c3.6,0.6,7.3,0.9,11,0.7l0.4-4.1
		c-3.1-0.6-6.2-1.2-8.9-2c-2.3-0.3-3.9-0.7-5.4-1.1c0.2,0,0.4,0.1,0.6,0.1c-0.2,0-0.6-0.1-0.9-0.2c-1-0.3-2-0.5-3.1-0.8
		c0.9,0.3,1.8,0.5,2.6,0.7c-1.7-0.3-4.4-0.8-6.9-1.1l-1-0.7c-0.2,0-0.4-0.1-0.6-0.1c-2.5-0.6-2.1-0.1-0.8,0.5
		c-1.3-0.2-2.5-0.3-3.4-0.3c-1.9-1.1-6.8-0.9-9.4-2.2c-1.8,0.1-13-1.8-14.5-1.2c-0.1-0.1-0.8-0.3,0.6-0.1c-2.9-0.6-5.7-1.1-8.3-1.2
		l-1.1-0.8l-6.4-0.1c-3.8-0.9-5.3-1.3-1.5-1.3c-9.3-0.5-7.5-0.8-15.4-1l0.4-0.3c-2.8-0.3-7.3-0.3-9-0.8c-1.3-0.3-3.6-0.6-6.4-0.9
		c-2.8-0.3-6.2-0.7-9.8-1.3l-1,3.1c2.4,1.1,5,1.7,7.6,2.2c1.3,0.3,2.6,0.5,3.9,0.8l3.9,0.9c5.2,1.1,10.4,2.2,14.8,3.2
		c-2.9-1.7,7.3,1.8,8.1,1c0.9,0.4,3.1,0.9,0.5,0.8c8.1,1.1,12.1,2.5,17.8,2.6c0.9,0.4-1.8,0.1-1,0.4c0.7,0,2.6,0.2,3.4,0.5
		c0.8,0.3-1.2,0-2.5-0.1c8.3,1.3,9.3,0.6,10,0c4.1,1.1,6.3,1.4,9.4,1.4c1.4,0.5,3.8,1.2-1.3,0.4c1,0.2,3.2,0.6,5.8,1.2
		c2.6,0.6,5.3,1.5,7.4,2.3l0.7-3.2c-2.2,0-3.9-0.1-4,0.1c-0.9-0.2-4-0.6-4.8-0.7c-6.5-1.1-7-1.2-13.4-2.3l1.7,0.4
		c-2.6,0.3-5.3-0.8-10.4-1.8l0.2,0c-5.8-1.5-7.1-1.7-8.3-1.9c-1.3-0.2-2.5-0.4-8.3-1.8l0.6,0.6c-1.3,0.8-10.2-2.4-17.1-2.8l2.4,0.6
		c-3.7-0.2-10.2-2.7-14-3.2c-0.8-0.2,1.3,0,2.5,0c-9.8-1.6-1.3,0.5-8.7-0.1c-1.3-0.5,1.8-0.7-3.1-1.2c-1.1-0.2-4.1-0.3-7.9-0.4
		c-3.7-0.1-8.2,0-11.9,0.5l-5.1,0.7l4.2,3.2c0.6,0.5,1.2,0.9,1.8,1.2c-0.7-0.5-1.4-1.1-1.4-1.3c0-0.2,0.5,0.1,2.2,0.9
		c2.7,1.3,6.3,2,9.6,2.7c1.6,0.3,3.3,0.8,4.8,1.1c1.5,0.3,3,0.5,4.2,0.6c0.6,0.2,0.9,0.3,0.9,0.4c3.9,0.6,12.7,2.4,15.2,2.4
		c1.6,1.2,7.7,2.3,13.3,3.3c5.6,1.1,10.7,2.2,10.5,2.9c0,0,3,0.8,5.9,1.6c0.4,0.1,0.7,0.2,1.1,0.3c0.5,0.1,0.8,0.2,1.2,0.3
		c0.7,0.2,1.3,0.3,1.8,0.5c1,0.3,1.7,0.5,1.7,0.5l-0.3,0c0.6,0.2,1.2,0.5,1.5,0.7c0.1,0.1,0.1,0.1,0.2,0.2c0,0,0.1,0.1,0.1,0.1
		c0,0,0,0,0,0c0,0,0.1-0.1,0.1-0.1c0.1-0.1,0.2-0.1,0.4-0.2c0.2-0.1,0.2-0.1,0.3-0.1l0.9-2.1c-2.3,0.2-4,0.1-5.3,0
		c-1.4-0.1-2.5-0.1-3.6-0.2c-1.7-0.5-0.4-0.3-0.3-0.4c-2.7-0.6-4.9-1.3-6.7-1.7c-1.8-0.4-3.3-0.8-4.7-1c-2.9-0.6-5.5-0.9-10.3-1.6
		l-0.9-0.7c-1.3-0.1-5.3-1.2-10.4-2.5c-5.1-1.3-11.2-2.7-16.8-3.5c0.1,0,0.4-0.1,1.3,0c-6.3-0.9-13.7-2.6-20.3-3.6
		c-3.3-0.5-6.3-0.9-8.8-1.1c-2.5-0.1-4.5-0.1-5.6,0.2c-1.2-0.1-2.5-0.2-3.7-0.3l-0.5,2.8l4.5,0.7c-10.5-2.4,1.7-0.4-2.5-1.7
		c4.2,0.8,10.6,2.9,5.5,1.9l-0.8-0.3c-2.1,0.5,13,3.3,12.6,3.9c7,1.6,14.1,2.8,20.9,4.1c3.4,0.7,6.8,1.4,10.2,2.2l2.5,0.6l2.5,0.6
		c1.6,0.4,3.2,0.8,4.4,1.5l1.1-3.7c-6.6-0.9-13.1-1.8-19.5-2.6l2.2,1l-6.9-0.9c-1.8-0.4-2.4-0.9,2.6-0.2c-2.5-0.7-8.3-0.7-8.5-0.5
		c-9.6-1.4,3.9-0.4,0.9-0.8l-4-0.4l0.9,0.2c-3.3-0.1-3.6,0.2-9.6-0.5c-3.7-0.5-1.9-0.6-3.4-0.8c0-0.1-0.5-0.1-2.3-0.2l-8.7-0.8
		l3.4,0.8c-3.9,0-8.2-0.6-4.2,0.3c-2.9-0.7-11.1-1.4-18.9-1.8c-3.9-0.2-7.8-0.4-10.9-0.5c-3.1-0.1-5.4-0.3-6.3-0.5
		c-4.9,0.1-9.8-0.4-15.8,0.1l-1.8,0.1l0.8,1.7c0.5,1,1.4,1.5,2.1,1.9c-0.9-0.4-1.5-1.4-1.1-1.2c0.2,0.1,0.6,0.3,1.3,0.6
		c0.7,0.3,1.8,0.5,3.2,0.8c-0.6,0.2-0.2,0.5,0.7,0.8c0.4,0.1,1,0.3,1.7,0.5c0.7,0.2,1.5,0.4,2.3,0.6c3.4,0.8,7.7,1.5,9.9,2.3
		c-2-0.6,2,0,5.8,0.3c3.8,0.3,7.4,0.3,4.1-0.3c4.8,0.4,0.3,0.5,3.9,1c3.1,0,6.4-0.1,9.8-0.1c1.7,0,3.5,0,5.1,0.1
		c1.7,0,3.7,0.4,6-0.4l-1.1-3.6c-5.9,1.2-12.1,2.2-18.3,3.3c-0.2,0.2,2.2,0.1-0.8,0.8c0,0-1.9,0.1-3.7,0.1c-1.9,0-3.7,0.1-3.7,0.1
		c-2.7,0.4-2.4,1.3-7.5,1.3c0.7,0.1,1.8,0.2,0,0.4c-13.7,1.1-27.7,2.4-41.7,3.9c-14.1,1.6-28.1,3.7-42.1,5.2
		c3.8-0.3,1.3,0.2-1.5,0.7c1.9-0.2,0,0.4,0.4,0.6l-11.7,1.4c-1,0.5-4.1,1.1-7.1,1.7c-2.9,0.6-5.7,0.9-6.3,1.3c0,0,0.9-0.1,1.8-0.3
		c0.9-0.2,1.8-0.3,1.8-0.3c-2.3,0.7-0.6,0.9,1.7,1c2.3,0,5.1-0.1,4.8,0.5c5.2-1.9,14.5-1.3,23.2-4c2-0.1-1.6,0.6-0.5,0.6
		c2.2-0.8,4.9-1.3,10-1.9l-0.6,0.2c7.1-1.1,12.2-1.7,17.6-2.3c5.3-0.5,10.9-1,19-1.6l-1.2-0.4c3.5-0.3,4.2-0.2,5.8-0.2
		c3.9-1.1-9.7,0.9-6.2-0.3c4.7,0.5,24.5-2.2,27.7-1.5c5.3-0.6-1.6-0.4,3.7-0.9l1.4,0.1l1.3-0.5c3.5-0.3,5.3-0.2,5.5,0
		c-0.9,0.1-2.4,0.4-3.3,0.5c4.6-0.2,12.8-1.8,14.4-2c0,0-1.3,0.2-2.6,0.3c-1.3,0.1-2.6,0.3-2.6,0.3c6.9-1.1,14.6-2.4,22.1-4.2
		l-1.2-4.1c-0.6,0.2-1.4,0.3-2.3,0.3c-0.9,0-2-0.1-3.2-0.1c-2.1,0-4.2,0.1-6.2,0.1c-4.1,0.1-8,0.1-11.6,0l1,0.3
		c-2.7,0-4.5-0.2-6-0.4c-1.5-0.2-2.6-0.4-3.7-0.6c-2.2-0.4-4.6-0.8-10.4-1.8l0.4,0c-1.2-0.1-2.5-0.3-4-0.6c-0.8-0.1-1.5-0.2-2.3-0.4
		c-0.7-0.1-1.5-0.3-2.1-0.5c0.7,0.2,0.6,0,0.2-0.2c-0.2-0.1-0.4-0.3-0.6-0.4c0-0.1-0.1-0.1-0.1-0.2c0,0,0,0,0,0
		c-0.1,0-0.1,0.1-0.1,0.1c-0.1,0-0.1,0.1-0.2,0.1l-1.1,2.4c0.7,0,1,0.1,0,0.3l1.1-2.7c0,0,0.1,0,0.3-0.2c-0.1,0.1-0.2,0.1-0.3,0.2
		l-1.1,2.7c2.7-0.3,4.4-0.4,5.5-0.4c1.1-0.1,1.7-0.1,2.2-0.1c0.9-0.1,1.4-0.3,5.2-0.5l1.7,0.5c2.6-0.2,2.9-0.3,8.8-0.1
		c-4.9,0.1,3.7,0.7-1.7,0.9c12.3,1.4,18.4,0.2,24,1.7c5.8-0.6-10.7-1.3-7.5-1.3c-2.6-0.5,4.7-0.5,8.6-0.1c3.9,0.3,6.6,1.8,16.5,2.6
		c-1-0.1-1.1,0-2-0.1c3.7,0.6,7.3,0.3,11.8,1.3c2.6-0.3,5.9,0.7,6.7,0c0,0-2.3-0.2-4.5-0.5c-2.3-0.2-4.5-0.4-4.5-0.4
		c5.2,0.4,10.1,0,18.5,1.6c-0.7,0.1-3.2,0-5-0.1c2.4,0.5,4.8,0.5,7.3,1c-0.8,0.7-11.1-1.3-16.6-1.3c2.6,0.6,10.5,0.7,7.6,1.2
		c4.1-0.6,9.7,1.4,16.5,1.4l-0.5,0.4c1.1,0.1,3.3,0.1,5.3,0.4l-3.6,0.2c2.7,0.1,5.3,0.5,7.8,0.9l1.5-4.8c-2.9-1.6-5.7-2.1-8.2-2.6
		c2.5,0.6,4.2,1,5.1,1.3c0.9,0.3,1,0.5,0.8,0.5c-0.1,0.1-0.5,0.1-0.5,0.2c0,0.1,0.3,0.3,1.5,0.9c-1.8-0.7-3.3-0.9-4.4-1.2
		c-1.2-0.2-2.1-0.5-2.8-0.7c-1.6-0.5-2.5-0.8-3.6-1.2c-2-0.8-4.3-1.7-11.8-3c2,0.3,7.6,1.7,4.3,1.3c-2.8-0.6-6.6-1.5-8.3-2.1
		c-9.9-1.7,1.4,0.8-2.8,0.3c-3.3-1.2-4.9-0.6-9.2-1.4l0.1-0.5c-11.1-2.8-3.2,0.3-13.1-2.3l4.4,0.3l-5.3-1l1.2-0.3
		c-3.9-0.6-6-1-8.6-1.6l-0.8,4.5c1.3,0.2,2.8,0.5,4.7,0.7c-1.3-0.5,0.9-0.8,5.9-0.3c3.4,0.6-2,0.2,5.1,1c-1.6,0.1-3.4,0.3-6.5-0.5
		c-0.3,0.1-1.6,0.2-2,0.3c1.9,0.3,4.1,0.6,6.3,0.8c2.2,0.2,4.2,0.4,5.5,0.6c-1-0.1-2.2-0.3-2.7-0.5c0,0,2.6,0.1,5.2,0.4
		c2.6,0.2,5.2,0.5,5.2,0.5c1.6,0.4,0.3,0.4-1,0.3c2.1,0.3,3.5,0.3,6.6,0.8c-0.9,0.3-0.7,0.7-5.1,0.1c0,0,2.4,0.3,4.9,0.6
		c2.4,0.3,4.9,0.7,4.9,0.7c0.6,0.3,4.9,1.4,3.6,1.3c5.3,1.3,13.3,2.1,20.4,3.9c0.4,0,1.1,0.1,2.7,0.4c6.7,1.6,12.5,3.3,20.5,4.6
		c0,0,1.1,0.4,2.2,0.9c1.1,0.4,2.3,0.8,2.3,0.8c3.4,0.4,1.8,0,0.7-0.4c-0.5-0.2-0.9-0.4-0.5-0.4c0.4-0.1,1.7,0.1,4.5,0.2
		c1.7,0,2.9,0,3.6,0l2.3,0l-0.3-2.3c-0.1-0.4-0.2-0.8-0.3-1.1c-0.1-0.2-0.2-0.5-0.4-0.6c-0.2-0.4-0.3-0.5-0.4-0.6
		c-0.2-0.3-0.1-0.3,0-0.3c0.2,0,0.4-0.3-0.9-1.2c-1.2-0.6-2.4-0.9-3.8-1.2c-0.7-0.1-1.4-0.3-2.1-0.4c-0.3-0.1-0.7-0.1-1-0.2
		c0,0-0.3,0-0.4-0.1l-0.5-0.1c-2.9-0.7-6.2-1.5-9.5-2.7C491.2,359.3,493,359.8,495,360.3z M444.7,349.9c-1.5-0.1-4.5,0-5.5-0.3
		C440.8,349.2,442.1,349.5,444.7,349.9z M508.6,354.3c1.1,0,2.9,0.4,4.8,0.9C512,355,510.4,354.8,508.6,354.3z M528.9,341.9
		c-0.1,0-0.1,0-0.2,0C525.5,340.9,526.6,341.2,528.9,341.9z M535.8,343.8c0.7,0.1,0.7,0,0.4-0.1c-0.5,0-2.1-0.4-3.8-0.9
		C532.8,343,533.7,343.3,535.8,343.8z M424.2,356.4l1.4,0.3C422.4,356.5,423.3,356.5,424.2,356.4z"/>
	<path d="M522.1,355.9c0.4,0.2,0.5,0.3,0.6,0.4C523.3,356.3,523.3,356.2,522.1,355.9z"/>
	<path d="M470.4,363.7l-0.2-0.1c-0.1,0-0.2,0-0.3,0L470.4,363.7z"/>
	<path d="M499.3,347.5c1.4,0.4,2.2,0.7,2.7,0.9C502.1,348.3,501.5,348,499.3,347.5z"/>
	<path d="M542.7,352l4.4,0.9c-2.1-0.5-2.9-0.8-3.9-1.1C543.3,352,544.1,352.3,542.7,352z"/>
	<path d="M505.2,340.5c-0.7-0.1-1.4-0.3-2-0.4l0.1,0.3C506,341,508,341.3,505.2,340.5z"/>
	<path d="M539,349.5c-0.3-0.5-3.1-0.9-6.2-1.6c0.2,0,0.4,0.1,0.5,0.1C532.4,348.5,535.7,349,539,349.5z"/>
	<path d="M532.1,347.8c-1-0.2-1.9-0.4-2.9-0.6C528.9,347.4,530.4,347.5,532.1,347.8z"/>
	<path d="M544.5,345.8c1.4,0.5,1-0.3,1.8,0.1C548.1,345.9,536.5,343.9,544.5,345.8z"/>
	<polygon points="536.8,347.7 537.8,348.4 539.6,348.4 	"/>
	<path d="M553.8,350.5c1.2,0.5,2.5,1,3.6,1.6l-0.2,0.5l-1.1-0.2c0.1,0.1-0.6,0-1.4-0.1c0.8,0.2,1.7,0.4,2.4,0.5l0.3-0.8
		C555.5,350.9,553.8,350.4,553.8,350.5z"/>
	<path d="M554.8,352.2c-1.6-0.3-3.1-0.7-4-0.8C551.7,351.6,553.5,352,554.8,352.2z"/>
	<polygon points="543.6,349 545,349.5 548.5,350.4 	"/>
	<path d="M500.7,339.2l-5.5-0.3c-0.6,0.1,0.9,0.3,3,0.5C499.5,339.3,501.5,339.4,500.7,339.2z"/>
	<path d="M517,342.7c-1.4-0.4-1.5-0.5-2.3-0.8l-0.3,0.6L517,342.7z"/>
	<path d="M501.1,340.7c-0.6,0.1-8-0.2-1,0.4C500.6,341,506.1,341.4,501.1,340.7z"/>
	<polygon points="507.2,351.1 505.8,350.8 505.8,351.8 	"/>
	<path d="M533.1,358.6c6.4,1.4,1.6-0.3,7.4,1.1c1.5,0.1-4.7-1.2-3.1-1.1C533.4,358.1,531.4,357.6,533.1,358.6z"/>
	<path d="M537.3,358.6c0.6,0.1,1.3,0.2,2,0.2C538.2,358.6,537.7,358.6,537.3,358.6z"/>
	<path d="M275.7,377.6c0,0-1,0.1-2,0.2c-1,0.1-2,0.2-2,0.2s0.7,0,1.3,0c0.7,0,1.3,0,1.3,0L275.7,377.6z"/>
	<path d="M268.1,379.3l-1-0.6c0,0-0.6,0.1-1.2,0.3c-0.6,0.1-1.2,0.2-1.2,0.2C265.7,379.2,267.4,379.2,268.1,379.3z"/>
	<path d="M456.2,352.3l0.3-0.1c-0.6-0.2-1.6-0.3-3.5-0.5L456.2,352.3z"/>
	<polygon points="462.6,352.3 461.7,352.1 463.4,353 	"/>
	<path d="M504.6,371.3c0.6,0,1.2,0,1.8-0.1l3.9-0.2l-0.4-3.8c-0.1-0.8-0.4-1.7-0.7-2.2c-0.2-0.3-0.4-0.6-0.5-0.7
		c-0.2-0.2-0.3-0.3-0.5-0.5c-0.7-0.6-1.2-0.9-1.7-1.2c-1-0.5-1.9-0.8-2.7-1.1c1.1,0.3,2.1,0.8,3.2,1.4c0.2,0.1,0.6,0.4,0.8,0.6
		c0.2,0.2,0.6,0.5,0.8,0.8c0.1,0.1,0.3,0.4,0.4,0.6c0.1,0.2,0.3,0.4,0.4,0.6c0.2,0.5,0.4,1.1,0.4,1.7l0.4,3.8l-3.6,0
		C504.9,371,504.3,370.9,504.6,371.3z"/>
</g>
</svg>
