<?xml version="1.0" encoding="utf-8"?>
<!-- Generator: Adobe Illustrator 26.0.2, SVG Export Plug-In . SVG Version: 6.00 Build 0)  -->
<svg version="1.1" id="Objects" xmlns="http://www.w3.org/2000/svg" xmlns:xlink="http://www.w3.org/1999/xlink" x="0px" y="0px"
	 viewBox="0 0 800 800" style="enable-background:new 0 0 800 800;" xml:space="preserve">
<g>
	<path d="M781.4,394.9c-0.1,0.1,0,0.1-0.1,0.2c0,0,0,0,0,0c0,0-0.1,0-0.2,0c-0.2,0-0.4,0-0.6,0c-0.5,0-0.9,0.2-1.3,0.2
		c-0.8,0.2-1.2,0.3-1.5,0.4c-0.5,0.2,0.1,0.2-0.7,0.4c1.1-0.1,1.7-0.3,2.3-0.4c0.6-0.1,1-0.2,1.3-0.2c0.3,0,0.5,0,0.6,0c0,0,0,0,0,0
		c0-0.1,0.1-0.2,0.1-0.3l0.1-0.1L781.4,394.9C781.4,394.9,781.4,394.9,781.4,394.9l-0.8-3.7c-0.1,0.1-0.1,0.2-0.2,0.3
		c-0.1,0.1-0.1,0.1-0.2,0.2c-0.1,0.1,0,0.1,0.1,0.1c0.1,0,0.2-0.1,0.4-0.1c0.1-0.1,0.2-0.1,0.2-0.2L781.4,394.9
		C781.4,394.9,781.4,394.9,781.4,394.9z"/>
	<path d="M660.2,422.5l2.1-0.8c0,0-4.4,1.4-8.9,2.7c-2.2,0.7-4.4,1.4-6.1,1.8c-1.7,0.5-2.8,0.7-2.8,0.7s1-0.3,2.4-0.6
		c1.5-0.4,3.4-1,5.4-1.6C656.3,423.7,660.2,422.5,660.2,422.5z"/>
	<path d="M719.2,394.4c-2.7,1-6.7,2.2-11.3,3.6c-2.3,0.7-4.8,1.5-7.4,2.4c-2.6,0.9-5.4,1.9-8.2,2.8c-5.6,2-11.5,4.1-17.1,6.4
		c-5.6,2.3-11,4.6-15.8,6.8l-3.2,1.4c0,0-2.1,1.2-4.1,2.4c-2,1.2-4,2.5-4,2.5c5.6-3,11.7-6.1,18-8.9c6.3-2.8,12.9-5.4,19.3-7.8
		c6.4-2.4,12.7-4.5,18.4-6.4C709.6,397.6,714.9,396.2,719.2,394.4z"/>
	<path d="M662.2,405.9c1.9-0.5-1.3,0.7-1.7,0.8c-0.3,0.1,2.2-0.9,15.7-5.2c-1.4,0.4-1.8,0.5-2.6,0.7
		C671.3,403,667.9,404,662.2,405.9z"/>
	<path d="M673.7,402.2C685.6,398.4,665.9,404.4,673.7,402.2L673.7,402.2z"/>
	<path d="M619.3,420.4c0,0,0.9-0.3,2.3-0.7c0.7-0.2,1.5-0.5,2.3-0.9c0.2-0.1,0.4-0.2,0.6-0.3l0.2-0.1c0.1,0,0.2-0.1,0.3-0.1l0.4-0.1
		c0.5-0.2,1-0.3,1.4-0.5c3.9-1.2,7.7-2.6,7.7-2.6c-1.6,0.5-5.9,1.7-9.1,2.7c-0.3,0.1-0.5,0.2-0.7,0.2c-0.2,0.1-0.4,0.2-0.6,0.2
		c-0.3,0.1-0.7,0.2-0.9,0.3c-0.6,0.2-1,0.3-1.3,0.4c-0.6,0.2-0.5,0.1,0.7-0.3c-3.7,1.3-6.4,1.9-8.2,2.3c-1.7,0.3-2.5,0.5-2.5,0.5
		c0,0,0.7,0,2.1-0.2C615.3,421.2,617.1,420.9,619.3,420.4z"/>
	<path d="M606.2,422.7c0,0,0.3,0.2,0.7,0.3c0.4,0.1,0.9,0.2,1.6,0c0.2,0,0.3-0.1,0.5-0.2c0.2-0.1,0.4-0.2,0.6-0.2
		c0.2-0.1,0.4-0.1,0.6-0.1c0.3,0,0.6-0.1,0.8-0.1c0.2,0,0.4-0.1,0.6-0.1c0.8-0.1,1.3-0.2,1.3-0.2c-0.4,0-0.8,0.1-1.2,0.1
		c-0.2,0-0.5,0.1-0.8,0.1c-0.2,0-0.3,0-0.5,0c-0.3,0-0.5,0-0.8,0.1c-0.2,0.1-0.5,0.2-0.7,0.3c-0.1,0-0.2,0.1-0.3,0.1
		c-0.2,0.1-0.5,0.1-0.7,0.1C607.4,423.1,606.9,423.1,606.2,422.7z"/>
	<path d="M629.7,417.2c0,0-1.1,0.3-2.7,0.9c-0.4,0.1-0.8,0.3-1.3,0.4l-0.3,0.1l-0.2,0.1c-0.1,0-0.2,0.1-0.3,0.1
		c-0.2,0.1-0.5,0.2-0.7,0.3c-0.9,0.4-1.9,0.7-3,1.1c-2,0.7-4.1,1.2-5.7,1.6c-1.6,0.3-2.6,0.5-2.6,0.5c1.1-0.1,1.8-0.1,2.8-0.3
		c1-0.2,2.4-0.5,4.9-1.5c-0.6,0.3-0.2,0.2,1.3-0.4c0.7-0.3,1.7-0.7,3-1.2c0.6-0.2,0.8-0.3,1.2-0.4c0.4-0.1,0.7-0.2,1.1-0.4
		C628,417.8,628.8,417.5,629.7,417.2z"/>
	<path d="M639.4,414.1c8.7-2.8,20-6.6,4.5-1c14.8-5.1,21.1-7.4,20-7.1c-0.6,0.1-3,0.9-7.1,2.2C652.6,409.6,646.8,411.6,639.4,414.1z
		"/>
	<path d="M717.5,391.8c1.1-0.2,2.2-0.4,3.4-0.6l0.4,1.3c-2.7,1.3-5.6,2.3-8.4,3.2c0,0-2.5,0.9-5,1.7c-2.5,0.8-5,1.8-5,1.8
		c3.5-1.4,13.7-3.9,18.5-6.5l-0.5-1.6C718.6,391.5,717.3,391.8,717.5,391.8z"/>
	<path d="M682,391.4c0.9-0.5-5.3,1.4-6.6,1.6c0,0-2.8,1-5.7,2c-2.8,1-5.6,2.1-5.6,2.1C669.9,395.1,681.1,391.4,682,391.4z"/>
	<path d="M675.4,392.9l17.1-6C677.1,392,674.4,393.1,675.4,392.9z"/>
	<path d="M606.4,423.4c-0.3,0.4-0.6,0.9-0.8,1.4l-0.4-1.9c0.7,0.6,1.5,0.9,2.2,0.9c0.4,0,0.8,0,1.2-0.1c0.2-0.1,0.4-0.1,0.6-0.2
		l0.6-0.2l0.6-0.1c2.3-0.3,4.5-0.7,6.7-1.2c2.2-0.5,4.3-1.2,6.4-2c0.5-0.2,1-0.4,1.6-0.6c0.5-0.2,0.7-0.2,1-0.3l0.8-0.3l3.3-1.1
		l-3.3,1.1l-0.8,0.3c-0.3,0.1-0.5,0.1-1,0.3c-0.6,0.2-1,0.4-1.6,0.6c-2.1,0.8-4.2,1.5-6.4,2c-2.2,0.5-4.3,0.9-6.7,1.2l-0.6,0.1
		l-0.6,0.2c-0.2,0.1-0.4,0.2-0.6,0.2c-0.4,0.1-0.8,0.1-1.2,0.1c-0.8,0-1.5-0.4-2.2-0.9l0.4,2c1-2,2.5-3.5,4.6-4.4
		c0,0-1.2,0.5-2.1,1.3C607.1,422.4,606.4,423.4,606.4,423.4z"/>
	<polygon points="645.5,395.6 655.1,391.9 638,398.4 	"/>
	<path d="M602.3,411.1c7-2.9-10,3.1-2.5,0.2c-5.9,2.2-11.2,4.1-16.4,6.1c-5.1,2.1-9.6,4.1-13.9,5.5c4.6-1.4,9.3-3.5,14.8-5.5
		C589.8,415.4,595.7,413.4,602.3,411.1z"/>
	<path d="M569.5,426.6c-1.9,1.1-3.8,2.3-5.9,3.7l-2-5.7c2.3-0.2,5.1-0.8,7.9-1.8c-2.7,0.8-5.3,1.5-7.9,1.7l2,5.8
		C565.5,429.1,567.5,427.8,569.5,426.6z"/>
	<path d="M671.3,387.7c-1.4,0.4-4,0.9-13.7,4.1l6.9-1.9C666.6,389.2,668.9,388.5,671.3,387.7z"/>
	<path d="M664.8,389.9l-0.2,0.1c-7.3,2.5-12.4,4.2-14.6,4.9C651.8,394.2,656.3,392.7,664.8,389.9z"/>
	<path d="M673,387.1c-0.6,0.2-1.1,0.4-1.7,0.6C672,387.5,672.4,387.4,673,387.1z"/>
	<path d="M647.7,402.4c4.8-2.1,12.4-5.1,16.3-6.6c3.9-1.5,4-1.8-6.1,1.7c-3.5,1.5-2.4,1.2-2.2,1.3
		C655.9,398.9,655,399.3,647.7,402.4z"/>
	<path d="M681.6,385l7.2-2.1l0.9-0.3l0.3-0.1c0.1,0,0.2-0.1,0.2-0.1l0.3-0.2c0.2-0.1,0.3-0.2,0.5-0.3c0.3-0.2,0.7-0.3,1.1-0.5
		c1.5-0.6,3.4-0.6,4.9-0.1l5.1,1.8l-5.1,1.7l-3.9,1.3c0.4,0,3.7-1-1.2,0.8l5.3-1.8l5.9-2.1l-5.9-2c-1.6-0.5-3.5-0.5-5.1,0.1
		c-0.4,0.1-0.8,0.3-1.1,0.5c-0.2,0.1-0.3,0.2-0.5,0.3l-0.2,0.2l-0.1,0.1c-0.1,0-0.1,0.1-0.2,0.1l-0.3,0.1l-0.9,0.3L681.6,385z"/>
	<polygon points="672.7,388 681.6,385 674.8,387.1 	"/>
	<path d="M585.4,417.8c-3.7,1.5-7.4,3.1-11.3,4.5c-3.9,1.4-8.1,2.7-12.4,3.1l1.5,4.3c0.5-0.3,1-0.7,1.6-1.1c-0.5,0.3-1,0.7-1.6,1
		l-1.5-4.3c4.7-0.3,9.7-1.9,14.5-3.7c2.4-0.9,4.8-1.9,7.3-2.8c2.5-1,4.9-1.8,7.3-2.7C592.1,415.6,596.5,413.8,585.4,417.8z"/>
	<path d="M623.9,404c-0.5,0.2-1.2,0.5-1.7,0.7C623.3,404.3,624.1,404,623.9,404z"/>
	<path d="M656.3,387.3c-0.5,0.2-1,0.3-1.5,0.5c-0.1,0.1-0.2,0.1-0.3,0.2L656.3,387.3z"/>
	<path d="M592.5,415.7c7.8-2.7,12.4-4.5,16.8-6.2c-5.8,2.1-12,4.4-18.6,6.8C590.1,416.6,590,416.7,592.5,415.7z"/>
	<path d="M594.5,414.1c-3.9,1.8-8.3,3.8-13,6C585.4,418.3,593.2,414.8,594.5,414.1z"/>
	<path d="M619.5,405.5c0.4-0.1,0.7-0.3,1.2-0.4C618.1,405.9,618.4,405.8,619.5,405.5z"/>
	<path d="M619.5,405.5c-4,1.5-7.1,2.7-10.2,4c4.7-1.8,9.1-3.4,12.9-4.8C621.2,405,620.2,405.3,619.5,405.5z"/>
	<path d="M666.9,379.9c0.5-0.3,3.7-1.5,8.6-2.6l0,0c-7.7,3.2-19.7,7.8-30.7,11.9c-8.5,3.5-9.8,4.5-7.2,3.9c2.7-0.6,9.4-2.7,17-5.3
		c0.5-0.4,0.4-0.5,18-7.6c-3.1,1.1-13,4.8-20.2,7.4c-7.2,2.7-11.8,4.3-4.4,1.2c21-8.4,19.8-7.6,27.8-10.5l-0.7-2.2
		c-0.8,0.2-1.9,0.4-3.1,0.6c5.2-0.9-2.7,0.9-10.8,3.8c-8.1,2.9-16.7,6.2-14,5.7c0,0,1.3-0.5,3.2-1.2c1.9-0.7,4.5-1.6,7.1-2.5
		c2.6-0.9,5.2-1.8,7.2-2.4c2-0.6,3.3-1,3.3-1C668.6,379,661,381.5,666.9,379.9z"/>
	<path d="M621.3,401.3l-7.1,3.2c8.1-3.5,14-5.9,25-10c12-5,14.5-6.1,15.2-6.5c0,0-9,3.4-17.9,7c-4.5,1.8-8.9,3.6-12.2,5
		c-3.3,1.4-5.5,2.4-5.5,2.4L621.3,401.3z"/>
	<path d="M582.5,419.3c5.3-3.1,22.1-11.3,11.6-6.8c-10.3,4.9-13.9,6.8-16.4,8.2c-1.3,0.7-2.3,1.2-3.7,2c-1.4,0.8-3.3,1.8-6.2,3.5
		c3.9-2.3,6.9-3.7,8.9-4.7c2.1-1,3.2-1.5,3.7-1.8c1.1-0.5-0.4,0.3-2.2,1.2c-1.8,0.9-3.8,2-3.8,2.1c0,0.1,0.4-0.1,1.6-0.7
		c1.2-0.6,3.2-1.5,6.2-2.9c-6.5,3.3-12.4,6-17.4,9.3c5.4-3.4,11.3-6,16.7-8.6c-0.3,0.1-0.5,0.2-0.8,0.3l-0.2,0.1l0,0
		c-1.5,0.6-1.9,0.8-0.3,0.1c0.1-0.1,0.5-0.3,0.7-0.3C581.2,420.1,581.8,419.7,582.5,419.3c9.7-4.6,1.6-0.6-1.4,0.9
		c-0.1,0.1-0.4,0.2-0.4,0.3c0,0,0.1,0,0.1-0.1c0,0,2.1-1,5.2-2.6c3.1-1.5,7.3-3.6,11.4-5.6c8.3-4,16.8-7.8,16.8-7.8
		C607,407.6,598.1,411.7,582.5,419.3z"/>
	<path d="M676.2,390c1.1-0.3,1.1-0.3,1.2-0.3C679.6,388.9,680.5,388.6,676.2,390z"/>
	<path d="M690.8,385.4c-2.5,0.9-4.6,1.8-12.9,4.5c-7.2,2.3,0-0.2-0.5-0.2c-5,1.8-17.4,6.3-1.7,1.1l2.5-0.9c6.1-2,13.1-4.2,18.7-5.9
		l3-0.9l-3-1.1c-1.1-0.4-2.3-0.5-3.3-0.3c-1.1,0.2-2,0.6-2.8,1.1c-0.1,0.1-0.2,0.2-0.4,0.2c-0.1,0-0.3,0.1-0.4,0.1
		c-0.4,0.1-0.7,0.2-1,0.3c-0.7,0.2-1.3,0.3-1.8,0.5c-2.1,0.6-3.1,0.8-2.4,0.6c1.5-0.3,3-0.6,4.8-1.1c0.2,0,0.4-0.1,0.6-0.1l0.3-0.1
		l0.2-0.1c0.4-0.2,1-0.5,1.6-0.7c1.2-0.4,2.8-0.6,4.4,0l2.1,0.8l-2.1,0.5C695.6,384,693.4,384.6,690.8,385.4z"/>
	<path d="M620.1,406.7l-29,10.7l14.9-5l-0.8,0.1C621.8,406.6,618.1,407.6,620.1,406.7z"/>
	<polygon points="659.6,386.2 656,388.1 672.4,381.1 	"/>
	<path d="M653.6,381.2l1.3-0.9c0,0-2.5,0.9-5,1.8c-2.5,0.9-5,1.9-5,1.9L653.6,381.2z"/>
	<path d="M360.4,387c0,0,1.9-1.2,3.9-2.4c2-1.2,3.9-2.3,3.9-2.3C364.5,384.5,362.1,385.9,360.4,387z"/>
	<path d="M317.2,424C317.2,424,317.2,424,317.2,424c0.1-0.1,0.1-0.1,0.1-0.1c0.1-0.1,0.2-0.1,0.3-0.2c0.3-0.2,0.7-0.4,0.7-0.4
		c-0.3,0.2-0.6,0.3-0.9,0.5c-0.2,0.1-0.1,0.1-0.2,0.1c0,0-0.1,0.1-0.1,0.1c-0.1,0.1-0.1,0.1-0.2,0.2c-0.1,0.2-0.3,0.3-0.4,0.4
		c-0.2,0.2-0.4,0.3-0.4,0.4c0,0,0.1,0,0.4-0.2c0.1-0.1,0.3-0.2,0.5-0.4c0,0,0.1-0.1,0.2-0.1C317.1,424.1,317.1,424.1,317.2,424
		C317.2,424,317.2,424,317.2,424z"/>
	<path d="M408.9,435.4c0.6-1.1,1.5-2,2.6-2.6c0.5-0.3,1.1-0.6,1.8-0.9l0.7-0.3c0.3-0.1,0.7-0.4,0.8-0.4c0.4-0.2,0.7-0.4,1-0.6
		c2.8-1.6,5.4-3.1,7.6-4.4c4.4-2.6,7.3-4.1,6.5-3.9l-3.7,1.7c-3.9,2.4-7.4,4.6-10.5,6.5c-0.4,0.2-0.8,0.5-1.2,0.7
		c-0.2,0.1-0.6,0.4-0.9,0.5l-0.3,0.1c-0.1,0-0.2,0.1-0.2,0.1c-0.7,0.3-1.3,0.6-1.8,1C410.3,433.5,409.5,434.4,408.9,435.4z"/>
	<path d="M392.7,408.1c-1.1,0.6-2.2,1.3-3.4,1.9c-2.6,1.8-5.1,3.6-7.3,5.1C385.2,413,388.9,410.6,392.7,408.1z"/>
	<path d="M399.8,401.7c0,0,3.8-2.2,7.6-4.3c3.8-2.1,7.7-4.1,7.7-4.1C411.6,395.1,406.6,397.8,399.8,401.7z"/>
	<path d="M355.5,372.5l-9.3,5C361,370.3,354.4,373.3,355.5,372.5z"/>
	<path d="M499.3,427c2.2-1.7,4.3-3.2,6.4-4.5c1.1-0.7,2.1-1.3,3.2-1.8c1.1-0.6,2.2-1.3,3.2-1.8c4-2.3,7.7-4.4,11.2-6.3
		c-3,1.6-5.9,3.1-8.5,4.5c-1.3,0.7-2.6,1.4-3.8,2.1c-1.2,0.7-2.4,1.3-3.4,1.9C503.4,423.6,500.6,425.8,499.3,427z"/>
	<path d="M341,404.6c4.6-3.1,6.5-4.5,6.3-4.4C342.5,403.3,339.9,405.2,341,404.6z"/>
	<path d="M552.6,398.2c-1.8,0.8-3.6,1.6-5.5,2.4c-7.5,3.5-14.9,7.3-23.9,12.1c4.5-2.3,9.3-4.7,14.3-7.2
		C542.5,403,547.6,400.6,552.6,398.2z"/>
	<path d="M190.8,390c-0.8,0.5-1.8,1-2.5,1.5C188,391.6,189.2,391,190.8,390z"/>
	<path d="M198.6,355.3c3.3-1.8,8.6-4.8,13.8-7.4C209.9,349.2,205.6,351.3,198.6,355.3z"/>
	<path d="M562.4,411.7C554.8,415.4,561.2,412.4,562.4,411.7L562.4,411.7z"/>
	<path d="M541,422.6c-1.7,0.5-3,0.9-3.2,1C538.5,423.4,539.6,423.1,541,422.6z"/>
	<path d="M576.5,382c-0.2,0.1-0.4,0.1-0.7,0.2C578.2,381.5,577.8,381.6,576.5,382z"/>
	<path d="M550.9,417.1c2.9-1.4,6.2-3,9.8-4.6C559.1,413.2,556.1,414.6,550.9,417.1z"/>
	<path d="M552.5,416.6c-1.3,0.7-2.5,1.2-3.6,1.8c-1.1,0.5-2.1,1-3.1,1.5c-0.5,0.3-0.5,0.3,0.5-0.1c0.5-0.2,1.2-0.6,2.2-1.1
		c0.5-0.3,1.1-0.6,1.8-0.9C550.9,417.4,551.7,417,552.5,416.6z"/>
	<path d="M573.1,406.8c-4.4,2-8.5,3.9-12.5,5.7c1.5-0.7,2.2-1,1.8-0.8C564.7,410.7,567.8,409.2,573.1,406.8z"/>
	<path d="M263.9,380.2c0.5-0.3,1-0.7,1.5-1c3.6-2.4,4.6-3.1,4-2.7C268.8,376.9,266.7,378.3,263.9,380.2z"/>
	<path d="M446.1,405.3c0.4-0.1,0.6-0.2,0.9-0.4c-0.4,0.1-0.8,0.3-1.2,0.4L446.1,405.3z"/>
	<path d="M417.8,416.7c11.8-5.4,18.7-8,28-11.3c0,0-2.5,0.6-4.9,1.2c-2.5,0.6-4.9,1.2-4.9,1.2s-4.6,2.2-9.1,4.4
		C422.3,414.4,417.8,416.7,417.8,416.7z"/>
	<path d="M341.7,390.8c0,0,4.9-2.1,9.9-4.2c4.9-2.1,9.9-4.1,9.9-4.1c-11.7,5.4-21.8,10.2-26.7,12.5c-4.9,2.3-4.5,2.3,4.8-1.7
		c0.6-0.6,5.6-3.1,12.8-6.4c7.2-3.3,16.8-7.4,26.4-11.5c4.8-2,9.6-4,14.1-5.8c2.3-0.9,4.5-1.8,6.6-2.6c2.1-0.8,4.1-1.6,6-2.3
		c3.7-1.5,6.8-2.8,9.1-3.7c2.2-0.9,3.7-1.4,4-1.7c1.4-0.4,2.9-0.7,4.3-0.9l-1.7-4.5c-2.5,1.6-5.3,3-8.1,4.4c1.8-0.9,2.8-1.5,3.8-2
		c1-0.6,1.9-1.1,3.6-2.2c-2.8,1.7-5.3,3-7.5,4.1c-2.2,1.1-4.1,2-5.8,2.9c-3.3,1.7-5.8,3.1-8.4,4.7c-5.3,3.1-11.5,6.6-27,15.2
		c-10.8,6-18.3,10.4-11.1,5.9c0,0-5.9,3.6-11.7,7.4c-5.8,3.7-11.5,7.7-11.5,7.7c-6.7,4.5-5.2,3.2,1.5-1.3
		c-9.8,6.6-19.3,13.5-28.5,20.9l-2.9,2.3l3.5,1.4c1.1,0.4,2.6,0.5,3.8,0.1c0.6-0.2,1.1-0.5,1.6-0.9c0.2-0.2,0.4-0.3,0.6-0.5l0.2-0.1
		l0.1-0.1l1.5-0.7l-0.3,0.2c2.7-1.4,7-3.7,11.4-6c4.4-2.3,8.9-4.6,11.8-6.2c9.7-4.5-4.7,2.5-2.2,1.4L360,402
		c8.6-3.9-8.5,4.9-22.9,12c10-4.2,14.3-6.4,21.4-10c3.5-1.8,7.8-4,13.8-7c3-1.5,6.4-3.2,10.5-5.1c4-1.9,8.7-4,14-6.5
		c0,0-4.9,2.4-9.9,4.8c-4.9,2.4-9.8,4.9-9.8,4.9c3.2-1.4,6.7-2.9,10.3-4.5c3.6-1.7,7.5-3.4,11.6-5.3c8.3-3.8,17.8-8.2,29.3-12.6
		c-1.4,0.5-4.9,1.9-9.1,3.5c-4.2,1.7-9,3.7-12.9,5.3c-7.8,3.3-12.2,5-0.8-0.5c3.2-1.4,7-3.1,11.5-5.1c4.5-2,9.8-4.3,16-7
		c0.1,0.1,1.6-0.4,4.1-1.4c2.5-0.9,6.1-2.3,10.4-3.3l-2.6-3.2c-0.1,0-0.2-0.1-0.2-0.1l0,0l0,0c0,0,0,0,0,0.1
		c-0.1,0.1-0.2,0.2-0.3,0.4c-0.1,0.1-0.3,0.3-0.5,0.4c-0.1,0.1-0.3,0.3-0.5,0.4c-0.7,0.6-1.7,1.2-2.7,1.8c-2,1.2-4.2,2.3-6.5,3.4
		l0.7-1.1c-1,0.5-1.9,0.9-2.8,1.3c-0.5,0.2-1,0.5-1.4,0.7c-0.4,0.2-0.8,0.4-1.2,0.6c-1.5,0.8-2.8,1.5-3.9,2.2
		c-2.2,1.2-3.8,2.2-5.2,3c-2.8,1.6-4.7,2.8-9.3,5.5c-17.7,9.5-21.5,11.2-25.8,13.2c-27.8,16.2,19.5-10.6-13.2,8.9
		c-8.7,5.1-16.2,9.8-23.8,14.6c-3.8,2.4-7.5,4.7-11.4,7.2c-1,0.6-2,1.2-2.9,1.9l-0.7,0.5c-0.1,0.1-0.2,0.1-0.4,0.2
		c-0.6,0.2-1.3,0.5-1.9,0.8c-2.5,1.2-4.8,3.3-6.2,5.9l-2.8,5.3l5.5-2.3c6.2-2.6,12.6-5.9,19.6-9.6c16.7-8.3-2.7,1.8,3.3-1.1
		c0,0,3.6-2,7.2-4c3.6-1.9,7.3-3.9,7.3-3.9c3.6-1.8,2.5-1.1,2-0.7c6.2-3.1,6.4-3.4,7.5-4.1c1.1-0.7,3.1-1.8,13-6.5
		c2.5-1.6,12.9-6,25.7-11.3c12.8-5.3,28.2-11.4,40.7-16.6c6.3-2.3-2.9,1.5-0.9,1c6.2-2.5,11.1-4.6,14.9-6c3.7-1.4,6.3-2.3,7.7-2.8
		l-1.4-3.5c-6,3-10.4,4.7-15.3,6.8c-5,2.1-10.6,4.6-19.5,8.8c0,0-6,2.6-11.9,5.3c-3,1.4-5.9,2.8-8.1,3.9c-2.2,1.1-3.6,1.9-3.6,1.9
		c2.1-1.1,3.7-1.8,4.7-2.3c1-0.5,1.5-0.7,1.6-0.6c0.1,0.1-1.6,1.1-4.3,2.7c-5.6,3.2-15.4,9.1-24.4,15c5.9-3.4,11-6.1,14.4-8
		c0,0-7.4,4.3-14.6,8.9c-3.6,2.3-7.2,4.6-9.9,6.3c-2.7,1.7-4.5,2.9-4.5,2.9c-3.5,2.1-0.8,0.1,3.8-3.1c-1.9,1.3-3.8,2.5-5.2,3.5
		c-5.2,3.2-6.5,3.9-5.6,3.1c0.9-0.8,3.9-3,7.6-5.5c3.6-2.1,7.1-4.2,10.6-6.2c7-4.8,13.6-9.2,11.9-8.6c-1.9,1.2-5.5,3.5-9.5,6
		c1.8-1.3,3-2.1,2.1-1.6c-1,0.5-4,2.5-8.7,5.7l-6.9,3.6l-1.4,1.2c-6.9,4.3-13.8,8.6-20.2,13.6l-1.6,1.2l1.3,1.6
		c0.3,0.4,0.8,0.9,1.6,1.1c0.8,0.3,1.7,0.2,2.3,0c1.2-0.5,1.9-1.3,2-1.4l1.5-0.7l1.9-0.9c1.3-0.6,2.6-1.2,3.8-1.8
		c1.3-0.6,2.5-1.3,3.8-1.9c1.2-0.7,2.5-1.2,3.7-1.9c14.1-7.4,27.4-14.4,43.1-21.4c7.9-3.5,16.4-7.1,25.9-10.9
		c9.5-3.8,20-7.9,32-12.2c-11.7,4.7-2.3,1.7-2.7,2.5c-6.6,2-15.8,5.4-26.4,9.6c-5.3,2.1-10.9,4.4-16.8,6.8
		c-5.8,2.4-11.8,4.9-17.9,7.5c6.3-2.7,8.8-3.6,9.3-3.7c0.5-0.1-0.9,0.6-2.5,1.3c0,0,2.7-1.1,6.7-2.9c4.1-1.7,9.5-3.9,14.9-6.1
		c10.9-4.4,21.8-8.6,21.8-8.6c-0.8,0.8,9.5-3.1,21.1-6.9c-2.4,0.6-1.2,0,2.2-1.4c3.4-1.3,9-3.4,15.5-4.9l-1-2.6
		c-5.1,2.7-11.2,4.8-17.1,7c-5.8,2.2-11.2,4.5-15.3,6.3c-0.6,0.1,0.1-0.4,3.7-2c1.8-0.8,4.3-1.9,7.7-3.3c3.5-1.4,7.9-2.9,13.3-5
		c-3,1.1-5.8,2-8.3,2.9c-2.6,0.9-5,1.8-7.1,2.8c-4.4,1.8-8.1,3.6-11.9,5.3c-7.5,3.5-14.8,7.2-26.4,12.2c5.2-2.4,8-3.6,10-4.7
		c-12,5.7-41.5,19.4-34.7,15.9l5.1-2.4c-8.4,3.9-19,8.9-30.1,14.6c-11.1,5.6-22.6,12-33.1,18.4l1.3,2.8c6.1-2.2,11.5-5,16.6-7.5
		c5-2.5,9.6-4.7,13.6-6.7c8-3.8,13.5-6.4,14.7-7.2c0.4-0.1-4.1,2.9-6.1,4c0,0,15-7.6,30.4-14.4c7.7-3.4,15.5-6.7,21.4-9
		c5.9-2.4,9.8-3.9,9.8-3.9c-2.7,1.3,1.5,0.5,2.7,0.7c1.2,0.2-0.7,1.3-15.3,6.8c8.5-2.9,19-6.5,36.9-12.7c-5.9,1.8-14.8,3.8-6.9,1.1
		c11.1-3.2,14.9-4.3,19.4-5.6c2.2-0.7,4.6-1.4,8.2-2.4c3.5-1,8.2-2.4,15.1-4.2c-3.7,1-4.2,0.9-2.5,0.1c1.7-0.8,5.7-2.2,10.9-3.6
		l-0.5-1.4c-0.8,0.5-1.7,0.8-2.7,1.1c-0.2,0.1-0.5,0.1-0.7,0.2c-0.2,0-0.6,0.1-0.8,0.2c-0.5,0.2-1.1,0.4-1.6,0.5
		c1-0.4,0.7-0.6,0.7-0.9c0-0.1,0.1-0.3,0.5-0.6c0.1-0.1,0.2-0.1,0.4-0.2c0.1,0,0.2-0.1,0.3-0.1c0.1,0,0.2-0.1,0.3-0.1
		c0.3-0.1,0.8-0.3,1.3-0.5c0,0-0.5,0.2-1.3,0.4c-0.1,0-0.3,0.1-0.4,0.1c-0.2,0-0.4,0.1-0.5,0.2c-0.3,0.1-0.6,0.2-0.9,0.3
		c-0.6,0.2-1.4,0.5-2.2,0.8c-3.2,1.2-7.4,2.8-11.7,4.4c-8.4,3.3-16.8,6.9-16.8,6.9c8.4-3.4,1.1-1.5-6.5,1.2c1.8-0.6-5.5,2.3-14.3,6
		c-8.8,3.8-18.9,8.6-23.2,10.8c0,0,3.5-1.7,7-3.3c3.5-1.6,7-3.1,7-3.1c-16.1,7.4-24.7,12.4-32.3,17.1c-3.8,2.3-7.2,4.7-11.2,7.3
		c-1,0.7-2,1.3-3,2c-0.5,0.3-1.1,0.7-1.6,1.1c-0.3,0.2-0.5,0.4-0.8,0.5c-0.3,0.1-0.6,0.3-0.9,0.4c-1.3,0.6-2.5,1.5-3.6,2.6
		c-1.1,1.2-1.9,2.6-2.3,4.3l-0.1,0.4l0.5-0.1c4.1-0.7,8.8-1.9,14-3.9c-2.3,1-5.1,2.2-4.8,2.5c0.2,0.2,3.7-0.2,13.3-4.2
		c4.2-2.1,13.6-6.8,25.9-13c12.3-6.2,27.6-13.9,44.2-20.7l6.5-2.2c0,0,6.4-2.6,12.7-5.2c6.4-2.6,12.8-5.1,12.8-5.1
		c-7.9,3.4-22.9,9.9-38.8,17.1c-15.9,7.3-32.5,15.6-44.4,21.2c14.1-5.9,4.1-1.4,25-10.7c7.5-3-11.2,5.5-17.4,8.2
		c0,0,12.2-5.3,24.4-10.7c6.1-2.6,12.2-5.2,16.8-7c4.6-1.8,7.7-3.1,7.7-3.1c-1.2,0.1,8.2-3.8,17.6-7.6c9.5-3.8,19.1-7.4,18-7.3
		c0,0-3.4,1.3-8.4,3.2c-5.1,2-11.8,4.6-18.5,7.3c-6.7,2.7-13.4,5.5-18.4,7.6c-5,2.1-8.3,3.6-8.3,3.6c-1.2,0.2,6.2-3.6,18.6-8.9
		c12.3-5.3,29.3-12.2,47.2-18.4c4.6-1.5,3-0.6,0.3,0.6c-2.6,1.3-6.3,2.9-5.9,2.8c1.2-0.5,4-1.6,7.6-2.9c3.6-1.3,7.9-2.9,12.1-3.7
		l-1-3.4c-3.9,1.6-7.7,3.1-10.7,4.3c-3,1.2-5.3,2-6.1,2.3c0,0,0.9-0.4,2.3-0.9c1.4-0.6,3.3-1.3,5.1-2.1c3.7-1.5,7.3-3.1,7.3-3.1
		c-9.7,3.8-17.7,6.9-26.1,10.4c-8.5,3.5-17.4,7.1-29.1,11.9c-4,1.7-10,4.3-15.2,6.4c-5.2,2.2-9.5,4.2-10.1,4.7
		c6.6-2.8,10.8-3.8,12.3-3.7c1.5,0.2,0.3,1.5-3.9,3.8c-1,0.5-6.8,3.1-14.2,6.6c-0.9,0.5-1.9,0.9-2.9,1.3c-1,0.4-1.9,0.9-2.9,1.4
		c-2,1-3.9,2-5.9,3.1l-1.4,0.9l-0.4,0.2c-0.1,0.1-0.3,0.2-0.4,0.2c-0.2,0.1-0.5,0.2-0.7,0.4c-1,0.5-1.9,1-2.8,1.6
		c-1.8,1.2-3.4,2.6-4.7,4l-0.2-0.9c1.3,0.6,2.7,0.8,4,0.6c0.6-0.1,1.2-0.3,1.8-0.5c0.3-0.1,0.6-0.3,0.8-0.4c0.3-0.1,0.5-0.4,0.9-0.4
		c2.4-0.6,4.2-1.1,5.5-1.5c3.5-1,3.9-1,2.9-0.5c-1,0.5-3.6,1.6-6.3,2.6c-0.6,0.2-1.4,0.5-1.9,0.7l-0.3,0.3c-0.2,0.1-0.3,0.2-0.5,0.3
		c-0.3,0.2-0.6,0.4-0.9,0.5c-1.3,0.6-2.6,0.8-3.4,0.9c-0.8,0-1.3,0-1,0.1c0.2,0.1,1.2,0.4,3.1,0.1c0.1-0.1,0.9-0.3,1.8-0.7
		c0.2-0.1,0.5-0.2,0.7-0.4c0.1-0.1,0.2-0.2,0.4-0.2l0.2-0.1l0.1-0.1c0.1-0.1,0.3-0.2,0.5-0.2c0.3-0.1,0.6-0.2,0.9-0.3
		c2.4-0.8,5-1.7,6.6-2.3c4.4-1.5,3.5-1,3.9-1.1c0.2,0,0.7-0.2,2.4-0.8c0.8-0.3,1.9-0.7,3.4-1.3c0.7-0.3,1.5-0.7,2.5-1.1
		c0.9-0.4,1.9-0.8,3.1-1.2c2.9-1.8,37.6-15,8.5-4c18-7.4,19.2-7.7,40.5-16.1c-3.5,1.1,1.2-1.1,9-4.4c7.8-3.3,18.8-7.6,28.1-10.8
		c-1,0.5,3.2-0.7,5.2-1.2c5-1.6,9.7-3.1,14.2-4.5c1.1-0.3,2.2-0.7,3.3-1c0.5-0.2,1.1-0.3,1.6-0.5c0.6-0.1,1-0.5,1.5-0.7
		c2-1,4.2-1.3,6.3-1.1l0-0.3c-11,4.8-20.9,8.7-31.3,12.9c-10.3,4.2-21,8.5-33.4,14.5c-1.6,0.7-6.4,3-10,4.7
		c-3.6,1.7-5.9,2.8-2.6,0.9c-4.7,2.6-9,5.1-18.8,11c-2.5,1.3-3.9,2.2-4.7,2.6c-0.7,0.4-0.8,0.4-0.3,0.1c0.4-0.3,1.4-1,2.6-1.7
		c0.6-0.4,1.3-0.8,2-1.2c0.7-0.4,1.5-0.9,2.2-1.3c6-3.7,12.8-7.4,5.2-3.6c-0.2,0.2-1.1,0.8-2.5,1.6c-0.7,0.4-1.5,1-2.5,1.6
		c-0.9,0.6-1.9,1.2-3.1,1.9c-2.3,1.4-4.9,3.1-7.5,5.1c-0.6,0.5-1.3,1-2,1.6c-0.3,0.3-0.6,0.6-1,0.8l-0.4,0.4
		c-0.1,0.1-0.2,0.2-0.4,0.3c-0.7,0.3-1.8,1-2.4,1.8c-0.6,0.9-0.9,2-0.9,3l0,1.1l1.1-0.2c6.2-1.2,12-3.6,16.6-5.7
		c-1,0.3-3.1,1.1-5.9,2.1c-2.9,1-6.5,2.3-10.7,3l-0.5,0.1l0-0.5c0-0.8,0.1-1.7,0.6-2.4c0.4-0.7,1.1-1.3,1.9-1.7
		c0.4-0.2,0.7-0.3,1-0.5l0.9-0.8c0.6-0.5,1.2-1,1.9-1.6c2.6-2,5.3-3.9,8.2-5.6c1.4-0.8,2.7-1.7,4.1-2.5c1.4-0.8,2.7-1.6,3.9-2.4
		c2.6-1.5,5-2.9,7.1-4.1c0.2,0.3-2.8,2.2-8.2,5.6c-1.3,0.9-2.8,1.8-4.5,2.9c-1.6,1.1-3.5,2.1-5.3,3.4c-1.8,1.3-3.8,2.7-5.7,4.4
		c-0.5,0.4-1,0.8-1.4,1.3c-0.3,0.2-0.5,0.6-0.9,0.7c-0.4,0.2-0.6,0.3-0.8,0.5c-1,0.6-1.5,1.7-1.4,2.9l-0.9-0.8
		c4.2-0.8,8.7-2.4,13.3-4.4c4.7-2,9.5-4.4,14.8-6.8c28.6-11.8,12.7-4.5,17.6-6.6c13.5-5.4,23.1-9.3,30.6-12.4c7.5-3,13-5.2,18.2-7.3
		c10.3-4.2,19.5-7.8,42.2-16c4.6-1.5,7-2,8.1-2.2c1.1-0.2,0.7,0.1,0,0.4c-1.5,0.7-4.8,2-2.7,1.5c-6,2-11.2,4-15.9,5.8
		c-4.7,1.8-9.1,3.3-13.1,4.8c-8.1,2.9-15.3,5.5-23.3,8.4l19.8-7.1c-7.4,3-23.2,8.9-31.8,12c4.3-1.5,13.8-4.9,25.9-9.4
		c6.1-2.3,12.9-4.8,20.1-7.4c7.2-2.7,14.7-5.8,22.7-8l-0.1-0.3c-22.6,9.9-46.6,19.8-64.1,27.4c-7.2,3.4-19.5,9.5-13.6,6.9
		c0,0,3.2-1.5,6.4-3c3.2-1.5,6.4-3,6.4-3c6-2.5,0,0.4-5.4,3c-5.4,2.6-10.3,5-2.2,1.3c-5.2,2.5-10.7,5.2-16.3,8.2
		c-2.8,1.5-5.8,2.9-8.7,4.4c-2.8,1.6-5.7,3.4-7.6,5.9l-1.4-2.3c8.6-1.3,17.4-4.7,27.2-8.2l4.9-1.1c-0.3,0-4.4,1.4-9.4,3.2
		c-4.9,1.8-10.7,3.7-14.2,4.8c2.6-0.8,6.4-1.9,10.7-3.4c4.3-1.5,9.2-3.2,14.1-4.9c9.8-3.4,19.7-7,25.3-9.4l-17.8,6
		c8.9-3.4,18.9-7.3,29.4-11.3c5.2-2,10.7-4,16.2-5.9c5.5-2,11.1-3.9,16.7-5.8c-10.4,3-5.1,1.9-21.3,6.8c7.1-2-7.3,2.9-20.5,7.8
		c-13.2,4.8-25.4,9.3-14.2,5.7c-8,2.5-14.8,4.9-22.2,7.5c-3.7,1.3-7.5,2.7-11.6,4c-4.1,1.3-8.6,2.5-13.6,3l2.7,4.6
		c0.2-0.2,0.4-0.4,0.6-0.7c0.2-0.2,0.5-0.5,0.7-0.7c-0.2,0.1-0.5,0.4-0.8,0.6c-0.3,0.3-0.5,0.5-0.4,0.3c0.1-0.2,0.5-0.8,1.9-2
		c1.4-1.2,4-2.8,8.4-4.8c0.8-0.4,2.7-1.4,3.9-2.1c0.5-0.3,0.7-0.4,1.2-0.6c-0.4,0.2-0.6,0.3-1,0.5c0.7-0.4,0.8-0.5-0.4,0.2
		c-2.2,1-4.2,1.9-5.7,2.6c-1.6,0.7-2.7,1.3-3.4,1.6c1-0.6,2.3-1.4,3.9-2.2c1.6-0.8,3.5-1.7,5.6-2.8c4-2.1,8.6-4.4,13.4-6.7
		c9.4-4.5,19.1-8.9,24-11.1c10.9-4.6-4.4,2.2,1.6-0.2l14.6-6.6c1.6-0.2,29.1-11.7,3.7-0.5c0,0,5.8-2.5,11.5-4.9
		c2.9-1.2,5.8-2.5,7.9-3.4c2.2-0.9,3.6-1.5,3.6-1.5c3.2-1.3,6.7-2.7,10.4-4.4l-2-5.1c-6.3,1.7-12.7,4.1-18.6,6.3
		c-5.9,2.2-11.5,4.4-15.9,6.1c-11.1,4-27.8,10.9-18.3,7c0,0-2.3,0.9-5.7,2.2c-1.7,0.7-3.7,1.4-5.9,2.2c-1.1,0.4-2.2,0.8-3.3,1.3
		c-1.1,0.5-2.3,0.9-3.4,1.4c-9.1,3.7-18.2,7.4-18.2,7.4l-0.4,0c-9.2,3.7-18.4,7.4-27.8,11.2c-4.7,2.1-9.3,4.3-14,6.3
		c-4.7,2-9.4,3.8-14.3,4.7l2.6,2.2c0-0.4,0-0.7,0.2-0.9c0.1-0.3,0.3-0.5,0.5-0.6c0.1-0.1,0.3-0.2,0.5-0.3c0,0,0.4-0.2,0.6-0.2
		c0.2-0.1,0.4-0.3,0.6-0.4l0.8-0.7l0.7-0.6c1.9-1.6,3.9-3.1,6-4.4c1.1-0.7,2.1-1.3,3.2-2c1.1-0.6,2.3-1.3,3.4-2
		c2.2-1.3,4.5-2.6,6.8-3.9c4.6-2.5,9.3-5,14-7.3c4.8-2.4,9.6-4.7,14.6-6.9c5.9-2.8,11.9-5.4,19-8.4c7.1-3,15.3-6.2,25.4-10.4
		l4.1-1.3c2.6-1.1,5.6-2.5,9-3.9l9-3.9l-9.8-1.4c-2.7-0.4-5.7,0.2-8.3,1.5l-0.6,0.3l-0.6,0.2c-0.6,0.2-1.1,0.3-1.7,0.5
		c-1.1,0.4-2.3,0.7-3.5,1.1c-4.6,1.4-9.3,2.9-13.6,4.3c-8.6,2.8-15.7,5.3-18.5,6.5c-4.4,1.3-11.3,3.6-19.7,6.8
		c-8.4,3.1-18.2,7-28.3,11.1c-10.1,4.1-20.5,8.3-30.2,12.2c-4.6,2-9.2,3.7-13.5,5.1c-1.1,0.3-2.1,0.7-3.2,1
		c-0.6,0.2-1.3,0.4-1.9,0.5c-0.3,0-0.4,0.2-0.6,0.3c-0.2,0.1-0.4,0.3-0.5,0.3c-0.2,0.1-0.3,0.2-0.5,0.2c-1.2,0.6-2.2,0.6-3.3,0.2
		c-0.2,0.1-0.3,0.1-0.5,0.1l1,4.6l0.1-0.5c1.6-1.7,3.3-3.1,5.3-4.3c0.5-0.3,1-0.6,1.5-0.8c0.3-0.2,0.4-0.2,1-0.5l0.9-0.5
		c1-0.7,2.1-1.3,3.2-1.9c2.1-1.2,4.3-2.4,6.6-3.5c1.2-0.5,2.4-1.2,3.5-1.8c1.2-0.6,2.3-1.2,3.5-1.8c9.4-4.7,19.4-9.5,30.9-14.6
		l-1.6,0.2c6.9-3.2,15.3-6.6,24.8-10.2c4.7-1.8,9.7-3.6,14.9-5.5c1.3-0.5,2.6-1,3.9-1.4c1.3-0.5,2.6-1,4-1.5c2.7-1,5.4-2.1,8.1-3.1
		l-1.2-4c-5.1,0.9-10,2.6-14.8,4.3c-4.7,1.7-9.6,3.4-14.5,5.2c1.1-0.5,3.7-1.5,6.7-2.5c3.1-1.1,6.6-2.3,9.5-3.3
		c-2.4,0.8-4.9,1.6-7.3,2.5c-2.5,0.8-4.9,1.7-7.4,2.5c-5,1.7-9.9,3.6-14.9,5.5c-9.9,3.8-19.9,7.8-29.6,11.9
		c-19.6,8.2-38.2,17.3-55.4,24.2c-8.5,3.8-14.6,6.5-20.6,8.5c0.8-0.3,1.5-0.5,2.1-0.8c-0.9,0.3-2.2,0.8-3.5,1.2
		c-3.2,1-6.5,1.8-10.1,2.3l2.7,3.1c0.2-0.5,0.4-1,0.7-1.5c-0.3,0.5-0.5,1.1-0.7,1.5l-2.7-3.1c3-0.4,5.7-1,8.2-1.7
		c-2.2,0.7-4.8,1.4-8.1,1.9l2.5,2.8c0.6-2.2,2.2-4.2,4.9-5.4c0.1,0,0.2-0.1,0.2-0.1l0.3-0.1c0.3-0.1,0.6-0.3,0.9-0.5
		c0.4-0.2,0.7-0.5,1.1-0.7c0.7-0.5,1.5-0.9,2.2-1.4c1.5-0.9,3-1.9,4.5-2.8c0,0,1-0.5,2-1c1-0.5,2-0.9,2-0.9c0.7-0.4,1.3-0.8,2.1-1.2
		c4.5-2.5,6.3-3.6,6.3-3.7c0-0.2-1.7,0.6-4.2,1.8c4.6-2.7,8.8-5.1,12.1-7c3.9-1.6,10.1-4.8,16.7-7.9c6.6-3.2,13.7-6.3,19.1-8.2
		c2.7-1.3,11.9-5.2,22.1-9.1c2.6-1,5.2-2,7.8-2.9c2.6-1,5.2-1.8,7.6-2.7c2.4-0.9,4.7-1.7,6.8-2.5c0.5-0.2,1-0.4,1.5-0.5
		c0.3-0.1,0.5-0.1,0.8-0.2c0.3-0.1,0.5-0.2,0.8-0.3c1-0.4,1.9-0.8,2.8-1.2l-1-2.6c-2.6,0.7-4.4,1.3-5.2,1.7c-0.4,0-3.4,0.8,2.1-0.7
		c-5.8,1.5-11.5,3.1-17,4.8c-5.5,1.7-10.9,3.4-15.9,5.2l-5,1c0,0-6.1,2.2-12.2,4.4c-6.1,2.3-12.1,4.5-12.1,4.5
		c-7.5,2.4-12.8,4.1-14.4,4.5c-1.6,0.4,0.5-0.5,7.8-3.4c-17.7,6.6-24.8,9.5-31.2,12.2c-6.4,2.7-12.2,5-26.7,11.9l1.3-1
		c-5.2,2.3-12,5.6-18.2,8.6c-6.2,3.1-11.8,6-15,7.2c-2,0.8-4.4,1.8-7.5,2.9l1.2,2.5c6.4-3.7,15.1-8.7,25.6-14.1
		c10.5-5.5,22.6-11.4,35.7-17.6c13.1-6.1,27-12.7,41-18.8c7-3.1,14.1-6,21.1-8.8c6.9-2.7,14.2-4.8,20.8-8.3l-1.3-3.4
		c-8.8,1.9-16.6,5-24.1,7.5c6.2-1.5-1.1,0.8-10.1,3.9c-9.1,3.1-19.9,7-20.9,7.9c-3.7,1.1-12.3,4.3-2.4,0.2
		c-7.8,3.1-14.7,5.8-20.9,8.3c-6.2,2.5-11.7,4.9-16.9,7.2c-10.4,4.6-19.4,9-29.7,14.5c-3.6,1.5,6.3-3.6,3.1-2.2
		c-1.2,0.6-3.6,1.9-6,3.1c-1.2,0.6-2.5,1.3-3.7,1.9c-1.1,0.6-2.1,1.1-2.9,1.4c-1.5,0.7-0.5,0.1,1.5-1c0.5-0.3,1.1-0.6,1.6-0.9
		c0.6-0.3,1.3-0.7,1.9-1c1.3-0.7,2.7-1.4,3.9-2c-1.8,0.9-3.5,1.8-5.2,2.6c-1.6,0.9-3,1.6-4.5,2.4c-1.4,0.7-2.7,1.4-4,2
		c-0.6,0.3-1.2,0.6-1.8,0.9c-0.8,0.4-1.5,0.7-2.2,1c-0.2,0.2-0.4,0.4-0.6,0.6l-0.1,0.2l0,0c0,0-0.1,0.1-0.1,0.1c0,0.1-0.1,0,0,0.1
		c0.2,0.3,0.3,0.6,0.4,0.8c0.1,0.4,0,0.5,0.1,0.3c0-0.1,0.1-0.1,0.1-0.2c0.1-0.1,0.1-0.2,0.2-0.3c0.1-0.1,0.2-0.2,0.3-0.3
		c0.1-0.1,0.1-0.1,0.2-0.2l0,0l-0.3,3.8c5-4.1,8-6.4,9.9-7.9c1.9-1.5,2.5-2.3,3.1-3c14.8-9,22.1-13.7,32.6-20.5
		c2.7-1.4,6.2-3.3,6.8-3.5c0.6-0.2-1.8,1.2-11,6.6c2.6-1.5,7.8-4.6,14.3-8.1c6.5-3.5,14.4-7.4,22.1-10.9c15.4-7,30-12.6,30.4-13.2
		c1.5-0.5,4.4-1.7,7.4-3.3L474,367c-4.6,1.4-9.5,3.4-11.3,4.1c-12.5,4.9-19.4,7.5-26.1,10.3c-6.7,2.7-13.4,5.5-25.5,10.7l6.8-2.8
		c-9.3,4.8-20.1,8.8-39.4,18l0.5-0.3c-10.2,4.7-16.6,7.8-21.1,10c-4.5,2.2-7,3.5-9.2,4.7c-2.2,1.2-4.1,2.2-7.3,3.8
		c-1.6,0.8-3.6,1.8-6.1,3c-2.5,1.2-5.6,2.6-9.5,4.1l1.6,1.8c0.5-0.9,1.3-2,2.5-3c0.6-0.5,1.3-0.9,2-1.3c0.4-0.2,0.8-0.4,1.2-0.5
		c0.2-0.1,0.4-0.1,0.7-0.2c0.3-0.1,0.6-0.3,0.9-0.5c0,0-0.2,0.1-0.5,0.2c-0.1,0.1-0.4,0.1-0.5,0.1c-0.2,0-0.3,0.1-0.5,0.1
		c-0.6,0.1-1.2,0.3-1.2,0.3c0.2-0.2,0.5-0.4,1-0.6c0.2-0.1,0.5-0.2,0.9-0.4c0.2-0.1,0.3-0.2,0.5-0.3c0.1-0.1,0.3-0.2,0.5-0.3
		c1.3-0.9,2.9-1.9,4.9-3.1c4-2.4,9.2-5.6,15-9.1c11.7-7,25.9-15.4,38-22.4c0,0-2.2,1.2-4.5,2.4c-2.2,1.2-4.4,2.4-4.4,2.4
		c6.5-4,16-8.9,25.6-13.6c4.8-2.3,9.6-4.7,14.1-6.8c2.2-1.1,4.4-2.1,6.4-3.1c1-0.5,2-1,2.9-1.4c0.9-0.4,1.8-0.8,2.7-1.2
		c1.6-0.7,0.4-0.1-1.8,0.9c-0.6,0.3-0.9,0.4-1.6,0.8c-0.6,0.3-1.2,0.7-1.8,1c-1.2,0.7-2.5,1.3-3.5,1.9c1.9-0.9,3.5-1.8,5-2.6
		c0.4-0.2,0.7-0.4,1.1-0.6c0.3-0.1,0.6-0.3,0.9-0.4c0.7-0.3,1.4-0.6,2-0.9c2.5-1.1,4.4-2.1,5.8-2.9c2.9-1.6,3.9-2.5,4.2-2.8
		c0.3-0.4,0-0.2,0.1-0.4c0.1-0.1,0.2-0.3,0.6-0.7c0.2-0.2,0.5-0.5,0.8-0.9c0.2-0.2,0.4-0.5,0.6-0.7c0.2-0.3,0.4-0.8,0.6-1.2l1.7-3.8
		l-4.1,1.1c-1.9,0.5-5.2,1.4-10,3.4c-2.7,0.9-1.1,0-1.2-0.1c-0.1-0.1-0.5,0-2.2,0.6c-1.7,0.6-4.4,1.8-9,3.7
		c-2.4,0.9-6.9,2.9-12.7,5.6c-5.8,2.7-12.9,6.1-20.4,9.8c-3.8,1.9-7.7,3.8-11.6,5.7c-3.9,1.9-7.8,3.9-11.6,5.8
		c-7.7,3.8-15,7.4-21.3,10.3c5.6-2.4,11.1-4.9-1.3,1.4c-4.1,2-8.9,4.3-14,6.8c-5.2,2.5-10.7,5.1-16.3,7.8l-0.3,0.3
		c-0.1,0.1-0.2,0.2-0.3,0.3c-0.1,0.1-0.2,0.2-0.3,0.2c-0.2,0.1-0.4,0.2-0.5,0.3c-0.3,0.1-0.6,0.1-1-0.1l0.5,3.3
		c11.4-9,23.2-17.1,31.2-22.8c2.3-1.4,3.2-1.9,3.3-1.9c6.7-4.5,18-11.4,28.7-17.6c10.7-6.2,21-11.6,25.2-14.1
		c1.9-0.7,4.9-2.1,8.7-3.9c3.8-1.8,8.5-3.9,13.4-7.2l-1.3-3.2c-4,0.6-8,2-11.9,3.5c-1.9,0.8-3.9,1.6-5.9,2.3c-2,0.8-4,1.5-6,2.3
		c-8.1,3.1-16,6.5-23,9.5c-14.1,6-24.5,10.6-24.6,10.1c0,0-2.9,1.3-7.2,3.2c-4.3,2-10,4.6-15.7,7.2c-11.4,5.2-22.8,10.4-22.8,10.4
		l1.1-0.7c-1.7,0.8-3.3,1.5-4.9,2.1c-1.7,0.7-3.3,1.4-4.9,2l-0.5,0.5c-0.1,0.1-0.1,0.1-0.2,0.1c0,0-0.1,0.1-0.1,0.1
		c-0.1,0.1-0.2,0.1-0.2,0.1c0,0,0,0.2,0,0.2c0,0.1,0,0,0,0c0.1-0.3,0.1-0.2,0-0.2l-0.1,3.3c9.1-5.8,15.9-9.7,21.2-12.9
		c5.4-3.1,9.5-5.5,13.5-7.9c6.6-3.4,1.9-0.7,1.4-0.4c16-8.4,26.4-14.1,35.1-18.9c4.4-2.4,8.3-4.6,12.3-6.8c2-1.1,4-2.3,6.2-3.5
		c2.1-1.2,4.4-2.6,6.6-4.4l-1.3-2.7c-3,0.8-6.2,1.9-9.6,3.4c-3.4,1.5-6.9,3.3-10.9,5.1l-3.9,1.2c-4.2,2-16.3,7.5-31.8,15.1
		c-7.8,3.8-16.4,8.3-25.3,12.9c-4.5,2.3-9.1,4.6-13.7,6.9l-3.5,1.7l-1.2,0.6l-0.9,0.4c-1.1,0.5-2.3,1-3.5,1.4l-1.1,0.4l-0.3,0.1
		l-0.1,0c0,0-0.1,0-0.1,0c0,0,0,0,0-0.1c0-0.2,0.1-0.4,0.2-0.5c0.4-0.6,1-1.1,1.6-1.6c1.2-1,2.5-1.9,3.8-2.7c-0.2,0.1-0.5,0.4-2,1.4
		c0.3-0.2,0.7-0.5,1-0.7l0.5-0.3l0.3-0.2l0.1-0.1l0.1,0l0,0l0,0l0,0l-1-1.4c0.5,0.4-1.9-2.1,0.9,0.7l0,0c-0.2-0.2-0.2-0.3-0.4-0.5
		l-0.7-0.9l-0.1-0.1l0,0l0,0l0,0l2.3,3.3c7.3-5.1,15.3-9.9,23.5-14.9c8.2-4.9,16.6-9.8,24.9-14.6c8.3-4.7,16.5-9.3,24.1-13.4
		c3.9-2,7.7-4,11.3-6c1.8-1,3.6-2,5.3-3c0.9-0.5,1.7-1.1,2.5-1.6c0.4-0.3,0.8-0.6,1.3-1c0.2-0.2,0.4-0.4,0.7-0.7
		c0.1-0.1,0.3-0.3,0.4-0.5c0.1-0.1,0.5-0.7,0.6-1.2l1-4.4l-4.2,1.7c-12,4.8-21.1,9-26,11.7c0,0-7.8,3.5-15.5,7.2
		c-7.7,3.7-15.3,7.5-15.3,7.5c40-18.7-5.6,3.4,10.9-4c-7.8,3.7-18,8.5-23.7,11.2c-5.8,2.7-7.2,3.2,2.3-1.6l3-1.4
		c3.3-2.2-9,3.9-22,10.3c-3.3,1.6-6.6,3.2-9.7,4.8c-3.1,1.5-6,2.9-8.6,4.1c-1.3,0.6-2.4,1.1-3.4,1.6c-0.3,0.1-0.5,0.2-0.7,0.3
		c-0.2,0.1-0.3,0.1-0.5,0.2c-0.2,0.1-0.3,0.2-0.4,0.3c-0.4,0.3-0.6,0.4-0.9,0.6c-1.1,0.5-1.8,0.3-1.7,0.3c-0.2,0-0.5,0-0.7,0
		l0.8,2.9c15.4-10.8,31.9-19.9,48.2-29c8.1-4.6,16.3-9,24.4-13.5c4.1-2.2,8.1-4.5,12.2-6.7c4-2.3,8.2-4.2,12.2-6.9l5.1-3.4l-6.1,0.1
		c-3.2,0-6,1.1-8.7,2.2c-2.6,1.1-5.1,2.4-7.5,3.5c-5,2.2-10.1,4.4-15,6.7c-9.9,4.7-19.7,9.5-29.3,14.5c-9.6,5.1-19.1,10.1-28.6,15.2
		c-4.7,2.5-9.5,5-14.2,7.5c-1.2,0.6-2.4,1.3-3.5,1.9c-1.1,0.6-2.3,1.3-3.5,1.9c-1.2,0.6-2.3,1.2-3.5,1.8l-1.8,0.8l-2.1,0.9l-0.3,0.3
		l-0.2,0.2c-0.1,0.1-0.2,0.1-0.2,0.2c-0.1,0.1-0.3,0.2-0.4,0.2c-0.2,0.1-0.5,0.1-0.8,0l0.8,3.7c1.4-1.1,2.8-2.3,4.2-3.3
		c-1.5,1-2.9,2-4.4,3l-0.7-3c0.4,0.2,0.7,0.2,1.1,0.2c0.2,0,0.4-0.1,0.6-0.2c0.2-0.1,0.4-0.2,0.8-0.5c-0.4,0.4-0.5,0.5-0.7,0.6
		c-0.2,0.1-0.4,0.2-0.6,0.3c-0.4,0.1-0.8,0.1-1.2,0l0.5,2.4c3.1-2.6,6.3-5,9.6-7.4c3.3-2.4,6.6-4.7,10-6.9c3.1-2,5.3-3.2,4.6-2.6
		c-0.4,0.3-1.5,1.1-3.5,2.5c-2,1.4-5,3.4-9.1,6.3c4.4-2.9,11.3-7.7,17.4-11.6c6-3.9,11.1-7.1,11.3-7.3c8.6-4.9,12.1-6.8,12.7-7
		c0.6-0.2-1.8,1.2-4.9,3.1c-6.3,3.8-15.3,9.4-10.1,6.3c0,0,3.5-2.1,7.1-4.2c3.6-2.1,7.1-4.1,7.1-4.1l-3.3,1.8
		c5.7-3.4,8.8-5.4,13.1-7.9c4.3-2.5,9.8-5.7,20.6-11.1c6.9-3.4,8.7-4.1,9.5-4.4c0.8-0.3,0.5,0,3.2-1.3c0,0,0.1,0,0.4-0.1
		c0.3-0.1,0.7-0.3,1.4-0.6c1.3-0.6,3.4-1.5,6.7-3.1c2.1-1,4.1-2.1,6.2-3.3l4.1-2.5l-4.6-1.4c-1.5-0.5-3.3-0.5-4.8,0
		c-0.8,0.2-1.5,0.6-2.1,0.9l-0.4,0.2c-0.1,0-0.1,0.1-0.2,0.1l-0.6,0.2l-6.9,2.3c-4.6,1.6-9.2,3.2-13.7,5c0,0,3.4-1.2,6.8-2.3
		c3.4-1.1,6.9-2.1,6.9-2.1c-7.5,2.7-15.3,5.8-19.3,7.5c-4,1.7-4.3,1.9,3.5-0.9c-3.4,1.2-8.5,3.2-14.8,5.9
		c-6.2,2.6-13.7,5.9-21.6,9.8c-7.9,3.9-16.3,8.3-24.7,12.8c-2.1,1.1-4.2,2.3-6.3,3.4c-2.1,1.2-4.2,2.4-6.2,3.6
		c-4.1,2.3-8.2,4.5-12.4,5.8l1.5,2.7c4.7-3.9,9.7-7.2,14.4-10.3c4.7-3.1,9-5.9,12.9-8.4c7.8-4.9,13.7-8.3,16.3-9.8
		c7.1-4.4,14.2-8.7,21.7-12.8c3.7-2.1,7.6-4.1,11.6-6c4-2,8-4,12.4-5.4l-1.2-2.2c-0.5,0.4-1.1,0.8-1.7,1.1c-0.3,0.2-0.6,0.3-0.9,0.4
		c-0.3,0.1-0.6,0.2-1.1,0.4c-1.4,0.7-2.9,1.3-4.4,2c-2.9,1.3-5.9,2.6-8.9,4c6.2-2.7,10.1-3.8-11.2,5.8c3.6-2.4-6.2,1.9-19.1,7.7
		c-13,5.6-28.8,13.4-37.4,17.4c3.2-1.5,2.5-1.1-0.3,0.5c-2.8,1.6-7.8,4.2-13.1,7.3c-5.3,3.1-11.2,6.6-15.9,9.4
		c-1.2,0.7-2.3,1.4-3.3,2c-0.5,0.4-1,0.7-1.4,1c-0.4,0.3-0.8,0.5-1.2,0.8c-1.5,0.9-2.6,1.3-3.1,1.6l1.4,2.5c0.4-0.3,0.4-0.4-0.1-0.1
		l-1.3-2.3c0.3-0.1,1.8-0.4,4.1-1.8c-1.6,1.1-3.1,1.6-4.1,2l1.1,2c9-6.7-1.4,1.6,9.3-6.1c11.3-8.6,23.7-17.2,36.9-26
		c6.6-4.4,13.3-8.7,20.3-12.8c3.5-2.1,7.1-4,10.8-5.9c3.7-2,7.3-4,11-4.5l-1.3-3.6c-4.5,2.5-9.4,4.4-14.4,6.3c-2.5,1-5.1,2-7.6,3
		c-2.5,1.1-5,2.1-7.5,3.2c-10,4.3-20.2,8.8-30.1,13.8c-0.7,0.6,8-3.5-2.9,2.3c0,0-6.9,3.3-13.6,6.8c-6.7,3.5-13.4,7.2-13.4,7.2
		c-4.9,2.9-7,4.5-10.2,6.5c-1.6,1-3.4,2.2-6,3.7c-2.6,1.5-5.9,3.4-10.4,6.2c2.6-1.5,6.4-3.6,0,0.5c-3.2,2-6.3,4.2-9.4,6.5l1.5,2.6
		c4.3-1.9,7.6-4.9,11-7.4c3.5-2.5,7-4.9,10.6-7.4c7.1-4.9,14.1-10,21.3-14.9c7.2-4.9,14.3-9.8,21.5-14.7c7.1-5.1,14.6-9.4,22-14.3
		l-1.7-2.9c-20.5,9.9-41,20.1-61,31.4c-10,5.6-19.8,11.5-29.6,17.5c-4.9,3-9.7,6.2-14.5,9.2l-7.2,4.6l-0.5,0.3
		c-0.2,0.1-0.4,0.3-0.6,0.4c-0.3,0.2-0.5,0.4-0.8,0.6c-0.5,0.4-1.1,0.7-1.6,1c-1.1,0.6-2.3,1.1-3.6,1.4l1.7,2.5
		c2.1-2.9,4.9-5.4,7.8-7.8l4.4-3.6l4.4-3.6c5.9-4.8,12-9.3,18.1-13.8c3.1-2.2,6.2-4.5,9.2-6.7c3.1-2.3,6.1-4.5,9.2-6.8
		c6.1-4.5,12.2-8.8,18.6-12.8c-3.3,2-5.2,3.2-6,3.7c-0.9,0.5-0.7,0.4,0.1-0.2c0.8-0.6,2.4-1.7,4.4-3c2.1-1.3,4.4-3.1,6.7-4l-1.6-3.5
		l-0.1,0c0,0,0.1,0,0.1,0l1.6,3.5c-1.5,0.6-2.3,1.1-2.6,1.2c-0.3,0.1-0.2,0,0.1-0.3c0.6-0.5,1.8-1.3,1.1-1.1
		c0.4-0.2,0.7-0.3,1.1-0.4l-1-2.3c-14,6.8-27.5,14.6-40.8,22.6c-3.5,2.6-14.4,9.5-24.7,16.1c-5.2,3.3-10.3,6.6-14.4,9.1
		c-4.1,2.6-7.1,4.6-8,5.5c0,0,3.2-2.1,6.3-4.2c3.2-2,6.4-4.1,6.4-4.1c-8.3,5.6-2.1,2.3,5.9-2.3c8-4.6,17.8-10.3,16.8-9.1
		c6.4-4.4,14.4-9.5,23.5-14.8c9.1-5.3,19.4-10.9,30.3-16.4l-1.3-3c-3,1.1-5.2,2.9-7.5,4.4c-2.4,1.5-4.7,3.1-7.1,4.8
		c-4.6,3.3-9.2,6.9-13.6,10.5c-6.6,4.7,5.4-4.4,1.8-2c-3.6,3-7.7,6.2-13,10.1c-5.3,4-11.8,8.8-20.1,15.3l1.8-1.6
		c-2,1.6-4,3.2-5.8,4.7c-1.9,1.6-3.7,3-5.5,4.5c-3.6,2.9-6.8,5.8-9.2,9.1l-2.5,3.5l4.2-1c1.4-0.3,2.8-0.8,4-1.5
		c0.6-0.3,1.2-0.7,1.8-1.1c0.3-0.2,0.6-0.4,0.8-0.6l0.4-0.3l0.3-0.3c2.1-1.3,4.1-2.6,6.1-3.9c4.1-2.6,8-5.1,11.9-7.6
		c7.8-4.9,15.5-9.5,23.6-14.2c16.2-9.4,34.1-18.8,58.8-30.7l-4.6,1.7c9.2-4.4,13.2-6.3,16.9-8l-1.9-3.4c-1.4,0.9-2.7,1.7-4.3,2.7
		c-5.1,3.6-1.3,1.3,4.5-2.5l1.7,2.9c-10.1,4.8-26.1,12.8-18.1,8.3c3.8-1.6,10.2-4.6,18.1-8.3l-1.6-2.8c-3.2,2.1-6.8,4.3-10.5,6.7
		c-1.9,1.2-3.8,2.4-5.7,3.6c-1.9,1.3-3.8,2.6-5.8,3.9c-7.8,5.3-15.8,10.8-23.3,15.9c-7.5,5.2-14.4,10-20,13.8
		c-2.8,1.9-5.3,3.6-7.3,4.9c-1,0.7-1.9,1.3-2.7,1.8c-0.8,0.5-1.5,1-2,1.3c-3.9,3.1-5.7,4.3-6.5,4.8c-0.7,0.5-0.4,0.3,0.2,0.1
		c0.6-0.3,1.3-0.7,1.2-0.6c0,0-0.2,0.2-0.8,0.6c-0.5,0.3-1.4,0.9-2.7,1.5l1.8,3.1c0.6-0.5,1.9-1.4,3.4-2.6c0,0,1.2-0.8,2.4-1.5
		c1.2-0.8,2.5-1.5,2.5-1.5s1.1-0.8,2.2-1.7c1.1-0.8,2.2-1.6,2.2-1.6c6.1-3.7,10.8-6.3,14-8.1c3.2-1.8,5-2.6,5.3-2.6
		c-3,1.7-8.5,5.1-11.7,7c8.1-4.6,19.3-11.4,29.4-17c10-5.7,19-10.1,21.9-11.4c0,0-4.7,2.2-9.4,4.6c-4.7,2.3-9.3,4.8-9.3,4.8
		c10.9-6.1,22.6-11.7,34.9-17.1c3.1-1.3,6.2-2.7,9.3-4c3.1-1.3,6.3-2.7,9.3-4c6.3-2.5,12.9-4.8,19.2-8.3l-1.4-4
		c-2.5,0.4-4.9,1.3-7,2.3c-2.2,1-4.2,2.2-6.1,3.2c-4.1,2.1-8.1,4.4-12,6.7c-7.8,4.7-15.4,9.7-22.7,14.7c-14.7,10-28.9,20-41.6,30.1
		l1.7,3.2c1.7-0.6,3.3-1.4,4.7-2.4c0,0-1,0.6-2.1,1.1c-1.1,0.5-2.2,0.9-2.2,0.9c1.4-0.5,2.7-1.2,3.8-1.9c0.6-0.4,1.1-0.8,1.7-1.2
		c0.3-0.3,0.3-0.2,0.6-0.4c0.3-0.2,0.5-0.3,0.8-0.5c2-1.2,3.9-2.3,5.7-3.3c3.5-2.1,6.5-3.8,9.1-5.3c5.3-3.1,9.3-5.2,13.4-7.4
		c4.1-2.2,8.4-4.3,14.4-7.3c6-2.9,13.6-6.7,24.6-11.7l-1.6,0.8c8.7-4.2,20.4-9.7,32.5-15.1c-11,5.3,21.2-9,6.7-2.1
		c2.4-1.1,4.5-2.1,6.5-3c0.2-0.1,0.5-0.2,0.7-0.3c0.2-0.1,0.2-0.1,0.4-0.2c0.6-0.2,1.1-0.4,1.7-0.6c1-0.5,2-1.1,2.7-1.7l-1.9-3.5
		c-3.7,1.3-6.5,2.7-8.8,3.8c-2.3,1.1-4,2-5.4,2.7c-2.9,1.5-4.3,2.3-5.8,3.1c-1.4,0.8-2.8,1.6-5.3,3.1c-2.5,1.5-6.2,3.7-12.2,7.4
		l-6.5,3.4c-4.5,2.9-7,4.5-10.9,7c-3.9,2.5-9.2,5.8-19.2,12.5c16.4-11.2-13.2,8,5.1-4.6c-8,5.1-15.3,9.6-21.4,14.7l1.8,3.4
		c4.3-1.3,8-3.3,11.4-5.1c3.4-1.9,6.5-3.8,9.5-5.4c6.1-3.4,11.5-6.4,16.6-9.1c10.2-5.4,18.9-9.7,27.6-13.1c5.2-2.6,5.3-2.8,2.7-1.8
		c-2.6,1-7.9,3.3-13.4,6c-11,5.2-22.9,11.7-17.2,8.6c-4.9,2.4-0.8,0,6.4-3.9c3.6-1.9,8-4.1,12.4-6.3c4.4-2.1,8.8-4.1,12.5-5.7
		c6.2-2.7,11.7-4.9,18.8-7.4c3.5-1.3,7.5-2.6,12.2-4.1c2.3-0.7,4.9-1.5,7.6-2.4c0.7-0.2,1.4-0.4,2.1-0.6l0.6-0.2
		c0.3-0.1,0.5-0.2,0.7-0.3c0.3-0.2,0.4-0.2,0.5-0.3c0.1-0.1,0.3-0.1,0.4-0.2c1.1-0.5,2.2-0.6,3.3-0.3l-0.4-3.4
		c-4.4,2.6-9.8,4.8-16,7.7c3.7-1.7,3.9-1.8,7.6-3.5c-3.4,1.5-7,3-10.4,4.7c-3.4,1.7-6.9,3.4-10.4,5.3c-7,3.7-14.4,7.7-22.6,12.1
		c-8.8,5.7-21.1,12-23.3,14.3c0,0,8-4.9,16.1-9.5c4-2.3,8.1-4.7,11.2-6.4c3.1-1.7,5.1-2.8,5.1-2.8c-4.6,2.6-9.2,5.2-13.8,8
		c-4.6,2.8-9.4,5.6-14.5,8.8c-5.1,3.1-10.6,6.5-16.5,10.4c-5.9,3.9-12.4,8.3-19.3,13.7c1-0.9,3.5-3,6.6-5.4c3-2.3,6.6-5,9.6-7
		c-6.7,4.2-12.6,8.8-18.7,13.8l-2,1.6l2.5,0.7c0.8,0.2,1.8,0.3,2.7,0c0.4-0.1,0.9-0.3,1.2-0.6c0.2-0.1,0.4-0.2,0.5-0.4
		c0.2-0.1,0.2-0.2,0.3-0.2c0.9-0.4,1.7-0.8,2.6-1.2c-0.2,0.1-0.5,0.3-0.9,0.6c-0.2,0.1-0.5,0.3-0.8,0.4c-0.1,0.1-0.3,0.2-0.5,0.2
		c-0.1,0.1-0.2,0.1-0.3,0.2c-0.1,0.1-0.1,0.1-0.2,0.2c-0.1,0.1-0.3,0.2-0.5,0.4c-0.3,0.2-0.7,0.5-1.2,0.7c-0.9,0.4-2.1,0.5-3.2,0.2
		l-3.2-0.9l2.6-2.2c2.6-2.2,6-4.9,10-7.9c4-3,8.6-6.1,13.4-9.2c9.6-6.2,20-12.2,27.6-16.8c-4.8,2.6-14.1,8-20.9,12.3
		c-6.8,4.3-11,7.2-6.5,3.7c-6.6,4.9-15,10.5-23.9,17.7l-3,2.4l3.8,1.1c0.9,0.3,2.1,0.3,3.1,0c0.5-0.2,1-0.4,1.4-0.6
		c0.2-0.1,0.4-0.3,0.6-0.4l0.2-0.1l0.1-0.1c0.5-0.2,1-0.5,1.5-0.7c0.6-0.3,1.2-0.6,1.8-0.9c1.2-0.6,2.5-1.2,3.7-1.8
		c1.2-0.6,2.5-1.3,3.7-2c0.6-0.3,1.2-0.7,1.8-1c0.6-0.3,1.2-0.7,1.9-1c5-2.7,10.2-5.6,15.5-8.6l-1.4,1.3c3.8-2.1,11.7-6.6,18.8-10.3
		l-12.5,7.4c4.9-2.7,9.7-5.4,14.4-7.9c4.8-2.5,9.5-5,14.3-7.4c9.5-4.7,19-9.2,28.7-13.7c-10.1,4.6-15.7,7.4-18.7,8.8
		c-3,1.4-3.4,1.6-3.2,1.3c0.6-0.5,4-2.5-4.6,1.6c16.7-8.7,25.6-12.6,32-15.2c0.8-0.3,1.6-0.6,2.3-0.9c0.8-0.3,1.5-0.6,2.2-0.9
		c1.4-0.6,2.8-1.2,4.1-1.8c1.4-0.6,2.7-1.1,4.2-1.5c1.5-0.4,3.1-0.8,4.7-0.8l-1.4-4.7c-1.6,1-3.3,2-5.4,3.1
		c-2.1,1.1-4.6,2.3-7.3,3.8c-5.5,3-12.2,6.7-20.9,11.5c7.3-4.1,27.7-15,16.3-8.5c-10.4,5.6-24.2,13-30.6,16.3
		c-35.7,20.3,5.7-2.7-9.3,6.2c-6.2,3.2-10.6,5.7-15.3,8.7c-4.7,3-9.8,6.3-17.3,11.3l-0.4-0.3c-2.5,1.6-4.7,3.2-6.7,4.5L263,395
		l6.2,0.4c1.4,0.1,2.9-0.2,4.1-0.8c0.6-0.3,1.2-0.7,1.5-0.9c0.1-0.1,0.2-0.1,0.2-0.1c0.2-0.1,0.4-0.2,0.6-0.3c1.5-0.8,2.9-1.4,4.1-2
		c2.4-1.2,4.1-2.1,5.4-2.7c2.6-1.4,3.5-1.9,4.5-2.6c2-1.3,4.6-2.7,22.3-11.3l-15.6,8.5l19.6-9.9l-3.8,2.5c10.6-5.5,17.6-9,24.6-12.3
		c7-3.3,14-6.5,24.8-11c-2.6,0.9-1.9,0.4,1.7-1.3c3.6-1.7,10.3-4.8,19.9-8.6c0.4-0.2,0.8-0.3,0.9-0.3l-1-1.5c-0.2,0-0.3-0.1-0.5-0.1
		c-0.1,0-0.1-0.1-0.2-0.1c0,0,0,0-0.1-0.1l-0.2-0.1l-0.1-0.1l0,0l0,0l0,0c-0.1,0.1-0.2,0.1-0.2,0.2c-0.2,0.2-0.4,0.3-0.6,0.4
		c-0.4,0.3-0.7,0.5-1,0.6c-0.5,0.3-0.8,0.5-0.9,0.5c-0.2,0.1,0.1-0.2,0.1-0.2c-0.1,0-0.5,0.3-2.5,1.5c-2,1.2-5.5,3.2-11.7,6.5
		c2.3-1.4,4.8-2.8,7.6-4.5c1.4-0.8,2.9-1.7,4.5-2.7c0.8-0.5,1.6-1,2.4-1.5c0.4-0.3,0.8-0.6,1.2-0.8c0.2-0.1,0.3-0.3,0.5-0.4
		c0.1,0,0.1-0.2,0.1,0c0.3,0.3,0.7,0.5,1,0.7c0.2,0.2,0.4,0.3,0.7,0.3l1.2,2.2c-1.8,0.7-3.7,1.4-5.8,2.2c-1.2,0.6-5.9,2.8-7.1,3.4
		c3.9-1.6,8.4-3.3,13.1-5.2l-1.4-2.6c-0.2,0-0.4-0.1-0.5-0.2c-0.1,0-0.1-0.1-0.2-0.2l-0.4-0.2c-0.2-0.2-0.5-0.3-0.7-0.5l-0.2-0.1
		l-0.1-0.1l0,0c0,0,0,0,0,0c-0.1,0-0.1,0.1-0.2,0.2c-0.2,0.2-0.5,0.4-0.8,0.6c-0.6,0.4-1.2,0.8-1.9,1.3c-1.3,0.8-2.7,1.7-4.1,2.5
		c-2.8,1.6-5.6,3.1-8.3,4.6c-1.3,0.7-2.7,1.4-3.9,2.1c-1.2,0.7-2.5,1.4-3.7,2c-2.3,1.3-4.3,2.4-6,3.4c1.8-1,3.8-2.1,5.6-3.1
		c0.9-0.5,1.7-0.9,2.6-1.4c0.8-0.4,1.5-0.8,2.1-1c0,0-0.6,0.3-1.6,0.9c-1.1,0.6-2.5,1.4-4.2,2.4c-3.4,2-8,4.7-12.6,7.4
		c-9.2,5.4-18.2,11-18.2,11c-5.9,3.3-1.4,0.4,3.1-2.4c-7.4,4.4-12.4,7.7-23.2,14.3c2.6-2,1.7-2,17-11.4c-5.7,3.5-11.4,7-17.1,10.5
		c-5.7,3.5-11.3,7.2-16.9,11l2.9,4.3l0.1-0.1l0.1-0.1l0.1-0.1l0.1-0.1l0,0l0,0c0.1-0.1,0.2-0.2,0.3-0.3c0.1-0.2,0.2-0.4,0.3-0.8
		c0.1-0.4,0.1-1-0.1-1.7c-0.3-0.6-0.8-1.1-1.2-1.2c-0.4-0.2-0.6-0.2-0.8-0.3c-0.2,0-0.3,0-0.4,0l-0.1,0l0,0l0,0l0,0l0,0l-0.1,0
		l-0.3,0.1c-0.2,0.1-0.5,0.2-0.7,0.2c-0.9,0.5-2.4,1.4-4.2,2.7c-1.8,1.2-3.8,2.8-5.1,4c-1.3,1.3-1.9,2.2-2.4,2.9
		c-0.4,0.7-0.8,1.3-1,1.8c-0.2,0.5-0.4,1-0.5,1.6c-0.1,0.3-0.1,0.6-0.1,0.9c0,0.1,0,0.2,0,0.3l0,0.2l0,0.1c0,0.1,0.1,0.1,0.1,0.2
		c0.1,0.2,0.1,0.4,0.1,0.4c0,0-0.1-0.1-0.3-0.4c0.2,0.4,0.4,0.9,0.6,1.7c2-0.6,4-1.2,6.3-1.9c2.2-0.7,4.7-1.6,7.2-2.7
		c1.2-0.5,2.6-1.2,3.7-1.6c0.7-0.3,1.4-0.7,2.1-1c1.4-0.7,2.9-1.4,4.3-2.2c5.8-2.9,11.9-6.2,18.1-9.5c12.4-6.7,25.6-13.5,38.5-19.5
		c1.4-0.7,4.1-2.1,9.8-4.8c4.3-1.9,8.6-3.8,12.8-5.7c4.2-1.8,8.3-3.5,12.5-4.4l-2.3-4.8c-3.2,2.5-7.2,4.4-11.3,6.7
		c-4,2.2-8.1,4.4-12.3,6.7c-8.4,4.6-17.2,9.5-26.8,14.9l-16.9,8.3c-11.4,6.4-5.7,3.5-1.9,1.6c1.9-0.9,3.3-1.6,1.9-0.7
		c-1.4,0.9-5.7,3.3-15.1,8.8c-7.5,4.4-11.5,7-13.6,8.2l-2.7,1.6l2.6,2c0.5,0.3,1,0.6,1.6,0.8c0.6,0.1,1.1,0.1,1.5,0.1
		c0.9-0.1,1.3-0.4,1.6-0.5c0.6-0.3,0.6-0.3,0.6-0.2c0,0.1-0.1,0.3,0,0.3c0.1,0.1,0.7-0.4,0.7-0.4c0,0,0.1,0,0.2,0c0,0,0.1,0,0.1,0
		l0.1,0l0.2-0.1c0.4-0.2,1-0.4,1.6-0.6c1.8-0.8,3.7-1.6,5.7-2.6c1-0.5,2.1-1,3.2-1.5c1.1-0.5,2.1-1.1,3.3-1.6
		c4.6-2.2,9.7-4.6,15.1-7.2c10.9-5.1,23.3-10.9,36.3-16.1C356.3,384.3,349.6,387.1,341.7,390.8z M404.8,381.2
		c-5.6,2.7-16.6,8.3-20.8,10C390.1,387.7,395.1,385.5,404.8,381.2z M362.5,431.2c-0.4,0.2-0.7,0.3-1,0.5c-0.1,0.1-0.1,0.2-0.2,0.2
		l-0.1,0.1l-0.2,0.2c-0.3,0.2-0.6,0.5-1,0.7c-0.4,0.2-1.1,0.3-1.7,0.2c-0.6-0.2-1.1-0.6-1.4-0.9l-0.8-0.9l0.9-0.7
		c3.2-2.6,7.4-5.5,12.1-8.5c-3.7,2.5-7.7,5.2-12,8.6l-0.8,0.6l0.7,0.8c0.3,0.3,0.6,0.6,1.1,0.8c0.5,0.2,1.1,0.2,1.6,0
		c0.9-0.3,1.6-1,1.8-1.3C361.7,431.5,362,431.4,362.5,431.2z M630.5,375.5c-0.3,0.1-0.4,0.2-0.6,0.2c-6.6,2.3-8.7,3.1-8,2.8
		C622.5,378.4,625.9,377.1,630.5,375.5z M621.2,385.4c-2.6,1.2-2.4,1.2-1.3,0.8c0.9-0.5,2.8-1.3,5.4-2.4c2.5-1.1,5.7-2.4,9.2-3.8
		C632.5,380.6,629,381.9,621.2,385.4z M344.8,339c0,0-1.3,0.5-2.6,1.1c-1.3,0.6-2.5,1.1-2.5,1.1c5.6-2.7,7.8-3.6,8-3.7
		C348,337.4,346.4,338.2,344.8,339z"/>
	<path d="M398.8,402.6c1.6-0.8,2-1,2.4-1.1C403.3,400.1,403.3,400,398.8,402.6z"/>
	<path d="M357.2,371.6l-0.9,0.4c-0.5,0.3-0.7,0.4-0.8,0.5L357.2,371.6z"/>
	<path d="M469.9,424.7c-2.9,0.9-5.1,1.6-6.9,2.1c-0.2,0-0.3,0.1-0.5,0.1c-0.1,0-0.2,0.1-0.3,0.1c-0.2,0.1-0.4,0.2-0.5,0.3
		c-0.2,0.1-0.4,0.2-0.6,0.3c-0.8,0.3-1.5,0.6-2.2,0.7c-0.2,0.1,0.6,0.1,2.6-0.8c0.2-0.1,0.5-0.3,0.7-0.4c0.1-0.1,0.3-0.2,0.4-0.2
		c0.5-0.2,1.2-0.3,1.9-0.5C465.9,426,467.7,425.4,469.9,424.7z"/>
	<path d="M584.3,405.3l-17.3,6.4c8.4-3.1,11.4-4.1,15.7-5.5C582.2,406.2,578.9,407.3,584.3,405.3z"/>
	<path d="M615.5,401.3c-2.4,1.1-5.2,2.3-7.6,3.5l0.8-0.1C619.1,399.9,626.5,396.7,615.5,401.3z"/>
	<path d="M600.9,401c0.8,0,3.8-1.1,8.3-2.7c4.4-1.6,10.2-3.6,16.3-5.8c-0.7,0.3-1.4,0.5-2.2,0.8c1.7-0.9-0.7-0.2-5.1,1.4
		C613.7,396.2,607.3,398.5,600.9,401z"/>
	<path d="M628.2,391.5c3.8-1.3,7.6-2.7,11.3-4C640.8,386.8,634.9,389.1,628.2,391.5z"/>
	<path d="M587.7,400c-5.7,2.3-3.3,2-6.6,3.2C575.1,406.3,618.4,386.6,587.7,400z"/>
	<path d="M611.2,398.7l-4.5,1.1l-6.7,2.9c0,0,2.8-1,5.6-2c1.4-0.5,2.8-1,3.9-1.3C610.5,398.9,611.2,398.7,611.2,398.7z"/>
	<path d="M549.2,415.6c-2.9,1.4-5.8,2.7-8.6,4.2c-2.8,1.5-5.5,3.3-7.5,5.8l-0.2-0.4l1.4-0.2c-0.3,0,2.3-0.5,5.4-1.3
		c-2.2,0.6-4.5,1-6.8,1.3l0.4,0.7c1.5-2,3.6-3.5,5.5-4.7c2-1.2,3.9-2.1,5.5-2.9C547.4,416.6,549.4,415.6,549.2,415.6z"/>
	<path d="M539.6,423.6c6.4-1.6,12.3-3.8,15.7-5.2C552,419.7,544.8,422.4,539.6,423.6z"/>
	<polygon points="584.7,408.4 578.9,410.4 565.2,415.4 	"/>
	<path d="M523.8,418.6c0,0-1.3,0.5-3.2,1.4c-1.9,0.9-4.5,2-7,3.2c-2.6,1.2-5.1,2.3-7.1,3.1c-1.9,0.8-3.3,1.3-3.3,1.3
		c-2.1,1,3.7-1,11.3-4.6c2.4-1.2,5.5-2.6,7.7-3.6C524.3,418.5,525.4,418,523.8,418.6z"/>
	<path d="M587.7,394.9c-5.7,2-6.2,2.1-9.4,3.1l-0.4,0.8L587.7,394.9z"/>
	<path d="M526.7,419.1c-0.5,0.3-2.7,1.1-5.1,2.3c-2.5,1.1-5.3,2.5-7.2,3.4c-2,0.9-3,1.5-2,1c1-0.4,4.2-1.9,10.7-4.7
		C525,420,545.9,411.5,526.7,419.1z"/>
	<path d="M469.4,415.4c0,0-1.3,0.7-2.5,1.4c-1.2,0.7-2.5,1.5-2.5,1.5l1.2,0.4c0,0,0.9-0.8,1.9-1.7
		C468.4,416.2,469.4,415.4,469.4,415.4z"/>
	<path d="M421.9,420.3c-4.9,3-7.9,4.9-9.9,6.1c-0.2,0.1-0.3,0.2-0.4,0.3c-0.2,0.1-0.4,0.2-0.5,0.2c-0.5,0.2-0.9,0.4-1.2,0.6
		c-0.7,0.4-1.1,0.7-1.4,1c-0.6,0.5-0.9,0.8-1.7,1.6c-0.4,0.4-0.8,0.9-1.4,1.8c-0.6,0.8-1.2,2-1.7,3.6l-1.1,3.5l3.7-0.6
		c1.9-0.3,4.5-0.8,7.9-1.7c3.3-1.2-2.6,0.8-7.9,1.5l-3.3,0.4l1-3.2c0.4-1.3,1-2.5,1.6-3.4c0.7-1,1.4-1.7,1.9-2.1
		c0.5-0.5,0.9-0.7,0.9-0.7c0,0-0.3,0.2-0.9,0.8c0.9-0.8,1.8-1.5,2.8-2c0.5-0.3,1-0.5,1.4-0.7l0.3-0.1c0.1,0,0.1,0,0.1-0.1l0.5-0.3
		c1.5-0.9,2.9-1.8,4.1-2.6c2.5-1.6,4.5-2.9,5.8-3.7C425.2,418.9,425.3,418.7,421.9,420.3z"/>
	<path d="M407.4,430.2c-1.5,1.4-2.7,3.3-3.3,5.5l-0.8,2.9l2.8-0.6c0.8-0.2,1.8-0.3,2.8-0.6c-1.6,0.3-2.9,0.5-2.8,0.6l-2-2.3
		c0.5-1.8,1.3-3,1.9-3.8C406.6,431,407.1,430.5,407.4,430.2z"/>
	<polygon points="144.6,387.8 130,396.8 139.6,391.2 	"/>
	<path d="M117.4,406.6c0,0-0.9,0.5-1.8,1c-0.9,0.5-1.8,1-1.8,1s-2,1.8-3.8,3.7c-0.5,0.5-0.9,0.9-1.4,1.5c-0.5,0.5-1,1.3-1.3,2.1
		c-0.3,0.8-0.3,1.5-0.2,1.9c0,0.4,0.1,0.6,0.1,0.6c-0.1-0.6-0.1-1.5,0.2-2.5c0.3-0.9,1-1.6,1.5-2.1c0.5-0.5,1-0.9,1.5-1.4
		c0.5-0.5,1-1,1.6-1.4C114,409,116.1,407.4,117.4,406.6z"/>
	<path d="M443.3,360.6c0,0,0,0.1-0.2,0.3c-0.1,0.2-0.3,0.4-0.3,0.4c0.1-0.1,0.2-0.2,0.3-0.2l0.2-0.1c0,0,0.1-0.1,0.1-0.1
		c0.1-0.1,0.2-0.2,0.2-0.2c0,0,0,0,0,0c0,0,0,0,0.1,0l0.1,0.1l0.2,0.1c0.2,0.1,0.3,0.1,0.5,0.2l2.8,3.9c-2.4,0.5-5.7,1.4-11,3.6
		c3.7-1.4,7.4-2.6,11-3.3l-2.9-4.2c-0.6-0.1-1.4-0.6-1.2-0.5c0,0,0,0-0.1,0.1L443.3,360.6z"/>
	<polygon points="378.9,375.7 375.4,377.6 382.3,374.5 	"/>
	<path d="M299.8,400.8c-2.4,1.4-4.9,3-7.5,4.7l-4.6,3l4.5,3.2c0.6,0.4,1.3,0.8,2.3,1c0.9,0.2,2,0.1,2.8-0.2c0.8-0.3,1.4-0.6,1.9-1
		c0.1-0.1,0.2-0.2,0.3-0.3l0.2-0.2l0,0c0.8-0.3,1.6-0.7,2.4-1c1-0.4,2.1-0.9,3.1-1.3c2-0.9,4-1.8,5.9-2.7c-2.3,1.1-4.4,2-6.5,2.9
		c-1,0.4-2,0.8-2.9,1.2c-0.9,0.3-2.2,0.8-2,0.8l0,0c0,0-0.1,0.1-0.2,0.2c-0.1,0.1-0.2,0.2-0.4,0.3c-0.5,0.4-1.1,0.7-2,1
		c-0.8,0.2-1.8,0.3-2.7,0.1c-0.9-0.2-1.5-0.6-2-1l-4.3-3.1l4.5-2.7C298.3,402,301.2,400.5,299.8,400.8z"/>
</g>
</svg>
