<?xml version="1.0" encoding="utf-8"?>
<!-- Generator: Adobe Illustrator 26.0.2, SVG Export Plug-In . SVG Version: 6.00 Build 0)  -->
<svg version="1.1" id="Objects" xmlns="http://www.w3.org/2000/svg" xmlns:xlink="http://www.w3.org/1999/xlink" x="0px" y="0px"
	 viewBox="0 0 800 800" style="enable-background:new 0 0 800 800;" xml:space="preserve">
<style type="text/css">
	.st0{fill:#CCCCCC;}
</style>
<g>
	<path class="st0" d="M473.9,486.7c0,0.1,0.1,0.1,0.1,0.2l-7,1.7c0.9-4.6,0-2.9,0-3.6c-0.3,1.8-0.4,2.9-0.5,3.7l8-1.9
		C473.1,484.3,473.9,486.9,473.9,486.7z"/>
	<polygon class="st0" points="427.1,426.8 428.2,427.8 420.7,419.3 	"/>
	<path class="st0" d="M449.2,446.1c-1.9-2.8-6.4-7.4-11.7-12.5c-2.6-2.5-5.5-5.2-8.2-7.7c-2.8-2.5-5.4-5-7.7-7.3l-1.4-1.6l-2.5-1.8
		l-1.2-0.9l-0.6-0.4c-0.2-0.2-0.5-0.4-0.8-0.6l0,0l0,0c3,2.7,6.2,5.7,9.5,8.6c3.2,2.9,6.4,5.8,9.5,8.7
		C440.2,436.5,445.6,442,449.2,446.1z"/>
	<path class="st0" d="M472.6,475.7c-1.2-2,5.7,6-5.7-6.7c0.5,0.7,0.7,0.9,1,1.3C468.9,471.3,470.3,472.9,472.6,475.7z"/>
	<path class="st0" d="M467.9,470.2C462.9,464.6,470.8,474.1,467.9,470.2L467.9,470.2z"/>
	<path class="st0" d="M489.3,496.8c0,0-1.5-1.9-2.9-3.9c-0.7-1-1.5-1.9-2-2.6c-0.6-0.7-1-1.2-1-1.2c0.6,0.8,2,3,3.1,4.6
		c1.1,1.7,1.8,2.8,0.8,1.5c1.4,2,2.5,3.4,3.2,4.3c0.7,0.9,1.1,1.3,1.1,1.3C491.7,500.9,490.7,499.2,489.3,496.8z"/>
	<path class="st0" d="M495.5,504c0,0-0.8-1-1.6-2c-0.8-1-1.6-2-1.6-2C492.7,500.7,493.4,501.8,495.5,504z"/>
	<path class="st0" d="M485.9,491.3c0,0,1.6,2.1,3.2,4.3c1.6,2.2,3.2,4.3,3.2,4.3c-0.7-1.2-0.4-1.5-2.9-4
		C490.1,496.5,488.7,494.9,485.9,491.3z"/>
	<path class="st0" d="M482.4,486.5c-3.2-4.4-7.6-9.9-1.1-2.5c-5.9-7.2-8.8-10.1-8.5-9.5C473.1,475.1,476.5,479.2,482.4,486.5z"/>
	<path class="st0" d="M452.6,448.2l-4.8-5.6l-4.8-4.5C445.5,440.3,452.7,448.7,452.6,448.2z"/>
	<path class="st0" d="M482.2,471.2c-0.6-0.4,1.4,2.9,1.6,3.7l4.5,5.7C486.2,477.5,482.2,471.8,482.2,471.2z"/>
	<path class="st0" d="M483.8,474.9l-6.7-8.5C482.7,474.2,483.9,475.5,483.8,474.9z"/>
	<path class="st0" d="M497.6,504.8c0,0-0.8-0.9-1.8-2.2c-1.1-1.3-2.5-3.1-3.8-4.9c-1.3-1.8-2.7-3.5-3.7-4.9c-1-1.3-1.7-2.2-1.7-2.2
		s0.8,1,2,2.6c1.2,1.6,2.8,3.7,4.4,5.8c1.6,2.1,3.3,4.2,4.7,5.8c1.4,1.5,2.3,2.5,2.3,2.5s-0.6-0.7-1.2-1.3
		C498.2,505.5,497.6,504.8,497.6,504.8z"/>
	<polygon class="st0" points="457.9,438 461.9,442.7 454.8,434.3 	"/>
	<path class="st0" d="M441.6,416c3,3.4-3-5.4,0.1-1.6c-4.4-6-8.5-10.9-12.2-15.3C433.2,403.9,437,409.1,441.6,416z"/>
	<path class="st0" d="M423.3,391.6c1.9,2.4,3.9,4.8,6.1,7.5C427.5,396.5,425.5,394,423.3,391.6z"/>
	<path class="st0" d="M466.3,451.5c-0.4-0.7-1-2.2-4.5-7.2l1.9,3.7C464.5,449.2,465.4,450.3,466.3,451.5z"/>
	<path class="st0" d="M463.8,448.2l-0.1-0.1c-2.7-3.7-4.6-6.3-5.4-7.4C459.1,441.7,460.7,443.9,463.8,448.2z"/>
	<path class="st0" d="M466.9,452.4c-0.2-0.3-0.4-0.6-0.6-0.9C466.5,451.9,466.6,452.1,466.9,452.4z"/>
	<path class="st0" d="M493.3,489.5c-4.1-4.9-12.3-15.4-5.1-4.8C491.2,488.2,487.1,482.1,493.3,489.5z"/>
	<path class="st0" d="M469.3,457l6.6,9.3c0-0.3-1-2,1,0.4L469.3,457z"/>
	<polygon class="st0" points="465.8,452.6 469.3,457 466.9,453.6 	"/>
	<path class="st0" d="M434.5,407.7c-3.2-3.9-6.4-8.2-10.1-13.1c3.8,5.3,7.7,10.9,11.5,16.1C436.6,411.2,438.6,413.4,434.5,407.7z"/>
	<path class="st0" d="M448.7,427.4c-0.2-0.3-0.5-0.6-0.7-0.9C448.3,427.1,448.6,427.6,448.7,427.4z"/>
	<path class="st0" d="M386.6,347c0.2,0.3,0.4,0.5,0.6,0.8c0.1,0,0.1,0.1,0.2,0.1L386.6,347z"/>
	<path class="st0" d="M436.5,411.6c2.8,4,4.7,6.3,6.5,8.5c-2.2-2.9-4.6-6.1-7-9.5C435.6,410.3,435.5,410.3,436.5,411.6z"/>
	<path class="st0" d="M412.9,378.2c1.5,2.1,3.1,4.5,4.9,7C416.5,383.1,413.7,378.9,412.9,378.2z"/>
	<path class="st0" d="M447.2,425.1c0.2,0.2,0.3,0.4,0.5,0.6C446.8,424.3,446.8,424.5,447.2,425.1z"/>
	<path class="st0" d="M447.2,425.1c-1.6-2-2.9-3.5-4.2-5.1c1.8,2.4,3.5,4.6,5,6.5C447.7,426,447.4,425.5,447.2,425.1z"/>
	<path class="st0" d="M370.5,335.6c1.1,0.3,10.8,9.5,17.6,18.5c7.5,8.3,4.6,1.7-0.9-6.3c-0.2-0.1-0.4-0.1-1.5-1.1
		c-1.1-1-3.1-3.1-7.2-7.3c1.3,1.5,5.5,6.4,8.3,10c2.9,3.6,4.6,6,1.2,2.5c-5.1-5.7-7.2-8-8.6-9.6c-1.4-1.6-2-2.6-4.4-5.4
		c1.9,2.5-1.7-0.9-5.6-4.5c-3.9-3.6-7.9-7.6-7.3-6.1c0,0,2.4,2.4,4.7,4.8c2.4,2.4,4.8,4.8,4.8,4.8
		C371.6,336.2,368,332.8,370.5,335.6z"/>
	<path class="st0" d="M401.2,364.6l3,3.6c-3.3-4.2-5.4-7.4-9.6-13c-5.3-5.9-6.6-7-7.2-7.3c0,0,3.9,4.4,7.6,8.9c3.7,4.5,7.3,9,7.3,9
		L401.2,364.6z"/>
	<path class="st0" d="M417.1,384.9c-2.8-2.6-9.8-11.4-6.3-5.6c8.3,10.9,6.3,7.4,11.4,13.8c-13.4-17.7,4.1,4.9-5.1-8.1
		c2.7,3.4,5.1,6.5,7.3,9.5c-2.3-3.2-4.5-6.4-6.6-9.3c0.1,0.2,0.2,0.3,0.3,0.4l0.1,0.1l0,0c0.5,0.8,0.6,1.1,0,0.2
		c0-0.1-0.2-0.3-0.3-0.4C417.7,385.5,417.4,385.2,417.1,384.9c-3.8-5.2-0.5-0.9,0.8,0.7c0.1,0,0.2,0.2,0.2,0.2c0,0,0,0,0-0.1
		c0,0-3.4-4.4-6.9-8.8c-3.5-4.3-7-8.7-7-8.7C407.1,371.9,410.7,376.6,417.1,384.9z"/>
	<path class="st0" d="M479.9,475.9c-0.4-0.6-0.3-0.6-0.3-0.6C478.7,474.1,478.3,473.7,479.9,475.9z"/>
	<path class="st0" d="M474.9,468.4c1,1.3,2,2.2,5.1,6.5c2.5,3.7-0.3,0.1-0.3,0.4c2,2.5,6.9,8.7,1.4,0.5l-1-1.2
		c-5.1-7.3-11.1-16.9-10.1-15.7C470.9,461.3,471.9,463.3,474.9,468.4z"/>
	<path class="st0" d="M445.5,426.2l-11.1-14.7l5,7.8l0-0.5C445.4,427.3,444.5,425.3,445.5,426.2z"/>
	<path class="st0" d="M385.5,345.3l2.2,1.5c0,0-2-1.9-4-3.8c-2.1-1.9-4.1-3.7-4.1-3.7s1.5,1.5,3,3
		C384,343.7,385.5,345.3,385.5,345.3z"/>
	<polygon class="st0" points="368.7,327.5 369.8,327.8 365.2,323.3 	"/>
	<path class="st0" d="M367.7,263.9l3.8,4C369.7,266,368.5,264.8,367.7,263.9z"/>
	<path class="st0" d="M341.2,234.3l-0.9-0.6C341.6,235,342.2,235.4,341.2,234.3z"/>
	<path class="st0" d="M358.7,277.5c-2.9-2.9-6-5.9-8-8.1c-2.1-2.2-3.2-3.6-3.2-3.1c0,0,0.3,0.5,0.5,1c0.3,0.5,0.6,1,0.6,1
		C352.5,272.1,356,274.9,358.7,277.5z"/>
	<path class="st0" d="M532.1,476c0.3,0.7,0.7,1.3,1.1,2c1.3,1.5,2.5,2.8,3.8,3.9C535.3,480.3,533.7,478.2,532.1,476z"/>
	<path class="st0" d="M526.8,472.4c0,0-0.3-0.6-0.7-1.4c-0.4-0.8-1-1.9-1.7-3c-1.2-2.2-2.6-4.4-2.6-4.4
		C523,465.6,524.7,468.3,526.8,472.4z"/>
	<path class="st0" d="M519.9,420.9l5,4.3C517.9,418,520.7,421.3,519.9,420.9z"/>
	<path class="st0" d="M505.2,489.2c4.4,5.3,7.8,9.5,10.9,13.2c-2.5-3.3-4.8-6.2-6.6-8.6C507.6,491.5,506.2,489.8,505.2,489.2z"/>
	<path class="st0" d="M351.5,255.8c2.3,2.5,3.4,3.5,3.4,3.4C352.5,256.6,351.2,255.1,351.5,255.8z"/>
	<path class="st0" d="M528.9,517.4c-0.6-0.9-1.3-1.8-2.1-2.7c-3.4-3.8-6.7-7.6-10.7-12.3c1.9,2.4,3.9,5,6.1,7.5
		c1.1,1.3,2.2,2.6,3.3,3.8C526.6,515,527.8,516.2,528.9,517.4z"/>
	<path class="st0" d="M546.3,426.7c-0.3-0.5-0.6-1.1-0.8-1.5C545.4,425.1,545.8,425.7,546.3,426.7z"/>
	<path class="st0" d="M414.3,243.8c1.6,1.7,4,4.4,6.3,7C419.6,249.6,417.7,247.4,414.3,243.8z"/>
	<path class="st0" d="M403.2,377.5C399.7,373.8,402.6,377,403.2,377.5L403.2,377.5z"/>
	<path class="st0" d="M388.3,357.7c0.8,0.8,1.4,1.3,1.6,1.4C389.5,358.8,389,358.4,388.3,357.7z"/>
	<path class="st0" d="M510.7,483.1c-0.1-0.1-0.1-0.2-0.2-0.4C511.2,484,511.1,483.8,510.7,483.1z"/>
	<path class="st0" d="M398.2,371.7c1.3,1.5,2.7,3.1,4.4,4.9C401.8,375.8,400.5,374.3,398.2,371.7z"/>
	<path class="st0" d="M398.6,372.6c-1.2-1.3-2.1-2.4-3-3.3C395,368.9,395.4,369.3,398.6,372.6z"/>
	<path class="st0" d="M408.2,382.8c-2-2.1-3.9-4.2-5.7-6.1c0.7,0.8,0.9,1.1,0.7,0.9C404.3,378.6,405.8,380.2,408.2,382.8z"/>
	<path class="st0" d="M372.2,227c-0.2-0.3-0.5-0.6-0.7-0.8C367.7,222.5,369.3,224.1,372.2,227z"/>
	<path class="st0" d="M416.9,351.1c-0.2-0.2-0.3-0.3-0.4-0.4c0.2,0.2,0.4,0.4,0.5,0.6L416.9,351.1z"/>
	<path class="st0" d="M429.9,364.4c-6.1-5.4-9-8.7-12.9-13.2l2.6,5.5L429.9,364.4z"/>
	<path class="st0" d="M435.2,332.1l-8.9-9.5c12.2,10.5,20.1,18.9,11.9,9.7c-1.5-0.1-10.7-9-19.9-17.9c-9.2-8.9-18.2-17.9-19.7-18
		l-5.7-6.4c1.7,1.8,2.1,2,3.8,3.7c-5.5-6.2-7.9-8.3-10.9-10.7c-2.9-2.4-6.4-5.2-13.6-13.2c-4.9-5.6-8.1-9.6-4.5-6c0,0-2.9-3-5.7-6.1
		c-1.4-1.5-2.8-3.1-3.9-4.2c-1-1.2-1.7-1.9-1.7-1.9c-3.1-3.7-2-3,1,0.7c0,0-1-1.2-2.5-3c-1.5-1.8-3.6-4.2-5.8-6.6
		c-1.1-1.2-2.2-2.4-3.3-3.5c-1.1-1.1-2.2-2.1-3-2.9c-1.6-1.6-2.7-2.8-2.7-2.8l0.2,0.1c-1-1-2.5-2.5-4.3-4.5l-4.6-5.1l-0.7,6.7
		c-0.1,0.7,0.1,0.9,0.2,1.1c0.1,0.2,0.2,0.3,0.3,0.5c0.2,0.2,0.3,0.4,0.5,0.6c0.3,0.4,0.7,0.7,1,1c0.7,0.6,1.4,1.2,2.1,1.8
		c1.4,1.1,2.7,2.1,3.8,2.9c0.1,0,0,0,0,0c0,0,0,0,0,0c0,0,0,0,0,0c1.2,1.3,1.5,1.7,1.3,1.6c-0.1-0.1-0.3-0.3-0.6-0.5
		c-0.3-0.3-0.6-0.6-0.9-0.9l-0.1-0.1c0,0,0,0,0,0c0,0,0,0,0,0c-0.9-0.7-1.7-1.3-1.3-0.8c0.4,0.3,0.8,0.6,1.2,0.9c0,0,0,0,0,0
		c0,0,0,0,0,0l0.1,0.1l9,8.6c1.6,2,0.8,1.4-1.2-0.4c-1-0.9-2.3-2.1-3.7-3.5c-0.7-0.7-1.5-1.4-2.2-2.2c-0.7-0.7-1.5-1.5-2.3-2.3l0,0
		c0,0,0,0,0,0c-0.8-0.6-1.7-1.3-2.4-2c0.7,0.8,1.4,1.6,2.1,2.2c0,0,0,0,0,0c0,0,0,0,0,0.1c0.1,0.1,0.3,0.4,0.5,0.6
		c0.2,0.2,0.4,0.4,0.5,0.7c0.4,0.4,0.7,0.8,1,1.2c0.7,0.8,1.3,1.5,2,2.1c1.3,1.4,2.7,2.6,4.5,4.3c1.7,1.6,3.9,3.6,6.6,6.4
		c2.7,2.8,5.9,6.5,9.9,11.4c0,0-2.2-2.4-4.5-4.9c-2.3-2.4-4.6-4.8-4.6-4.8c4.8,6.9,12,14.4,20.7,26.3c-0.9-1.5-5.2-7.5-8.1-11.6
		c-2.9-4.1-4.3-6.5,0.8-0.9c2.6,3.3,6.2,7.7,11.6,13.8c-0.6,0.4,4.5,6.5,10.7,14.4l-1.3-0.1c6.9,8.3,6.8,7.4,11.1,12.2
		c7.4,9.5,8.4,11.8,9.6,14.3c12,15.1-7.3-11,7.2,6.7c9.8,12.6,17.2,21.2,29.9,35.7c6.8,8.9-1.7-1.2,0.6,2l6.9,7.3
		c1.5,1.9,0.8,1.4,0.5,1.2c5.5,6.4,1.3,0,9.8,10.1c3.2,2.2,15.7,21.8,26.8,33.9c2.2,3.3-1.7-1.2-1.3-0.1
		c14.5,17.1,12.3,14.7,24.4,28.7c0,0,2.2,3.2,4.4,6.4c2.2,3.2,4.2,6.4,4.2,6.4c-6-9.5,3.6,1.6,10.3,12.4c-1.8-3.6-3.1-6.7-4.2-8.7
		c0,0,0.7,1.1,1.7,2.7c1,1.6,2.3,3.8,3.7,5.9c1.4,2.1,2.9,4.1,4.3,5.5c1.3,1.4,2.3,2.3,2.3,2.3c1.7,1.8-0.2,0.6-2.8-1.6
		c1,1,2.1,1.9,2.9,2.6c5.3,5.3,1.9,3-2.5-0.4c-1.7-1.9-3.1-4-4.3-6.1c-3.3-3.9-6.1-7.8-6.1-6.6c0.8,1.1,2.1,3.2,3.6,5.6
		c-0.8-1-1.4-1.7-1.2-1.1c0.3,0.6,1.5,2.4,3.8,5c0,0,0.5,1.1,1.1,2.1c0.6,1,1.2,2.1,1.2,2.1l1.2,0.6c0,0,1.2,1.2,3.1,3
		c0.9,0.9,2,1.9,3.1,3c1,1.1,2.2,2.4,3.3,3.7c4.4,5.1,8.8,10.3,8.8,10.3c1.6,1.5,3.1,3,4.7,4.5c0.8,0.7,1.7,1.5,2.2,2.1
		c0.6,0.7,1.2,1.5,2.1,2.5c0.2,0.2,0.3,0.3,0.5,0.5c0.2,0.1,0.4,0.3,0.5,0.3l0.1,0.1l0,0c0,0,0,0,0.1-0.1c0.2-0.1,0.2-0.1,0,0
		l4.4-1.5c-1.4-3.8-4.5-6.2-7-8.9c-2.7-2.8-5.6-5.6-8.7-8.5c-3.1-2.9-6.5-6.1-10.1-9.5c-3.6-3.4-7.3-7.2-11.4-11.3
		c6,5.1,2.2,0.5,3.3,0.3c2.5,3.3,6.8,7.6,11.8,12.4c5.1,4.8,11,10.2,16.2,16.4c-2.7-3.2-3.7-4.5-3.8-4.8c-0.1-0.3,0.7,0.3,1.5,1.1
		c0,0-1.3-1.3-3.2-3.2c-1.9-1.9-4.5-4.4-7.2-6.9c-2.6-2.5-5.2-5-7.2-6.8c-1.9-1.9-3.2-3.1-3.2-3.1c1.1,0.1-3.8-4.7-8.7-10.2
		c2.7,4.9-15.7-14.8-24.2-22.9c-0.1-0.8,2.3,0.9,12.1,11.2c-10-11.9-15.6-13.6-25.5-25.2c2.4,2.5,3.7,3.9,4.8,4.7
		c-6-5.6-19.5-20-15.9-16.9l2.4,2.5c-7.9-8.3-20.2-20.9-30.7-31.7c-10.5-10.8-19.4-19.9-21.1-20.8c0-0.3,3.3,1.4,4.5,2.3
		c0,0-7.9-6.9-15.8-13.8c-7.8-7-15.6-13.9-15.6-13.9c3.4,2.1-3.8-9.5,9.6,4.2c-3.6-4.1-8-9.2-16-17.5c2.3,2.9,4.9,7.7,1.4,4
		c-8.3-11-5.9-7.5-16.4-20.9c3.5,4.3-2.1,0.6-7.8-6.1c1.1,0.9,1-1.4,3.2,0.9c0,0-3.9-3.9-7.8-7.8c-3.9-3.9-7.7-7.9-7.7-7.9
		c3.7,4.1,1.8,0-0.8-4c1.1,1.9-11.8-14.6-15.6-19l5.5,7.3c-1.4-1.7-2.6-3.2-3.8-4.6c-1.2-1.4-2.2-2.6-3.2-3.8
		c-1.9-2.3-3.3-4.3-4.3-6.2l-3.7,1.8c2.9,3.4,5.9,5.6,9.6,8.4c1.8,1.4,3.9,2.9,6.2,4.8c2.3,1.9,4.7,4.2,7.5,7c-1.2-1-3-2-3.3-1.6
		c-0.4,0.4,0.7,2,4.9,6.6c4.7,3.6,20.5,16.6,34.8,32.9l2.2,3.5c0,0,2.7,3.1,5.4,6.3c2.7,3.2,5.4,6.3,5.4,6.3
		c-3.7-3.7-10.7-10.9-18.2-18.5c-7.6-7.5-15.6-15.6-21.3-21.3c5.7,7.1,1.2,2.2,10.2,12.7c2.8,3.9-5.5-5.4-8.2-8.4
		c0,0,5.2,6.1,10.3,12.3c5.1,6.1,10.1,12.4,10.1,12.4c0-0.8,4.1,3.8,8.1,8.5c4,4.7,8,9.4,8,8.7c0,0-5.5-6.7-11.2-13.3
		c-5.7-6.6-11.5-13.2-11.5-13.2c0-1.6,15.5,13.9,29,32c3.1,4.8-4.2-2.5-4.2-2c2.1,2.1,13.5,16.7,14.5,18.5l-6.2-7.4
		c7.2,10.2,13.4,15.8,21.5,28.4c3,4.2,8.1,13.1,9.1,13.6c-4-7.4-1.9-10.4,2.2-6.3c1,1.5,15.3,22.5,18.3,27.6
		c4.3,7.3-9.5-9.3-5.9-3.1c0.4,0.1,3.5,3.8,4.8,5.3c3,4.5-2-1.5,4.9,8.2c2.1,1.1,13.3,20,3.9,4.2c6.7,9.5,6.6,10.3,14,21.7
		c-1.8-3.9,8.6,9.2,15.2,18.7c-0.6-0.5,0.5,1.9,1,3c4.9,7.7,8.9,14,12.6,20c1.9,3,3.3,6,5,9c0.8,1.5,1.7,3,2.6,4.5
		c0.4,0.8,0.8,1.6,1.3,2.3c0.3,0.4,0.5,0.8,0.9,1.1c0.2,0.2,0.4,0.4,0.6,0.5c0.3,0.1,0.6,0.3,1.2,0.2l0.7-0.1l-0.2-0.5
		c-0.6-2.1-1.8-4-3.3-5.8c-1.5-1.8-3.1-3.6-4.8-5.6c-1.1-1.7-7.9-10.1-4.5-6.8c-2.2-2.4-4.5-4.4-9-9.7c-4.1-5.3-1.4-2.4,1.4,0.8
		c2.8,3.2,5.9,6.7,3,2.6c-0.6-0.2-3.5-3.5-7.5-7.6c-3.9-4.1-8.5-9.1-11.9-12.7c1.2,2.8,15.1,17.1,21.7,24.5c-0.5,0.3-3.9-2.6-9-7.8
		c-5.3-5.1-12.5-12.5-20.5-21.1c-3.2-3.5-5-5.6-6.1-6.9c-1.1-1.3-1.4-1.7-1.3-1.8c0.1-0.2,1.6,1.1,0.4-0.1
		c-23.1-26.4-21.1-21.6-40.1-43.6c-7.2-8.9,1-1.2-0.3-3.4c10.7,11,15.3,17.6,22,25.4l-8-9.8c3.4,3.5,10.2,11.1,13.6,15.4
		c-2.9-3.8-12.3-15.2-23.9-27.7c-11.5-12.6-25-26.5-34.1-36.5c-3.6-3.4-9.5-9.3-7.1-6.2l6,6.2c4.9,6.1-11.9-11.3-4.7-3.2
		c-8.3-8.2-17.9-17.2-28.1-29.7l-1.2-2.8c0,0.4,6.4,8.4,9.7,11.6c-2.5-2.4-6.3-7.2-10.1-12.1c-3.8-4.9-7.7-9.9-10.6-12.4l6.7,9
		c-6.6-7.3-14.5-15.9-23-24.5l5.8-3.2c0.8,1.6,2.1,3.2,3.5,4.9c-1.1-1.6-1.6-2.5-2-3.1c-0.4-0.6-0.7-1.1-1.1-1.9l-6.5,3.5
		c0.8,0.9,2.1,2.3,4.3,5.3c-2.4-3.6,3.8,3.1,9.2,9.6c5.4,6.5,10.4,12.5,6.5,6.7c5.5,8.6,11.1,14.2,19.5,24.9c0-0.5-2.8-3.9,5.3,5.1
		c0.4,0.4,1.4,1.2,2,1.8c0.2,0.3,0.3,0.4,0.5,0.6c-0.2-0.2-0.3-0.3-0.4-0.5c0.4,0.4,0.4,0.4-0.2-0.2c-1.9-2.2-3.3-4-3.8-4.8
		c4.6,4.1,17.9,18.1,22.7,22.6c4.9,5.3-2.4-2,0.1,1l7.2,6.8c0.1,1.1,12.3,14.4,0.2,2.4l10.5,11.1c5.8,6.7,14.1,15.8,19.3,21.3
		c4.6,5.4,12.4,13.2,7.9,8.8l15.9,17.7l0,0.3c7.8,8.8,16,17.6,24.4,26.9c8.5,9.2,16.7,19.1,24.9,29.6c2,2.2,3.9,4.2,4.8,6.8l3.4-1.7
		c0-0.1,0-0.1,0.1-0.3c0.1-0.2,0.2-0.3,0.4-0.6c0.2-0.3,0.5-0.6,0.8-0.8c0.5-0.5,0.3-0.3,0.4-0.3c-0.1,0-0.2-0.2-0.4-0.4
		c-0.3-0.4-0.7-0.9-1-1.5c-0.2-0.3-0.4-0.6-0.5-0.9l-0.4-0.6l-0.3-0.5c-0.4-0.6-0.8-1.2-1.2-1.9c-1.6-2.7-3.1-5.8-5.2-9.4l-0.8-2.4
		c-5.6-8.3-15.7-25.4-18.6-28.7c-2.3-4.8-8.7-15-15.8-25.8c-3.6-5.4-7.4-10.9-10.9-16c-3.6-5.1-7-9.5-9.6-13.1l-1.1-0.2
		c-7.2-9.8-14.3-19-23.5-30.9l0,1.1c-8.2-10.1-19.2-27.1-32-43.3c1.1,1,4.2,5.1,6.3,8.1c-6.8-10.1-15.1-20.2-23.5-29.9
		c-4.2-4.8-8.4-9.6-12.5-14.2c-4-4.6-7.9-9.1-11.4-13.5c-4-4.1-6.8-7.1-9.5-10c0.4,0.4,0.7,0.7,1,1c-0.4-0.4-1-1-1.7-1.7
		c-1.7-1.8-3.5-3.7-5.5-5.7c1.7,1.7,3.2,3.4,4.6,4.8c-1.6-1.5-3.6-3.5-6-5.5c-2.4-2-5-4.1-7.4-6.2c0,0-0.3-0.6-0.7-1.1
		c-0.3-0.6-0.7-1.1-0.7-1.1c-0.4-0.4-0.6-0.6-1-1c-1.9-2.3-2.6-3.2-2.8-3.2c-0.2,0,0.2,1.1,1,2.4c-0.8-0.8-1.4-1.6-1.9-2.2l-5.1,2.4
		c1,2.1,2,3.6,3,4.7c0.5,1.2,1.4,2.7,2.6,4.2c1.2,1.5,2.6,3.1,4,4.8c2.9,3.4,5.9,7,7.5,10c1.6,1.5,6.7,7.7,12,13.7
		c5.3,6,10.7,11.7,12.4,12.7c0,0.3,1.2,1.7-1.1-0.9c4.6,5.5,9.2,10.9,13.8,15.6l1.3,2.8l11.5,11c5.9,7.3,8.4,10.4,1.4,3.8
		c16.4,16.3,12.9,13.5,27.1,27.1l-1.1-0.4c4.8,5.1,13.1,12.8,15.5,16.1c4.8,6,18.3,19.9,33.9,36c15.6,16.1,33.3,34.4,46.8,49.1
		c-4-6.5,12.3,13.8,14.6,14.2c1.3,1.9,5.1,6,0.2,1.6c5,4.8,9,8.9,12.3,12.7c1.6,1.9,3.2,3.7,4.7,5.5c1.4,1.7,2.6,3.3,3,4.9l6.8-2.3
		c-0.2-0.8-0.9-1.5-1.4-1.8l-0.3-0.2c-0.1,0-0.1-0.1-0.1-0.1l-0.3-0.4l-0.4-0.5l-0.8-1.1c-0.3-0.4-0.7-0.8-1.1-1.2
		c-0.3-0.3-0.7-0.6-1-1c-1.3-1.3-2.7-2.5-4.1-3.9c-1.2-1.9,3.5,2.8,2.3,1.2c-1.2-1.1-4.7-4.5-5.8-6.2c-1.2-1.7,2.3,2,4.6,4.3
		c-7-7.6-11-11.8-13.8-14c-2.8-2.2-4.1-2.4-5.1-2.6c-1.9-1.9-3.5-3.5-4.8-5c-1.4-1.5-2.4-2.9-3.4-4.4c-2-2.8-3.6-5.5-5.9-8.5
		c-0.7-1.6-1.9-3.8-1.9-4.1c-0.1-0.4,1.1,0.9,4.3,6.4c-0.9-1.5-2.6-4.7-5.1-8.4c-2.5-3.7-5.6-8-8.7-12c-6.1-8.1-12-15.4-12.6-15.5
		c-1.2-1.9-6.1-7.9-7.4-9.4c-10-12.7-10.8-13.8-20.8-26.2l2.6,3.5c-4.9-4.3-8.5-10.1-16.7-20l0.3,0.2c-17.8-23.2-8.3-9.6-25.8-32.5
		l0.4,1.6c-3-1.3-15.4-20.3-26.4-33.1l3.4,4.9c-6.2-6.9-14.2-21-19.6-28.4c-1.1-1.6,2.1,2.4,3.9,4.5c-14.1-19.4-2.7-2-14-16
		c-1.6-2.8,3.8,2.7-3.7-6.8c-1.7-2.4-7.6-9.1-14.6-16.6c-6.9-7.5-15.5-15.6-20.9-21.9c2.3,2.9,4.5,5.7-1.7-0.2
		c-0.7-0.7-1.5-1.5-2.2-2.3c-0.7,0.4-1.3,0.8-2,1.3c0.2-0.1,0.4-0.2,0.6-0.4l-0.6,0.4c0,0,0,0-0.1,0l0,0l0,0l0,0
		c0.1-0.1-0.1,0.1,0.1-0.1l1.2-0.9l0.5-0.4l0,0l0,0l0,0l-0.1-0.1l-0.2-0.2l-0.4-0.4c-0.3-0.2-0.6-0.5-0.9-0.7
		c-0.6-0.5-1.2-1-1.7-1.6c-0.6-0.5-1.1-1.1-1.7-1.7c-0.3-0.3-0.5-0.6-0.7-0.8c-0.1-0.1-0.2-0.3-0.3-0.4l0-0.1l0,0l0,0
		c0,0,0.1,0-0.1,0c-0.9,0.4-1.6,0.6-2,0.6l-2.6,1.3c1.8,2.3,3.6,4.7,5.7,7.1c0.5,0.6,1.1,1.2,1.6,1.7c0.5,0.5,1.1,1.1,1.6,1.6
		c1,1.1,2,2.2,3,3.3c3.8,4.4,7.3,8.6,10.4,11.5c1,1.3,1.3,1.8,1.3,1.9c3.4,3.6,8.8,9.5,14.1,15c5.3,5.5,10.4,10.4,12.7,12.4
		c2.1,4,13.2,14.9,23.7,24.8c10.5,9.9,20.2,18.9,19.2,19.4c0,0,5.5,5.4,11,10.7c5.4,5.4,10.8,10.9,10.8,10.9l-0.7-0.4
		c13.4,14.1,18.5,18.9,23.6,23.6c2.9,3.4,0.5,1.1,0.2,0.9c18.9,21.1,20.8,23.2,38.1,40l1.1,2.2c2.4,2.2,9,9.7,17.9,18.8
		c4.4,4.6,9.3,9.6,14.3,14.7c2.5,2.6,4.9,5.2,7.4,7.8c2.6,2.6,5.1,4.9,5.9,7.6l5.4-1.7c-0.1-0.6-0.4-1.1-0.7-1.5
		c0.1,0.2,0.4,0.3,0.8,1.5l-5.7,1.8c-0.1-0.2-0.3-0.7-0.6-1.3c0.2,0.4,0.4,0.9,0.6,1.3l5.9-1.8c-0.4-1.4-1.2-2.3-1.8-3.1
		c-0.3-0.4-0.6-0.7-0.9-1.1c-0.1-0.2-0.2-0.3-0.4-0.5l-0.4-0.6c-1.1-1.6-2.2-3.3-3.4-5c-2.3-3.4-4.7-6.8-7.2-10.2
		c-5.3-6.7-10.9-13.1-16.1-19c-5.2-5.9-9.8-11.4-13.7-16c-3.9-4.5-7.1-8-9.4-9.9c0,0-3.3-3.9-6.6-7.9c-3.2-4-6.4-7.9-6.4-7.9
		c15.7,21.1-3.4-2.5,2.7,6.3c-6.4-8.2-15-22-7.5-11.7l1,1.7c2,1.5-2.7-5.1-7.6-12.2c-4.9-7.1-10.1-14.6-9.4-14.5
		c-7.2-10.6-14.5-21.2-21.6-31.7c-7.2-10.5-14.4-20.9-21.5-31.2c-14.2-20.6-28.8-40.7-45.5-59l2.9,4.8c0,0-2.9-3.2-5.7-6.4
		c-2.9-3.2-5.9-6.3-5.9-6.3c-3-3.4-3.5-4.9,5,4.1c-1.9-2.5-5.6-6.2-9-9.2c-3.3-3-6.2-5.4-6.5-5.4c-17.1-17.1,7.9,5.9,2.5,0.7l-7.3-7
		l1.5,1.7c-2.9-2.5-4.6-3.9-6.8-5.8c-1.1-0.9-2.2-2-3.7-3.4c-1.5-1.4-3.4-3.1-6.3-5l-4,2.5c0.2,0.5,0.7,1.4,1.4,2.3
		c1.4,2,2.5,3,3,3.8c0.6,0.7,0.8,1.1,0.9,1.3c0.2,0.4,0,0.3,1,1.7c0,0,0.1,0.3,0.6,1c0.5,0.7,1.3,1.8,2.7,3.5c0,0,3.2,4.3,6.5,8.5
		c1.7,2.1,3.4,4.2,4.7,5.7c1.3,1.5,2.2,2.5,2.2,2.5s-1.2-1.7-2.5-3.5c-1.2-1.8-2.4-3.5-2.4-3.5c3.2,3.6,6.6,7.4,8.4,9.3
		c1.8,2,2,2-0.8-2c8.3,11.8,52.6,60.8,58.1,67.8c9.4,9.7,18,19.7,28.8,32c-2.5-3.2-3.3-5.5,5.9,5.2c-2.6-1.4,1.5,3.5,7,10
		c5.4,6.5,12,14.7,15,19.5c-2.8-4.2,3.6,3.5,9.6,10.6c6,7.1,11.8,13.5,7.2,7.1c7.5,9-0.2,0.9,5.2,8c9.1,10,19.2,20.9,30,32.3
		c5.4,5.7,11,11.5,16.6,17.4c1.4,1.5,2.8,2.9,4.3,4.4c1.4,1.5,2.9,3,4.4,4.4c1.4,1.5,2.8,2.9,4,4.4c0.3,0.4,0.6,0.8,0.8,1.1
		c0.2,0.3,0.5,0.8,0.7,1.2c0.5,0.9,1.1,1.9,2.4,2.9l4.9,3.7l0.6-5.9c0.1-1.2-0.1-2-0.3-2.8c-0.2-0.8-0.5-1.5-0.9-2.1
		c-0.2-0.2,0.2,1.1,0.2,1.6c0,0.6-0.3,0-2.1-3.1c0,0-0.1-0.3-0.3-0.7c-0.2-0.5-0.5-1.1-0.9-1.9c-0.8-1.6-2-3.5-3.3-5.4
		c-0.7-0.9-1.4-1.9-2.1-2.7c-0.7-0.8-1.3-1.6-1.8-2.3c-1-1.3-1.6-2.2-1.6-2.2c-2-2.5-3.1-3.7-4.5-5.4c-1.4-1.8-2.9-4.2-5.5-9.8
		c0.7,1.6,1.6,4-0.7,0.1c-1-1.8-2.1-3.6-3.2-5.4c-1.2-1.8-2.5-3.5-3.8-5.1c-2.6-3.4-5.5-6.6-8.2-9.8c-2.8-3.2-5.2-6.6-7.4-10.1
		c-0.6-0.9-1.1-1.8-1.7-2.7l-1.9-2.6c-1.3-1.7-2.7-3.4-4.1-5.1l-2.1-2.4l-1.9-2.6l-3.7-5.2c-2.5-3.5-5-6.9-7.5-10.4
		c-5-7-10-13.9-15.1-20.8c-5.2-6.9-10.6-13.6-16-20.4l-8-10.2c-2.7-3.4-5.4-6.8-7.9-10.2c-10.3-13.8-20.8-27.4-31.5-40.9
		c5.6,7.4,1.6,2.6-3.1-2.7c2.9,3.6-0.6,0.3-0.3,1.1c0,0-4.5-5.6-9.2-11.1c-4.7-5.5-9.6-10.9-9.6-10.9c-4.6-3.3-21.8-22.4-24.7-24
		l6.5,6.5c-9.4-8.2,9.8,13.7,7.4,13.2c5.4,4.5,11.3,11.3,17.7,19c6.4,7.7,13.4,16.3,21.2,24.4c2.9,3.9-3-3-1.7-0.8
		c4.1,4,8.5,9.2,16,19.3l-1-1c10.8,13.9,18.5,23.9,26.6,34.3c4,5.2,8.2,10.5,12.5,16.6c4.4,6.1,9.1,12.9,14.7,21l-1.1-2.7
		c4.8,6.9,5.7,8.5,7.8,11.9c3.3,3.7-0.2-1.2-3.7-6.1c-3.5-5-7-10-3.9-6.7c1.3,2.5,4.1,6.7,7.7,11.9c1.8,2.6,3.8,5.4,5.8,8.3
		c0.5,0.7,1,1.4,1.6,2.2c0.6,0.7,1.2,1.4,1.8,2.1c1.2,1.4,2.3,2.8,3.4,4.2c0.5,0.7,1.1,1.4,1.6,2.1l0.8,1.1c0.2,0.3,0.5,0.7,0.7,1
		c0.9,1.5,1.9,3,2.9,4.4c1,1.4,2,2.8,2.9,4.1c1,1.3,2,2.5,2.9,3.7c3.7,4.6,6.5,8,7.3,9.7c4,5.1,3.5,4.2,3.2,3.4
		c-0.2-0.4-0.4-0.9-0.1-0.5c0.3,0.3,1.3,1.3,3,4c0,0,0.3,0.8,0.7,1.5c0.3,0.8,0.7,1.5,0.7,1.5l2.1,2.6c2,3.7,3.4,6.5,4.4,8.5
		c1,2,1.5,3.1,1.4,3.3c-1.2-1.8-3.3-5-4.4-6.9c1.2,2.4,2.9,5.4,5,8.4c1.1,1.5,2.3,3,3.7,4.3c1.2,1.3,2.4,2.6,3.5,3.8
		c1.1,1.3,2,2.6,2.9,3.8c0.4,0.6,0.8,1.2,1.1,1.8c0.2,0.3,0.3,0.6,0.5,0.9c0.2,0.3,0.3,0.6,0.5,0.9c1.2,2.2,1.7,3.8,1.6,4.2
		c0,0,0-0.1,0-0.3c0-0.2-0.1-0.5-0.2-1c-0.3-0.9-0.9-2.2-1.6-3.7c-1.2-2.6-2.9-5.1-2.9-5.1c1.2,1.6,2.3,3.3,3.2,5.1
		c0.5,1,1,1.9,1.4,2.8c0.4,0.8,0.6,1.8,0.6,2.2l5.7-2.4c-0.4-0.3-0.9-1-1.4-1.9c-0.3-0.4-0.5-0.9-0.9-1.4c-0.3-0.5-0.7-0.9-1-1.3
		c-1.4-1.7-2.9-3.3-4.5-4.9c-1.6-1.6-3.1-3-4.6-4.6c-1.5-1.6-3.1-3.1-4.6-4.7c-6.1-6.3-12.4-12.7-18.5-19
		c-6.1-6.3-12.1-12.6-17.9-18.8c-5.7-6.2-11.2-12.2-16.3-18l1.4,2.2c-17.7-19.9-13.2-16.5-32.2-38.7l0.8,0.8
		c-4.1-4.2-9.4-10-14.7-16.1c5.2,5.4-8.5-10.8-1.7-3.8c-19.6-21.4-9.9-10.5-23.5-24.2l-2.4-3.6c-4.7-4.6-5.3-4.9-15-15.8
		c8.3,8.8-5.4-7.5,4,2.3c-19.1-23.7-31-33.6-38.7-45.1c-10.6-9.8,16.7,20.4,11.3,14.6c3.9,5.2-8.6-8.1-14.8-15.5
		c-3.2-3.7-5.5-7.1-9.1-11.8c-3.5-4.8-8.1-11.1-15.2-20.9c0.8,1,1.2,1.5,1.6,2c0.4,0.5,0.8,1,1.5,2c-0.7-1-1.4-2-2-3
		c-0.7-1-1.6-2.1-2.5-3c-1.7-1.8-3.5-3.5-4.4-5.4l-4.9,3c1.9,1.2,3.7,2.6,5.4,4.2c1.7,1.7,3.5,3.5,5.3,5.5c5.4,4,10.7,10.4,13,11.1
		l-16.7-15.8c9.5,9,19.9,16.4,33.5,32.4c-1.3-1.1-5.8-5.6-9-8.6c4,4.7,8.3,8.6,12.2,13.6c-1.1-0.4-5.6-5.5-11.4-11.6
		c-5.8-6.1-12.9-13-18.3-17.6c2.2,2.5,7.2,6.9,10.6,10.3c3.5,3.4,5.7,5.6,2.7,3.5c8.3,6.3,16.5,17.8,27.9,30l-1.3-0.5
		c1.7,2,5.4,6,8.3,9.9l-6.1-6.4c9,10.1,14.9,20.8,22.7,30.9c-7.7-10.9-8.5-12.1-8-11.9c0.5,0.2,2.2,1.9-0.9-2.7
		c10.1,13.1,12.4,17.2,14.9,21.7c2.5,4.5,5.3,9.5,16,24.5c-2.9-4-10.4-15.5-5.6-9.3c3.9,5.8,8.9,13.5,11,17.2
		c13.9,20-1.5-3.4,4.8,4.9c3.9,7.3,7.1,9.7,13.3,18.4l-0.6,0.4c7.7,11.6,9.1,12.9,10.3,14c1.2,1,2.1,1.9,9.2,12.2l-7-8.2l7.8,10.5
		l-2.3-1.8c8.9,11.3,11.5,14.9,20,26c-1.6-2.8,2.2,0.8,10.2,10.4c2.5,3.4,1.6,2.5,1.5,2.6c-0.1,0,0.1,0.2,1,1.3
		c0.9,1.1,2.5,3,5.5,6.3c-3.1-2.8-6.5-5.8-10.8-12.1c-0.7-0.5-2.9-2.8-3.6-3.3c2.7,3.7,6.3,8.1,9.9,12.3c3.6,4.1,7.2,7.8,9.3,10.2
		c-1.6-1.9-3.6-4.1-4.5-5.3c0,0,4.5,4.7,9.1,9.3c2.3,2.3,4.5,4.7,6.1,6.4c1.6,1.8,2.7,3,2.7,3c2.3,3.2,0.1,0.9-2.1-1.4
		c3.4,3.9,5.8,6.5,10.1,12.6c-0.8-0.7-1.3-0.8-2.3-1.9c-1.1-1.1-2.7-3.1-6-7.1c0,0,1,1.1,2.4,2.9c1.4,1.8,3.2,4.1,4.9,6.6
		c1.8,2.5,3.5,4.9,4.8,6.8c0.9,1.1,1.5,1.7,1.8,2.2c0.3,0.4,0.4,0.6,0.4,0.6c0,0.1,0.1,0.3,0.1,0.4l7.7-2.4
		c-0.2-0.9-0.6-2.2-1.2-3.3c-0.6-1.1-1.4-2.2-2.1-3.1c-1.3-1.7-2.1-2.7-1.1-1.7c-2.2-2.4-4.9-5.3-7.8-8.2c-2.9-2.9-6.1-5.9-9.4-9
		c-6.6-6.2-13.6-12.7-19.7-19.4c-0.7-0.6-2.1-1.9-4.9-4.7c-11.6-12.4-21.1-23.9-35.5-38.3l-6.9-9c-11-11.4,9.5,12-8.9-7
		c-13.1-13.4-4-5.5-8.3-10.4c-3.5-3.2-8.2-7.6-13.6-12.7c-5.4-5.1-11.5-10.9-17.3-17.2C428.2,325.2,431.3,328.4,435.2,332.1z
		 M366.5,270.2c-2.5-2.8-7.8-8.1-9.3-10.4C360.7,262.6,362.6,265.3,366.5,270.2z M550.2,497.8c-1-1-2.2-2.3-3.6-3.8
		c-1.4-1.5-2.8-3.2-4.5-5C544.8,491.4,547.4,494.4,550.2,497.8z M442.8,418.4c0.1,0.1,0.2,0.2,0.3,0.3
		C448.6,425,446.6,422.7,442.8,418.4z M431.1,405.5c-1.3-1.2-1.3-1.1-0.9-0.5c1,0.8,3.7,3.6,6.7,6.9
		C436.3,410.9,434.8,409.2,431.1,405.5z M348.2,207.8c0,0-0.5-0.7-0.9-1.4c-0.2-0.3-0.4-0.7-0.6-0.9c-0.2-0.2-0.3-0.4-0.3-0.4
		c0.3,0.3,0.6,0.6,0.8,0.9c0.2,0.3,0.5,0.6,0.7,0.9c0.4,0.5,0.7,1,1,1.3c0.5,0.7,0.7,1,0.7,1.1C349.6,209.4,348.9,208.6,348.2,207.8
		z"/>
	<path class="st0" d="M527.5,472.9c-0.4-1-0.4-1.3-0.4-1.5C526.2,470.2,526.1,470.2,527.5,472.9z"/>
	<path class="st0" d="M518.9,420.1l0.4,0.4c0.3,0.2,0.4,0.3,0.5,0.4L518.9,420.1z"/>
	<path class="st0" d="M470.6,427.7c-2-2.9-3.1-4.5-3.7-5.7C466.6,422,467.4,423.4,470.6,427.7z"/>
	<path class="st0" d="M367.6,337.7l7.2,8.4c-3.5-4.1-4.5-5.7-6.2-7.8C368.6,338.6,369.8,340.4,367.6,337.7z"/>
	<path class="st0" d="M400.2,368.8c1.1,1.2,2.1,2.7,3.2,3.9l0-0.5C399.1,366.8,395.8,363.2,400.2,368.8z"/>
	<path class="st0" d="M363,328.7c-0.1-1-4.7-6.2-10.3-11.7c0.3,0.3,0.6,0.7,1,1C351.3,316.8,357.4,322.5,363,328.7z"/>
	<path class="st0" d="M356.2,316.3c1.2,1.9,2.9,3.6,4.5,5.4c0.5,0.2,0-0.3-1-1.3C358.7,319.4,357.3,318,356.2,316.3z"/>
	<path class="st0" d="M415.4,389.6c-2.4-2.8-2.3-1.3-3.5-2.9C408.4,384.1,429.9,404.2,415.4,389.6z"/>
	<path class="st0" d="M360.5,322.9l1.2,2.5l3.4,3c0,0-1.1-1.4-2.3-2.7C361.7,324.3,360.5,322.9,360.5,322.9z"/>
	<path class="st0" d="M400.5,369.6l-8.3-9.3c0,0.2-1.1-0.9-2.5-2.3C394.9,363.7,400.5,370,400.5,369.6z"/>
	<path class="st0" d="M389.7,358c-2.7-3-5.2-5.8-6.8-7.5C384.4,352.1,387.5,355.6,389.7,358z"/>
	<polygon class="st0" points="371.8,335.7 374,338.6 379.6,345.4 	"/>
	<path class="st0" d="M491.1,469l9.2,10.1c1.1,0.9-1.2-2-4.6-5.7C493.4,471.1,490,467.3,491.1,469z"/>
	<path class="st0" d="M465.8,437c2.3,2.9,2.3,3.1,3.4,4.8l1.1-0.2L465.8,437z"/>
	<path class="st0" d="M492.1,466.7c1.1,0.9,13.8,14.4,2.2,1.5C493.2,467.4,483.9,457.2,492.1,466.7z"/>
	<polygon class="st0" points="460.5,409.8 462.6,412.5 463.6,411.4 	"/>
	<path class="st0" d="M342.9,273.4c3,3,4.8,4.4,5.9,5.3c1.1,0.9,1.5,1.1,1.9,1.3c0.4,0.2,0.7,0.3,1.6,1.1c0.9,0.7,2.4,2.1,4.9,4.7
		c1.5,1.2-0.5-0.9-2.7-3c-2.1-2.1-4.4-4.1-2.7-2.9C343.9,273.7,340.4,269.5,342.9,273.4z"/>
	<path class="st0" d="M351.9,279.9c1.3,1,2.5,2.1,3.9,3.2C353.6,281.3,352.6,280.4,351.9,279.9z"/>
	<polygon class="st0" points="388.6,215.6 381.6,207.9 385.8,213.1 	"/>
	<path class="st0" d="M373.7,201.7c0,0-0.3-0.6-0.6-1.2c-0.3-0.6-0.6-1.2-0.6-1.2c-0.5-0.3-1-0.7-1.6-1l-1.8-1l-0.8-0.3
		c-0.2-0.1-0.4-0.2-0.6-0.2c-0.4-0.2-0.7-0.4-1-0.6c0.2,0.2,0.4,0.5,0.8,0.7c0.2,0.1,0.3,0.2,0.5,0.3c0.2,0.1,0.3,0.2,0.8,0.4
		c0.3,0.2,0.6,0.4,0.9,0.6l0.7,0.5c0.5,0.4,0.9,0.7,1.4,1.1C372.7,200.6,373.3,201.2,373.7,201.7z"/>
	<path class="st0" d="M382.8,293.4l0.7,0.5c-0.8-1.4-2.2-3.3-5.2-7.1L382.8,293.4z"/>
	<polygon class="st0" points="377.3,273 375.7,271.2 378.1,275 	"/>
	<path class="st0" d="M462.3,357.2c-3.3-3.5-7.4-7.6-10.8-11.1C459.1,353.6,462.3,358.8,462.3,357.2z"/>
</g>
</svg>
