<?xml version="1.0" encoding="utf-8"?>
<!-- Generator: Adobe Illustrator 26.0.2, SVG Export Plug-In . SVG Version: 6.00 Build 0)  -->
<svg version="1.1" id="OBJECTS" xmlns="http://www.w3.org/2000/svg" xmlns:xlink="http://www.w3.org/1999/xlink" x="0px" y="0px"
	 viewBox="0 0 500 500" style="enable-background:new 0 0 500 500;" xml:space="preserve">
<style type="text/css">
	.st0{fill:#292D36;}
</style>
<path class="st0" d="M328.2,242.2V242l-22-11.8l-8-4.3l-7.3-3.9l-8-4.3l-20.1-10.8l0.2-11.6c-0.1-9-6.3-23.8-13.6-24.2h-0.2
	c0,0-0.1,0-0.1,0h-0.1c-7.5,0.1-13.3,15.5-13.2,24.6l0.5,10.8l-64.4,37.4c0.1,3.4,1.4,6.5,3.6,8.7c2.4,2.5,5.7,4,9.3,4
	c1,0,2-0.1,3-0.3l10.8-2.5c2.6-0.6,5.2-1.2,7.9-1.7l0,4.8c0,1.1,0.9,2,2,2l2.4,0c1.1,0,2-0.9,2-2l0-5.8c0,0,0,0,0,0
	c1.9-0.3,3.7-0.5,5.6-0.7c0,0,0,0,0,0l0,4.6c0,1.1,0.9,2,2,2l2.4,0c1.1,0,2-0.9,2-2l0-5.2c4.4-0.3,8.9-0.5,13.4-0.5l0.9,20.2
	l0.3,6.8l0.9,20l-19.1,21.7c-1.7,1.9,0,5,2.6,4.4l21.7-4.7c0.4,1,0.7,2,1.1,3c1.2,3.3,2.4,6.3,3.1,8.1c0,0,0,0,0,0
	c0.1,0.2,0.1,0.3,0.2,0.5c0,0,2.9-3.1,5.3-9.1c0.1-0.2,0.1-0.4,0.2-0.6c0.3-0.7,0.6-1.5,0.9-2.3l23.1,4.9c2.5,0.5,4.3-2.5,2.6-4.4
	l-20.5-23.1l0.3-19l0.1-6.8l0.1-5l0.1-6.8l0.1-5l0-2h0l0.1,0c4-0.2,8-0.2,12-0.1h0l0,3.6c0,1.8,1.4,3.2,3.2,3.2
	c1.8,0,3.2-1.4,3.2-3.2l0-3.3c1.9,0.1,3.7,0.3,5.6,0.4h0l0,4.8c0,1.8,1.4,3.2,3.2,3.2c1.8,0,3.2-1.4,3.2-3.2l0-4
	c3.2,0.4,6.4,0.9,9.6,1.5l10.4,2l0.2,0l0.3,0.1c0.2,0,0.4,0.1,0.6,0.1c0,0,0,0,0,0c0.2,0,0.4,0.1,0.6,0.1c0,0,0,0,0,0
	c0.1,0,0.1,0,0.2,0c0,0,0,0,0.1,0c0.1,0,0.2,0,0.3,0c0.1,0,0.2,0,0.3,0h0.3c0,0,0.1,0,0.1,0c0.1,0,0.2,0,0.2,0c0.1,0,0.1,0,0.2,0
	c0,0,0.1,0,0.1,0c0,0,0,0,0.1,0h0c0.4,0,0.9-0.1,1.3-0.1c0.4-0.1,0.8-0.1,1.1-0.2c0.3-0.1,0.5-0.2,0.8-0.2c0.1,0,0.2-0.1,0.3-0.1
	c0.3-0.1,0.6-0.2,0.9-0.3c0.1,0,0.1-0.1,0.2-0.1c0.3-0.1,0.6-0.3,0.9-0.4c0,0,0.1-0.1,0.1-0.1c0.3-0.2,0.6-0.3,0.9-0.5
	c0,0,0,0,0.1,0c0.9-0.6,1.7-1.3,2.5-2.2c0,0,0,0,0,0c0,0,0,0,0,0C327,248.5,328.2,245.5,328.2,242.2z M290.5,229.3
	c2.2,1.3,1,4.6-1.5,4.3c-8.8-1.2-20.1-2-26.8,0.6l0.4-21.8L290.5,229.3z M244.1,177.7l9.9-0.2c1,1.2,1.8,2.8,2.3,4.4l-14.4,0.2
	C242.4,180.5,243.1,179,244.1,177.7z M210.5,233.8c-2.5,0.4-3.7-2.9-1.5-4.3l27.5-16.8l0.9,21.3
	C230.7,231.6,219.3,232.5,210.5,233.8z M234.5,314.5c-1.7,0.3-2.9-1.7-1.7-3l7.9-9.1c0.2,0.8,0.3,1.6,0.5,2.4c0,0.1,0,0.1,0.1,0.2
	c0.2,0.7,0.4,1.5,0.6,2.3c0.2,0.6,0.4,1.3,0.6,1.9c0.1,0.2,0.1,0.4,0.2,0.6c0.3,1,0.6,1.9,0.9,2.9c0.1,0.3,0.1,0.4,0.1,0.4
	L234.5,314.5z M268.5,311.4c1.1,1.3,0,3.3-1.7,3.1l-9.3-1.4c0,0,0,0,0,0c0,0,0,0,0,0c0,0,0,0,0-0.1c0,0,0-0.1,0.1-0.2
	c0-0.1,0-0.2,0.1-0.2c0-0.1,0.1-0.3,0.1-0.4c0.1-0.2,0.1-0.4,0.2-0.5c0-0.1,0.1-0.2,0.1-0.3c0.7-2.1,1.9-5.8,2.6-9L268.5,311.4z"/>
</svg>
