<?xml version="1.0" encoding="utf-8"?>
<!-- Generator: Adobe Illustrator 26.0.2, SVG Export Plug-In . SVG Version: 6.00 Build 0)  -->
<svg version="1.1" id="Objects" xmlns="http://www.w3.org/2000/svg" xmlns:xlink="http://www.w3.org/1999/xlink" x="0px" y="0px"
	 viewBox="0 0 800 800" style="enable-background:new 0 0 800 800;" xml:space="preserve">
<style type="text/css">
	.st0{fill:#FFFFFF;}
</style>
<g>
	<path class="st0" d="M446.9,211.2c-0.2-0.3-0.6-0.7-0.9-0.9c-0.3-0.2-0.5-0.3-0.6-0.4c-0.2-0.1-0.2,0.2-0.4,0
		c1.2,1.2,1.5,1.4,1.6,1.5c0.1,0.1,0.2,0.1,0.2,0C447,211.4,447,211.1,446.9,211.2z"/>
	<path class="st0" d="M431.1,208.7l-0.6-0.8c0,0,1,1.9,2.3,3.6c1.2,1.7,2.5,3.3,2.5,3.3s-1.1-1.4-2.2-3
		C432,210.3,431.1,208.7,431.1,208.7z"/>
	<path class="st0" d="M426,209c0.8,1,2,2.3,3.5,3.9c1.4,1.6,3.1,3.4,4.9,5.1c3.8,3.4,8.1,7.1,12,9.1l-1.9,1.5c0-0.1,0-0.2-0.1-0.3
		c0,0,0-0.3-0.1-0.6c-0.1-0.3-0.2-0.6-0.2-0.6c-0.1-0.1-0.3-0.3-0.4-0.4l-0.6-0.5c-0.5-0.6-0.7-0.8-1-1.2l-0.9-1
		c0.5,0.8,1.1,1.6,1.6,2.4c0.4,0.3,0.4,0.4,0.6,0.6c0.1,0.2,0.2,0.3,0.3,0.5c0.2,0.3,0.3,0.7,0.4,1.1l2.4-1.9
		c-4.2-2-8.1-5.5-11.7-8.7C431.3,214.7,428.5,211.3,426,209z"/>
	<path class="st0" d="M435.2,230.8c-0.5-0.8,0.6,0.4,0.7,0.5c0.1,0.1-0.8-0.7-4.7-5.7c0.4,0.5,0.5,0.7,0.7,1
		C432.6,227.5,433.5,228.7,435.2,230.8z"/>
	<path class="st0" d="M431.9,226.6C428.4,222.2,433.9,229.6,431.9,226.6L431.9,226.6z"/>
	<path class="st0" d="M434.7,224.4c0,0,1.3,1.2,2.7,2.3c1.3,1.1,2.7,2.2,2.7,2.2c-0.5-0.5-1.9-1.8-2.9-2.8c-1-1-1.7-1.7-0.8-1
		c-1.3-1.2-2.3-2.1-3-2.7c-0.6-0.6-0.9-0.8-1-0.8C432.2,221.7,433.2,222.8,434.7,224.4z"/>
	<path class="st0" d="M429.4,220l2.7,2.5C431.7,222,431,221.3,429.4,220z"/>
	<path class="st0" d="M438,227.7c0,0-1.5-1.2-2.9-2.5c-1.5-1.3-3-2.7-3-2.7c0.7,0.8,0.6,1.1,2.7,2.5
		C434.2,224.7,435.5,225.7,438,227.7z"/>
	<path class="st0" d="M441.2,230.5c0.8,0.7,1.7,1.3,2.4,1.8l-3,3.7c-1.6-1.9-2.4-2.9,0.2-0.2l2.6-3.2c-0.2-0.1-0.6-0.3-1-0.6
		c0.4,0.3,0.8,0.5,1,0.6l-2.6,3.2c-3.9-4.2-5.6-6.2-5.6-6c0,0.1,0.4,0.7,1.3,1.8c0.9,1.1,2.2,2.6,3.9,4.6l3.2-3.9
		C443,231.8,442.1,231.2,441.2,230.5z"/>
	<path class="st0" d="M422.4,208.8L422.4,208.8l1.1-1c1.4,1.2,2.7,2.5,3.9,3.8c0,0,0.9,0.8,1.7,1.6c0.8,0.8,1.7,1.6,1.7,1.6
		c-0.8-0.8-2.4-2.6-4-4.2c-1.6-1.6-3.1-2.8-3.3-2.8l-1.8,0.1L422.4,208.8C422.4,208.9,422.4,208.9,422.4,208.8z"/>
	<path class="st0" d="M417.1,221.6c0.4,0.3-1.1-2.3-1.2-2.8c0,0-0.8-1.1-1.6-2.2c-0.8-1.1-1.5-2.2-1.5-2.2
		C414.1,216.8,417.1,221.2,417.1,221.6z"/>
	<path class="st0" d="M415.9,218.8c0,0,1.2,1.6,2.4,3.2c1.2,1.6,2.5,3.2,2.5,3.2C416.5,219.4,415.8,218.3,415.9,218.8z"/>
	<path class="st0" d="M427.9,219.7c0,0,0.6,0.5,1.5,1.4c0.9,0.8,2.1,1.9,3.4,3c1.2,1.1,2.5,2.1,3.4,2.9c0.9,0.8,1.5,1.3,1.5,1.3
		s-0.7-0.6-1.8-1.5c-1.1-1-2.6-2.3-4-3.5c-2.9-2.6-5.8-5.2-5.8-5.2L427.9,219.7z"/>
	<path class="st0" d="M436.5,245c0,0-0.6-0.7-1.2-1.2l-0.2-0.2l-0.1-0.1c-0.1-0.1-0.2-0.2-0.3-0.2c-0.1-0.1-0.2-0.2-0.3-0.3
		c-0.1-0.1-0.2-0.2-0.2-0.2c-0.3-0.3-0.5-0.5-0.5-0.5l0.5,0.5l0.3,0.3l0.3,0.4l0.3,0.2l0.1,0.1l0.2,0.2c0.1,0.1,0.3,0.2,0.4,0.4
		c0.5,0.5,1,1.1,1.4,1.7l4.6-4.3c-0.6-0.3-1.2-0.7-1.8-1.1c0.6,0.4,1.2,0.7,1.8,1.1l-4.5,4.2C436.9,245.5,436.7,245.3,436.5,245z"/>
	<path class="st0" d="M427.4,230.1c2.7,2-3-3.4-0.3-1.2c-1-0.9-2-1.8-3-2.6c-1-0.8-1.9-1.6-2.8-2.4c-1.8-1.5-3.4-3-5-4.3
		C419.5,222.6,422.9,225.7,427.4,230.1z"/>
	<path class="st0" d="M411.2,214.8c1.6,1.6,3.3,3.1,5.1,4.8C414.6,217.9,412.9,216.4,411.2,214.8z"/>
	<path class="st0" d="M429.5,235.8c0.3,0.5,0.9,1.6,3.8,5l-1.8-2.7C430.9,237.5,430.2,236.7,429.5,235.8z"/>
	<path class="st0" d="M431.5,238.1L431.5,238.1c1.2,1.4,2.1,2.5,2.9,3.3c0.2,0.2,0.4,0.4,0.5,0.6c0.1,0.1,0.2,0.2,0.2,0.3
		c0.1,0.1,0.2,0.2,0.3,0.4c0.1,0.1,0.3,0.3,0.4,0.4c0.1,0.1,0.2,0.2,0.3,0.3c-0.1-0.1-0.3-0.3-0.5-0.5c-0.5-0.5-0.7-0.8-1.1-1.2
		C433.8,240.8,432.8,239.6,431.5,238.1z"/>
	<path class="st0" d="M429,235.2c0.2,0.2,0.3,0.4,0.5,0.6C429.3,235.6,429.2,235.4,429,235.2z"/>
	<path class="st0" d="M412.6,204.9c-0.1,0-0.1-0.1-0.2-0.1l-6-3.3l3.3,5.8c1.2,2.1,3.1,5.1,4.2,6.6c1.1,1.4,1.2,1.4-1.1-2.7
		c-1-1.4-0.8-0.9-0.9-0.8c-0.1,0.1-0.4-0.1-2.2-3l2.7-2.5C412.4,204.8,412.5,204.9,412.6,204.9z"/>
	<path class="st0" d="M426.8,231.9c0,0-0.3-0.4-0.9-1c-0.5-0.6-1.2-1.5-1.8-2.3c-1.3-1.7-2.6-3.4-2.6-3.4c0,0.2,0.8,1.5-0.7-0.3
		c0,0,1.4,1.8,2.9,3.5c0.7,0.9,1.5,1.8,2.1,2.4C426.4,231.5,426.8,231.9,426.8,231.9z"/>
	<polygon class="st0" points="429.7,235 426.8,231.9 428.9,234.3 	"/>
	<path class="st0" d="M421.1,225.1c-2.8-2.3-5.6-5.1-8.8-8.2c3.3,3.5,6.8,7,10.3,10.1C423.2,227.4,424.9,228.6,421.1,225.1z"/>
	<path class="st0" d="M434.3,237.1c-0.2-0.2-0.4-0.3-0.6-0.5C434.1,236.9,434.4,237.2,434.3,237.1z"/>
	<path class="st0" d="M421.4,238.3c-0.1-0.2-0.3-0.4-0.4-0.6c-0.1,0-0.1,0-0.2-0.1L421.4,238.3z"/>
	<path class="st0" d="M423.2,227.6c2.7,2.5,4.3,3.9,5.9,5.2c-2-1.8-4.2-3.7-6.5-5.8C422.4,226.9,422.3,226.9,423.2,227.6z"/>
	<path class="st0" d="M402.8,214.8c-0.6-0.9-1.2-1.8-2-2.9l4.2-3.3c0.5,0.6,1.1,1.4,1.8,2.1c-0.4-0.6-1.1-1.4-1.7-2.2l-4.3,3.4
		C401.7,213.2,402.5,214.5,402.8,214.8z"/>
	<path class="st0" d="M432.9,235.7c0.1,0.1,0.3,0.2,0.4,0.3C432.5,235.2,432.5,235.3,432.9,235.7z"/>
	<path class="st0" d="M432.9,235.7c-1.5-1.1-2.6-2-3.8-2.9c1.7,1.4,3.2,2.7,4.6,3.8C433.4,236.3,433.1,236,432.9,235.7z"/>
	<path class="st0" d="M432.6,246.4c-0.4-0.1-2.2-1.9-4.7-4.4c-2.5-2.5-5.5-5.8-7.9-9.2c-2.7-3.1-3.4-3.4-3-2.2c0.4,1.2,1.9,4,4,7
		c0.3,0.1,0.4,0.1,6.3,6.1c-0.9-1.1-4-4.6-6.1-7.3c-2.1-2.7-3.3-4.5-0.9-1.9c3.6,4.2,5.2,5.8,6.2,7.1c1,1.2,1.5,1.9,3.2,4
		c-1.4-1.8,1.2,0.6,3.8,3.3c0.7,0.7,1.3,1.4,2,2c0.6,0.7,1.3,1.2,1.7,1.7c1,0.9,1.3,1.6,1.2,0.9c0,0-0.3-0.6-0.9-1.3
		c-0.3-0.3-0.7-0.7-1.1-1.1c-0.4-0.4-0.8-0.9-1.2-1.3c-1.6-1.8-3.3-3.5-3.3-3.5C431.8,245.9,434.3,248.4,432.6,246.4z"/>
	<path class="st0" d="M411,225l-2.1-2.7c2.3,3.2,3.8,5.6,6.8,9.9c3.8,4.4,4.7,5.2,5.1,5.4c0,0-0.7-0.8-1.7-2.1
		c-1-1.2-2.4-2.9-3.7-4.6c-2.6-3.4-5.2-6.8-5.2-6.8L411,225z"/>
	<path class="st0" d="M406.3,210.5c-0.4-0.4-1-0.9-1.7-1.5l-3.2,2.6c2.2,2.5,4.8,5.9,2.8,2.4c-0.9-1.2-1.6-2.1-2.1-2.9l2-1.6
		c3.9,4.2,3.1,3,6.8,6.6c-11.1-11.8,3.3,3.3-4.4-5.5c2.2,2.3,4.1,4.4,6,6.3c-2-2.1-3.8-4.2-5.6-6.2c0.1,0.1,0.2,0.2,0.2,0.3l0.1,0.1
		l0,0c0.4,0.5,0.6,0.7,0.1,0.1c0,0-0.2-0.2-0.2-0.2C406.8,210.9,406.5,210.7,406.3,210.5c-3-3.5-0.4-0.6,0.6,0.4
		c0.1,0,0.2,0.1,0.2,0.1c0,0,0,0,0,0l-2.1-2.3l-3.9,3.1l7.9,10.5c-1.8-2.5-3.9-5.5-7.8-10.6l3.6-2.9
		C405,209.1,405.6,209.8,406.3,210.5z"/>
	<path class="st0" d="M418.3,218.1c0.3,0.4,0.2,0.4,0.2,0.5C419.2,219.4,419.5,219.7,418.3,218.1z"/>
	<path class="st0" d="M422.1,223.6c-0.8-0.9-1.5-1.6-3.7-4.8c-1.8-2.8,0.2-0.1,0.2-0.3c-1.4-1.8-4.8-6.6-0.9-0.4l0.7,0.9
		c3.6,5.5,8.6,12.4,7.9,11.5C425.3,228.8,424.4,227.4,422.1,223.6z"/>
	<path class="st0" d="M432.1,236.8c0,0-2.6-2.1-5.1-4.4c-2.5-2.2-5.1-4.5-5.1-4.5l4.9,4.9l-0.1-0.4
		C432.3,237.6,431.2,236.3,432.1,236.8z"/>
	<path class="st0" d="M422.3,239.6l-1.6-1.1c0,0,1.4,1.4,2.9,2.8c1.5,1.3,2.9,2.7,2.9,2.7s-1.1-1.1-2.1-2.2
		C423.4,240.7,422.3,239.6,422.3,239.6z"/>
	<path class="st0" d="M434.2,252.6l-0.7-0.2c0,0,0.2,0.2,0.5,0.5c0.4,0.4,0.8,0.9,1.2,1.2c0.3,0.3,0.6,0.6,0.6,0.7c0,0,0,0,0,0l0,0
		c0,0,0,0,0.1,0c0.2-0.1,0.2-0.1,0.3-0.1c0,0-0.1,0-0.2,0.1c-0.1,0-0.1,0-0.1,0c0,0,0,0,0,0c0-0.1-0.1-0.3-0.4-0.6
		c-0.2-0.3-0.5-0.7-0.8-1C434.3,252.8,434.2,252.6,434.2,252.6z"/>
	<path class="st0" d="M372.4,261.2l2.5,3.1C373.8,262.8,373,261.9,372.4,261.2z"/>
	<path class="st0" d="M355.2,238.2l-0.6-0.5C355.5,238.7,355.9,239.1,355.2,238.2z"/>
	<path class="st0" d="M398.7,253.9c3.6,4.7,7.6,9.9,7.4,9l-0.9-1.6C402.4,258.4,400.3,256,398.7,253.9z"/>
	<path class="st0" d="M359.2,229.1c0.3,0.4,0.7,0.9,1,1.4c1.1,0.9,2.1,1.8,2.9,2.6C362,231.9,360.6,230.5,359.2,229.1z"/>
	<path class="st0" d="M355.1,227.2l-4.9-5.9C351.3,222.6,352.8,224.5,355.1,227.2z"/>
	<path class="st0" d="M350.8,246.4l2.9,3.6C349.8,244,351.3,246.8,350.8,246.4z"/>
	<path class="st0" d="M399,224.9c-3.2-3.8-5.8-6.8-8.1-9.5C394.7,220.1,397.7,224,399,224.9z"/>
	<path class="st0" d="M361.8,255c1.6,1.9,2.3,2.7,2.3,2.5C362.5,255.6,361.6,254.6,361.8,255z"/>
	<path class="st0" d="M381.4,204.4c0.6,0.7,1.2,1.4,1.8,2.1c2.5,2.8,4.9,5.6,7.8,9c-1.4-1.7-2.9-3.6-4.4-5.5
		C384.9,208,383.2,206.1,381.4,204.4z"/>
	<path class="st0" d="M307.9,230.5c0.2,0.3,0.5,0.8,0.7,1.1C308.7,231.7,308.4,231.2,307.9,230.5z"/>
	<path class="st0" d="M304.5,250.4c0.3,0.2,0.6,0.3,1.1,0.5l-2.1,2.9c-0.7-1-1.9-2.6-3-4.1c0.6,0.8,1.5,2,3,4.1l2.1-3
		C305.4,250.8,305,250.7,304.5,250.4z"/>
	<path class="st0" d="M391.8,206.8C394.8,209.3,392.3,207.1,391.8,206.8L391.8,206.8z"/>
	<path class="st0" d="M403.6,221.1c-0.6-0.5-1-0.9-1.2-0.9C402.7,220.3,403.2,220.6,403.6,221.1z"/>
	<path class="st0" d="M399.4,234.6c0.1,0.1,0.1,0.2,0.2,0.3C398.9,234,399.1,234.1,399.4,234.6z"/>
	<path class="st0" d="M396,210.9c-1-1-2.1-2.3-3.6-3.5C393,207.9,394.2,209,396,210.9z"/>
	<path class="st0" d="M395.6,210.2c0.9,0.9,1.6,1.7,2.3,2.4C398.3,212.9,398,212.5,395.6,210.2z"/>
	<path class="st0" d="M385.5,209.7c-0.4-0.6-0.7-1.4-0.9-2.1l-2.1-6.9l6.2,3.9c1.4,0.9,2.7,1.9,3.8,2.8c-0.6-0.5-0.8-0.8-0.7-0.6
		c-1-0.8-2-1.5-3.1-2.2l-6.2-3.9l2.2,6.9C384.9,208.4,385.2,209.1,385.5,209.7z"/>
	<path class="st0" d="M361.2,277.6c-0.2-0.2-0.4-0.4-0.6-0.6C357.8,274.5,359,275.6,361.2,277.6z"/>
	<path class="st0" d="M369.9,225.2c0.1,0.1,0.2,0.2,0.3,0.3c-0.1-0.1-0.2-0.3-0.3-0.4L369.9,225.2z"/>
	<path class="st0" d="M361.2,214.9c4,4.2,5.9,6.8,8.6,10.3l-1.8-4.3L361.2,214.9z"/>
	<path class="st0" d="M347.3,242.6l5.7,7.6c-7.8-8.4-12.7-15.2-7.6-7.8c1,0.1,6.7,7.2,12.8,14.3c3,3.5,6.2,7,8.7,9.5
		c2.5,2.5,4.5,4.1,5,4.1l4.3,4.5c-1.3-1.2-1.5-1.4-2.8-2.6c4,4.3,5.7,5.7,7.7,7.3l3.6-3.5c-2.1-1.7-4.4-3.6-9.1-10.1
		c-3.2-4.4-5.4-7.5-3-4.7l-7.7-9.4c-2.1-2.8-1.4-2.3,0.7,0.5c0,0-2.8-3.6-5.6-7.3c-2.7-3.7-5.3-7.5-5.3-7.5l0.1,0.1
		c-1.7-2-5.2-6.8-6.8-9.2c-2.4-4.1,1.4,1.9,0.9,0.8l-5.7-8.5c-1.9-3.7,2.9,3.3,6.6,9.3c-2-4.4-3.2-6.1-5.2-9c-1-1.4-2.2-3.2-3.9-5.7
		c-1.6-2.5-3.8-5.6-6.1-10.1c0,0,1.2,2,2.5,4c1.3,2,2.7,4,2.7,4c-1.3-2.6-2.9-5.3-4.6-8.4l-5.7,3.5c2.3,3.5,5,7.6,8.1,12.5
		c-1.3-2.3-11.4-18.7-4.9-9.8c1.7,2.6,4,6.1,7.7,10.8c-0.4,0.3,3.1,5.1,7.6,10.9l-0.8,0c2.5,3.1,3.8,4.5,4.8,5.5
		c1,1,1.8,1.7,3.4,3.4c2.9,3.4,4.6,5.5,5.7,7c1.1,1.5,1.6,2.3,2.2,3.3c9.7,10.4-6.2-7.7,5.5,4.5c3.3,3.6,6.3,6.6,9.4,9.6
		c1.4,1.5,3,3.1,4.7,4.7c0.8,0.8,1.7,1.6,2.7,2.4c1,0.8,2,1.6,3.4,2.4l2.6-3.2c-1.4-1.6-2.9-3.4-4.5-5.3c-5-6.5,1.2,0.9-0.5-1.5
		l-4.9-5.4c-1.1-1.4-0.6-1-0.4-0.9c-4-4.7-0.8,0-6.9-7.5c-1.1-0.8-3.9-4.9-7.4-9.9c-3.5-5-7.5-11.1-11.3-15.7
		c-1.6-2.5,1.1,0.9,0.8,0.1c-4.1-5.4-6.3-8.3-8.1-10.6c-1.8-2.5-3.4-4.3-5.9-7.8l-2.4,1.8c0.2,0.1,1.5,1.3,3,2.9
		c0,0,1.8,2.2,3.7,4.4c1.8,2.2,3.6,4.4,3.6,4.4c-5.2-6.6,2.3,1.1,8.9,7.8c-1.8-2.4-3.4-4.4-4.4-5.8c0,0,2.6,2.8,5.1,5.5
		c2.6,2.7,5.2,5.4,5.2,5.4c1.2,1.4,0,0.5-1.9-1.2c0.7,0.7,1.4,1.4,2,1.9c3.5,4.1,1.3,2.3-1.6-0.3c-1.1-1.4-2.3-2.9-3.4-4.3
		c-2.8-2.5-5.4-4.8-5.2-4c0.7,0.7,2,2.1,3.4,3.6c-0.7-0.7-1.2-1.1-1-0.7c0.3,0.4,1.4,1.5,3.2,3.2l1.8,3l0.8,0.4c0,0,3.3,3.7,6.7,7.3
		c3.4,3.6,7,7.1,7,7.1c5.1,4.3,10.1,8.1,15.7,12.4c2.8,2.2,5.8,4.5,9,7.1c1.6,1.3,3.2,2.7,5,4.2c0.2,0.2,0.4,0.3,0.6,0.5
		c0.1,0.2,0.3,0.5,0.5,0.7c0.4,0.5,0.8,0.9,1.2,1.3c0.9,0.8,2.1,1.4,3.3,1.8l0.5,0.1l-0.4-0.4c-0.8-0.8-1.6-1.7-2.5-2.6
		c4.2,3.7,1.4,0.3,2.1,0.1c0.4,0.5,0.9,1.1,1.4,1.7l3.1,3.8l-4.6-1.5c-1.8-0.6-3.6-1.8-5-3.6c-0.2-0.2-0.4-0.5-0.4-0.6
		c-0.1-0.2-0.2-0.2-0.4-0.4c-0.4-0.3-0.8-0.7-1.2-1c-0.8-0.7-1.7-1.4-2.6-2.2c-3.5-3-7.5-6.2-11.3-9.6c4.5,4,3.3,3.4,2.1,2.4
		c0,0,4,3.2,8,6.6c1,0.8,2,1.7,2.9,2.4c0.5,0.4,0.9,0.8,1.3,1.1c0.2,0.2,0.4,0.4,0.6,0.5c0.1,0.1,0.2,0.2,0.3,0.3
		c0.1,0.2,0.3,0.4,0.4,0.5c0.2,0.2,0.3,0.4,0.5,0.6c0.3,0.3,0.6,0.6,0.8,0.8c0.5,0.4,0.8,0.7,0.8,0.7c-0.2,0,0,0.3,0.5,0.7
		c0.5,0.4,1.4,0.9,2.5,1.3l6.6,2.1l-4.6-5.4c-1.2-1.4-2.9-3.2-4.7-5.2c1.1,1.8-1.8-0.8-5.6-4.6c-3.9-3.7-8.5-8.9-11.3-12
		c0-0.3,0.3-0.1,1.5,1.1c1.2,1.2,3.3,3.5,6.7,7.2c-3.6-4.3-6.2-6.9-8.7-9.4c-2.6-2.5-5.1-5.1-8.3-9.7c1.5,2,2.4,3,3.1,3.7
		c-2-2.2-5.1-6.1-7.3-9.2c-2.3-3.1-3.7-5.4-2.6-4.2l1.5,2c-3.4-4.7-7.8-11.2-12.1-17.9c-1-1.7-2.1-3.4-3.1-5c-1-1.7-2.1-3.3-3.1-4.9
		c-2-3.1-3.8-6-5.1-8.5l-2.3,1.4c3.3,4.1,5.7,6.8,6.3,7.2c0,0.2-2.1-1.1-2.9-1.8c0,0,5.1,5.5,10.2,10.9c2.6,2.7,5.2,5.4,7.1,7.4
		c2,2,3.3,3.3,3.3,3.3c-2.2-1.6,2.8,7.3-6.3-3.1c2.4,3.1,5.4,7.1,11.2,13.2c-1.7-2.1-3.6-5.8-1.2-3c3,4.1,4.2,5.5,5.5,7
		c1.3,1.6,2.9,3.4,7,8.1c-2.7-3,1.2-0.5,5.8,4c-0.8-0.6-0.4,1.2-2.2-0.4c0,0,3,2.6,6.1,5.2c3.1,2.5,6.2,5,6.2,5
		c-3.1-2.5-1.2,0.2,1.3,2.9c-0.7-0.9,4.1,3.6,8.4,7.3l3-2.6c-1.7-2.7-3.6-4.6-4.7-5.6c0,0,1.2,1.3,2.3,2.7c0.6,0.7,1.1,1.4,1.5,2
		c0.4,0.6,0.6,1,0.6,1c-1.3-2.1-2.7-3.6-4-4.8c-1.3-1.3-2.4-2.3-3.4-3.3c-2.1-1.8-3.7-3.2-5.4-4.8c-3.3-3-6.6-5.9-12.3-12.8
		c1.6,1.5,4.5,3.2-1.1-3.9c-0.8-0.7-2-1.9-3.5-3.4c-1.5-1.6-3.4-3.5-5.5-5.7c-4.2-4.4-9.1-10.1-14.1-16.2l-1.6-2.6
		c-1.7-2-3.5-4.1-5-6.3l1.8-1.8c1.3,0.8,2.5,1.6,3.6,2.6c-0.7-0.5-1.6-1.2-3.7-2.4l-1.6,1.6c2.5,3.3,7.4,7.6,11.8,12.8
		c4.5,5.1,9.1,10.4,12.4,14.3c-3.8-5.6-0.8-1.7-6.8-9.8c-1.9-3,3.6,4.1,5.4,6.5c0,0-3.5-4.7-6.9-9.5c-1.7-2.4-3.5-4.7-4.8-6.5
		c-1.4-1.8-2.3-3-2.3-3c0,0.3-0.8-0.5-2-1.8c-1.2-1.3-2.7-3.1-3.9-4.9l-3.2,3.2c3.3,1.9,5.9,5,5.8,4.4c-1.8-1.9-3.6-3.5-5.6-4.7
		l2.7-2.7c1.6,2.3,3.4,4.5,5.3,6.7c1,1.1,1.9,2.3,2.9,3.4l2.7,3.5c0,0.4-1.3-0.8-3.4-3.1c-1.1-1.2-2.4-2.6-3.9-4.3
		c-1.5-1.6-3.1-3.5-4.6-5.6l-1.2,1.2c1.8,1,3.4,2.4,5,4.1c1.6,1.6,3.1,3.5,4.7,5.3c1.3,1.7,0.6,1.3-0.5,0.5
		c-1.1-0.8-2.4-1.9-2.4-1.7c0.4,0.4,1.3,1.3,2.4,2.5c1.1,1.2,2.4,2.6,3.7,4c2.6,2.9,5.1,5.7,5.6,6.3l-4.9-5.1c3,3.6,5.6,6.3,8.5,9.1
		c2.8,2.9,5.8,5.9,9.6,10.1c2.7,2.8,7.8,8.6,8.5,8.7c-4.1-4.8-3.3-7.4,0.1-5c0.5,0.5,4,4,7.9,7.8c3.9,3.8,8.1,7.7,9.7,9.3
		c4.4,4.6-8.1-5.1-4.4-1.2c0.3,0,3.1,2.1,4.2,3c2.7,2.5-1-0.2,3.8,4l2.7-2.1c-0.2-0.4-0.5-0.9-0.9-1.5c-0.4-0.2-1.2-1.3-2.3-2.5
		c-1.1-1.2-2.2-2.4-3-3.4c-1.7-2-2.1-2.5,2.2,2.9c-5.8-6.3-5.9-6.9-12.7-14.4c0.9,1.3-0.9-0.1-3.6-2.7c-2.7-2.6-6.3-6.4-9.1-9.7
		c0.5,0.3-0.6-1.4-1.1-2.1c-4.6-5.7-8.1-10.5-11.4-15.1c-3.2-4.6-6.3-9-9-14.5l-0.7,0.5c1.5,1.6,3.1,3.4,4.8,5.4
		c0.8,1.3,5.8,7.4,3.4,5c1.6,1.7,3.2,3.2,6.6,7c3,3.8,1.1,1.8-1-0.5c-2.1-2.3-4.4-4.8-2.2-1.8c0.7,0.2,9.1,9.4,14.3,14.5
		c-0.5-1-3.4-4.1-6.6-7.5c-3.3-3.5-7-7.4-9.5-10.1c0.6-0.6,9.4,8.4,21.5,20.4c4.8,4.8,5.7,5.9,5.7,6.1c-0.1,0.2-1.1-0.7-0.2,0.1
		c5.7,5.8,9.8,8.9,12.6,11.7l-1.5,1.5c-3.2-2.9-5.3-4.9-7.7-7.5c-2.4-2.6-5.4-5.8-9.9-11.5c-5-6.9,0.6-1-0.3-2.7
		c3.6,4.2,6.4,7.4,8.8,10.4c2.4,2.9,4.5,5.6,7.1,8.3c0,0-1.6-1.7-3-3.5c-1.5-1.8-2.9-3.6-2.9-3.6c2,2.1,5.8,6.4,8.8,9.3l0.1-0.1
		c-0.6-0.6-1.1-1.1-1.5-1.6c0.4,0.4,0.9,0.9,1.5,1.6l-0.1,0.1c-1.8-1.8-4.5-4.8-7.5-8.4c-3.1-3.6-6.8-7.7-10.5-12.2
		c-1.8-2.2-3.7-4.5-5.4-7c-1.7-2.4-3.5-4.8-5.1-7.1c-1.7-2.3-3.3-4.6-4.9-6.7c-1.7-2-3.3-3.9-4.5-5.8c-0.6-0.8-1.2-1.7-1.5-2.7
		l-0.4,0.3c2.5,1.4,4.5,3.1,3,1.7c-0.9-0.7-1.9-1.4-2.8-2l-0.3-0.2l0.1,0.4c0.3,0.9,0.7,1.7,1.2,2.5c0.7,1.3,0.6,1.3,0.1,0.7
		c-0.5-0.6-1.3-1.8-1.8-3.1l-0.5-1.5l1.4,0.8c1.2,0.7,2.2,1.4,2.6,1.6c0.4,0.2,0.1-0.1-1.5-1.3c1.8,1.2,3.6,2.6,5.3,4.1
		c1.7,1.5,3.4,3.1,5.1,4.9c3.5,3.4,7.1,7.3,11.1,11.6l1.1,2c-0.1-0.3-5-5.8-7.4-8.1c1.8,1.7,4.7,5.1,7.8,8.5
		c3.1,3.3,6.3,6.7,8.5,8.3l-5.5-6.2c6.2,5.7,13.6,13,21.8,18.8c-1.7-1.5-2.2-1.9-2.9-2.4c-0.7-0.6-1.7-1.3-4.2-3.9
		c2.1,2.4-2.9-1.8-7.2-6.2c-4.3-4.4-8.4-8.5-5-4.5c-4.8-6-8.9-9.6-15.2-17.4c0.1,0.4,2.2,2.8-3.9-3.6c-0.3-0.2-1-0.9-1.5-1.3
		c-0.2-0.2-0.3-0.3-0.4-0.4c0.1,0.1,0.2,0.2,0.3,0.4c-0.3-0.3-0.3-0.3,0.1,0.1c1.4,1.6,2.5,2.9,2.9,3.4c-1-0.9-2.6-2.4-4.5-4.1
		c-1.9-1.8-4.2-3.8-6.7-5.3l-3.9-2.3l1.3,4.2c0.3,1.1,0.8,2,1.3,2.8c0.5,0.8,1,1.5,1.5,2.1c1,1.2,1.9,2.2,2.5,2.9
		c3.3,4-1.6-1.5,0.1,0.8c0,0,0.3,0.3,0.7,0.8c0.4,0.5,0.9,1,1.5,1.8c1.1,1.4,2.2,2.7,2.2,2.7c0.1,0.8,7.6,11.6,0.1,1.9l6.5,8.9
		c3.7,5.5,9.7,12.3,13.4,16.3c1.7,2,3.9,4.4,5.4,5.9c1.5,1.5,2.1,2.1,0.4,0.5c1.2,1.3,2.5,2.6,3.9,3.9l3.6-3.6c-3-3-6-5.5-8.9-8.2
		l0-0.2c-6.1-5.8-12.2-12.1-18.4-18.7c-3.1-3.3-6.2-6.7-9.2-10.3c-3.1-3.5-6-7.3-9.1-11.2c-0.9-1-1.8-1.9-2.8-2.9l-4,2.8
		c2.3,4.3,5.3,8.8,9.6,14.9l0.8,1.7c2.2,3,5.5,7.5,8.6,11.4c3.1,4,5.9,7.5,7.1,8.6c1.6,2.6,5.3,7,9.7,12c2.2,2.5,4.6,5.1,7,7.7
		c1.2,1.3,2.4,2.7,3.5,4c1.1,1.3,2.1,2.4,2.7,3.6l4.9-3.9c-3.6-3.1-6.9-5.9-9.4-8.1l-0.7,0.1c-6.7-5.9-13.2-11.4-21.1-19l0.2,0.8
		c-3.5-3.2-7.6-7.7-12-12.9c-2.2-2.6-4.5-5.3-6.9-8.1c-1.2-1.4-2.4-2.8-3.6-4.2c-1.2-1.4-2.4-2.9-3.8-4.3c0.4,0.3,1.3,1.2,2.2,2.3
		c0.9,1.1,1.9,2.3,2.8,3.4c-1.4-1.8-2.9-3.7-4.5-5.6c-1.7-1.9-3.6-3.8-6-5.2l-3.5,3.5c2,3.1,4.4,5.8,6.6,8.4c0.5,0.7,1.1,1.3,1.6,2
		l1.6,2c1.1,1.4,2.1,2.7,3.1,4c4.2,5.4,8.1,10.6,11.5,15.6c2.6,3.2,4.5,5.5,6.2,7.8c-0.3-0.3-0.5-0.5-0.7-0.8
		c0.3,0.3,0.7,0.8,1.1,1.3c1.1,1.4,2.3,2.9,3.5,4.5c-1-1.4-2.1-2.7-2.9-3.8c2,2.4,5.2,6,8.5,9.4l1,1.8c0.3,0.3,0.5,0.5,0.7,0.8
		c1.5,1.7,2.2,2.4,2.3,2.4c0.1,0-0.4-0.8-1.1-1.9c1.7,1.7,3.4,3.2,4.6,4.3c0.6,0.9,1.7,2.1,2.8,3.3c1.1,1.2,2.4,2.6,3.4,4.1l2.8-2.4
		c-2-1.7-3.9-3.4-5.2-5.1c-1.3-0.9-5.7-4.7-10-8.6c-4.3-3.9-8.5-7.7-9.6-8.3c0-0.2-1-1.2,0.8,0.6c-3.6-3.7-7.1-7.6-10.4-10.8l-1-2
		c0,0-2-2-4.1-4c-2-2-4-4.1-4-4.1c-4.1-5.5-5.7-7.9-1-2.9c-5.5-6.1-7.6-8.8-9.6-11.1c-1.9-2.4-3.7-4.5-8.3-9.8l0.7,0.3
		c-1.3-1.7-3.1-3.8-4.7-5.8l-2.1,1.3c1.7,3.2,3.5,6.1,4.3,7.6c0.7,1.3,1.6,2.9,2.8,5c1.2,2,2.6,4.5,4.2,7.1
		c3.3,5.3,7.4,11.7,12.3,18.2c4.8,6.5,10.2,13.3,15.8,19.7c2.8,3.2,5.6,6.3,8.4,9.2c2.8,2.9,5.5,5.7,7.9,8.3
		c-1.5-2.3,0.6-0.2,3.1,2.8l1.8-2.8c-0.8-0.3-1.6-0.7-2.2-1.3c-0.3-0.3-0.6-0.6-0.9-1c-0.1-0.2-0.3-0.3-0.4-0.5
		c-0.1-0.1-0.2-0.3-0.3-0.4c-0.1-0.2-0.2-0.3-0.4-0.4c-0.4-0.4-0.8-0.7-1.2-1c-0.3-0.3-0.6-0.5-0.9-0.7c-0.5-0.4-0.9-0.7-1.1-0.7
		c-1.1-1.3-4-4.1-0.3-1.2c-11.3-9.6-16.6-14.8-24.5-21.1c-1-1.3,2.6,1.8,1.6,0.7c-0.9-0.7-3.6-3-4.6-4.2c-1-1.1,1.7,1.3,3.5,2.8
		c-5.5-5.1-8.5-7.9-10.4-9.4c-1.9-1.5-2.6-1.7-3.3-1.8c-4.9-5.8-7.5-8.6-11.5-12.4c-1.6-2.2-4.3-5.7,2,1.3
		c-2.2-2.5-9.9-11.5-15.7-17.8l-2.7,2c1.4,2.2,2.8,4,3.8,5.3c1,1.3,1.6,2,1.8,2c0.8,1.4,4.3,6,5.1,7.1c3.4,4.8,5.3,7.5,7.1,10.1
		c1.9,2.6,3.7,5.2,7.2,9.8l-1.8-2.7c3.4,3.2,5.9,7.7,11.8,15l-0.2-0.2c5.5,7.4,7.5,9.7,8.8,11.4c1.4,1.6,2.2,2.6,5.7,7.1l1.5-1.8
		c-1.3-0.8-3-2.3-5-4.3l0.5,1.1c-0.5-0.1-1.6-1.1-3-2.5c-0.7-0.7-1.5-1.6-2.4-2.6c-0.9-1-1.9-2-2.9-3.1c-4.1-4.4-8.9-9.8-13.2-14.2
		l2.8,3.4c-2.4-2.3-5.4-6-8.1-9.8c-2.7-3.8-5.3-7.7-7.2-10.4c-0.8-1.2,1.5,1.7,2.8,3.3c-5.1-7.1-5.5-7.5-5.7-7.3
		c-0.2,0.1-0.2,0.8-4.1-4.5c-1.1-2.2,2.5,2.1-2.5-5.2c-1-1.7-4.3-6.1-8.2-11.3l-4.2,2.6c2.1,3.5,4.6,7,6.9,10.4
		c2.3,3.4,4.4,6.8,6,9.7c-1.2-2.4-2.4-4.8,1,0.3c2.6,3.9,5.8,9.4,9.2,14.7c3.5,5.3,7.1,10.2,10.1,13.3c0.7,1,0.9,1.4,0.9,1.5
		c2.3,2.7,5.8,7.2,9.2,11.4c1.7,2.1,3.4,4.2,4.9,5.9c1.5,1.7,2.9,3,3.8,3.7l1.7-1.6c-0.1-0.1-0.1-0.1-0.2-0.1
		c-0.9-1.5-3.4-4.2-6.6-7.3c-3.2-3.1-7-6.7-10.5-10.5c-7-7.5-13-14.7-12.4-15.1c0,0-0.9-1.1-2.2-2.7c-1.3-1.6-3-3.7-4.7-5.9
		c-3.4-4.3-6.7-8.7-6.7-8.7l0.5,0.4c-4.2-5.6-7-9.5-9.3-12.3c-2.3-2.8-3.8-4.7-5.3-6.6c-0.4-0.6-0.5-1-0.6-1.1l-2.3,1.7
		c0.3,0.4,0.1,0.3-0.1,0.1l2.5-1.8c0.2,0.2,0.4,0.5,0.4,0.5c-0.1-0.2-0.3-0.4-0.3-0.6l-2.7,2c1.5,1.7,2.5,3.6,3.4,5.3
		c0.9,1.7,1.7,3.4,2.5,4.8c1.5,2.9,2.8,5.3,4.2,7.5c2.6,4.5,5.2,8.6,10.1,15.6l0.5,1.8c1.4,1.9,5.1,8.3,10.4,16.2
		c2.6,3.9,5.6,8.2,9,12.3c0.8,1,1.7,2,2.6,3.1l1.4,1.5l0.6,0.7l0.6,0.7c0.8,1,1.7,2,2.7,3c1,1,2,1.9,3.4,2.7
		c-0.2-0.1-0.8-0.2-2.2-1.4c0.6,0.5,1.1,0.9,1.9,1.4c0.7,0.4,1.5,0.8,2.6,1l5.7,0.8l-4-4.1c-3.9-4.1-8.4-8.1-12.5-12.3
		c-4.1-4.2-8-8.7-11.6-12.7c-7.2-8.2-13-15.1-16.1-17.6c0,0-2.5-2.8-4.8-5.7c-2.4-2.9-4.7-5.8-4.7-5.8c11.6,15.4-2.4-1.8,2.2,4.7
		c-4.8-5.9-11-16.3-5.6-8.7l0.8,1.2c1.4,1.1-2.1-3.8-5.5-9.1c-3.5-5.3-6.7-11.2-6.3-11.1c-0.9-1.6-1.7-3.2-2.5-4.7l-2.4,2.1
		c1.4,1,2.6,2.8,3.7,4.6c0.5,0.9,1.1,1.9,1.6,2.8c0.5,1,1.1,2,1.7,2.9c2.3,3.7,4.5,7.5,6.6,11.3c4.4,7.5,8.7,15.1,13.4,22.3
		c4.7,7.2,9.7,14.2,14.9,20.9c2.6,3.4,5.3,6.7,7.9,9.9c1.3,1.5,2.6,3.3,4,4.9c0.7,0.8,1.5,1.6,2.3,2.4c0.9,0.8,1.8,1.5,3,2.2
		l2.5-3.4c-0.7-0.7-1.3-1.4-2-2.1c0.5,0.8,1.1,1.6,1.6,2.4l-1.9,2.6l-0.7-0.5l-0.6-0.5l0.6,0.4l0.7,0.4l1.6-2.2
		c-2.5-2.8-5.3-5.4-8-7.9c-2.3-2.3-2.8-3.4,3.7,2.7c-1.6-1.8-4.4-4.2-6.7-6.3c-2.3-2.1-4.3-3.8-4.4-3.9c-5.8-6.4-4.5-5.3-2.2-3.1
		c2.3,2.2,5.7,5.5,3.8,3.6c0,0-1.3-1.3-2.5-2.6c-1.2-1.3-2.5-2.6-2.5-2.6l1,1.2c-4.2-4.1-4.8-4.2-11.7-12.3c-4.2-5.3-1.9-2.9-3.6-5
		c0,0-0.1-0.2-0.5-0.7c-0.4-0.5-1.1-1.3-2.1-2.5l-10-12.1l3.6,5.2c-4.7-5.2-9.4-11.4-5.3-5.4c-1.4-2.1-4.2-5.7-7.7-10
		c-3.5-4.4-7.7-9.5-11.4-14.8l-2.7,1.8c3.9,6.4,7.7,12.9,10.7,18.2c3,5.3,5.4,9.3,6.3,10.8c5.4,8.2,10.9,16.2,18.5,25.5
		c-0.9-1.2-1.5-2.2-1.1-2c0.4,0.3,1.9,1.8,5.2,5.7c-1.4-0.8,0.2,1.4,3.1,4.7c1.4,1.6,3.1,3.5,4.9,5.5c0.9,1,1.8,2,2.8,3
		c1,1,2,1.9,3.2,2.7l2.3-2.6c-1.6-2.2-3.2-3.9-4.3-5.3c1.2,1.5,0.5,0.9-1.1-0.7c-1.7-1.5-4.3-3.8-6.8-6.1c-4.9-4.6-9.3-9-5.6-4.6
		c-5.9-6.2,0-0.7-4.3-5.6c-3.4-3.4-6.8-7.1-10.3-11c-3.4-3.9-6.9-8.1-10.5-12.4c-3.6-4.3-7.2-8.6-10.9-13.1
		c-3.7-4.3-7.2-9.1-12-13.3l-3.3,2.5c0.7,1.4,1.4,2.7,2.3,4c0.2,0.1-0.3-0.8-0.3-1.1c-0.1-0.4,0.2-0.1,1.8,2.1c0,0,0.4,0.7,1.1,1.8
		c0.7,1.1,1.6,2.5,2.5,3.9c1.8,2.8,3.5,5.7,3.5,5.7c3,4,3.5,3.1,8.3,10.9c-0.6-1.1-1.6-2.8,0.4-0.1l2.4,3.5l2.5,3.4
		c1.7,2.3,3.4,4.6,5,6.8l2.5,3.4l1.3,1.7l0.6,0.9c0.2,0.3,0.5,0.6,0.7,0.9c0.9,1.1,1.8,2.2,2.6,3.3c0.4,0.5,0.8,1.1,1.1,1.6
		c0.3,0.5,0.6,1.1,0.6,1.4l2.3-1.9c-2.5-1.1-4.7-3.1-6.8-5.2l-3.3-3.3l-3.3-3.3c-4.4-4.4-8.8-8.8-13.2-13.2
		c-8.7-8.8-16.7-18.4-24.9-27.8l-3.9-4.5l1.1,5.9c0.2,1,0.8,1.9,1.5,2.6l-0.2-0.3c0.9,1.4,1.8,2.8,2.6,4.2l0.6,1.1
		c0.2,0.4,0.4,0.8,0.6,1.2l1.3,2.2c1.7,2.9,3.4,5.9,5.2,8.8c3.6,5.9,7.7,11.3,11.5,16.8c-3.8-5.6-1-2,2.1,2.1
		c-1.9-2.7,0.4-0.2,0.2-0.9c1.1,1.6,2.2,3.1,3.2,4.7l1.6-2.2c-0.8-0.3-1.8-0.9-2.7-1.7l-2.9-2.5c-1.9-1.6-3.7-3.4-5.5-5.1
		c-1.6-1-5.7-4.9-9.6-8.7c-1.9-1.9-3.8-3.8-5.4-5.2c-1.6-1.4-2.9-2.4-3.4-2.7c0,0,1.3,1.1,2.5,2.2c1.2,1.1,2.5,2.3,2.5,2.3
		c-3.5-2.8-1.5-0.4,1.1,2.8c2.6,3.2,5.9,6.9,5.1,6.8c2.2,1.8,4.7,4.2,7.4,6.8c1.4,1.3,2.9,2.7,4.5,4c0.8,0.7,1.5,1.3,2.4,2.1
		c0.9,0.7,1.9,1.5,3.3,1.9l4,1.2l-2.3-3.6c-3.5-5.4-7.8-10.8-12.2-16c-1.9-3,2,2.3,1.1,0.6c-2.7-3-5.6-7.1-10.2-15.1l0.6,0.8
		c-1.2-2-2.3-3.9-3.3-5.6c-1-1.9-2.1-3.5-3.1-5l-0.1-0.1l-0.1-0.1c-0.3-0.3-0.4-0.6-0.5-0.8l-2.8,1.4c5.6,6.5,10.3,12,15.5,18
		c2.6,3,5.4,6.1,8.6,9.5c3.2,3.4,6.7,6.9,10.8,11l-1.2-1.9c4.4,4.5,5.2,5.5,7.2,7.7c5.6,4.6-12.4-12.5-7.2-8.4
		c1.3,1.6,3.8,4.4,7,7.6c0.8,0.8,1.6,1.7,2.5,2.5c0.8,0.9,1.7,1.8,2.7,2.7c1.9,1.8,4.1,3.7,6.9,5l3,1.3l-0.7-3.2
		c-0.2-1-0.6-1.7-1-2.4c-0.4-0.7-0.8-1.3-1.2-1.8c-0.8-1.1-1.7-2.2-2.5-3.2c-0.2-0.2-0.4-0.5-0.6-0.7c-0.2-0.2-0.3-0.4-0.5-0.7
		c-0.4-0.5-0.7-1-1.1-1.5c-0.7-1-1.4-1.9-2-2.8c-2.5-3.5-4.4-6.3-5.1-7.6c-5.8-7.7,1.2,2.6-4.5-5.1l-1.2-2.3l-1.7-1.8
		c-3.6-5.2-5.2-8-5.1-8.3c0.9,1.3,2.6,3.5,3.6,4.8c-2.3-3.4-5.6-8.1-8.7-12.2c-1.6-2.1-3-3.9-4.1-5.4c-1.1-1.5-1.7-2.7-2-3.2
		c0,0,0.2,0.5,0.6,1.2c0.4,0.7,1,1.6,1.6,2.6c1.2,1.8,2.6,3.7,2.6,3.7c-2.1-2.8-4.2-5.5-5.7-8.5l-3.4,2.6c4.3,3.7,8,8.7,12.1,13.4
		c4.1,4.7,8.2,9.5,12.2,14.3c4.1,4.7,8.1,9.5,12.2,13.9c4.1,4.4,8.2,8.7,12.2,12.5l-1.2-1.5c5.4,5.3,8.4,8,10.9,10.3
		c2.4,2.3,4.4,4.2,7.4,7.9l2.1-2.4c-0.9-0.6-2-1.5-3.2-2.7c-1.2-1.2-2.6-2.7-4.2-4.4l0.6,0.5c-0.8-0.8-1.6-1.6-2.5-2.5
		c-0.9-0.9-1.8-1.8-2.7-2.7c-1.8-1.9-3.7-4.1-5.6-6.3c1.8,2,0.3,0-1.1-1.9c-1.4-1.9-2.5-3.6-0.2-1c-3.4-4-5.3-6.5-6.7-8.2
		c-1.3-1.7-2-2.6-2.5-3.2c-0.5-0.7-1-1.1-1.8-2.1c-0.8-1-2-2.5-4-5.3l-1.4-2.9c-2.7-3.9-3.1-4.1-8.5-13.2c4.6,7.4-2.9-6.2,2.3,2.1
		c-4.2-7.9-7.8-14.1-11.1-19.1l-3.1,2.1c2.7,3.6,5.2,6.6,7.3,9.3c2.2,2.7,4.1,5.2,5.8,7.8c3.7,3.6,0.7-0.2-2.7-4.4
		c-3.4-4.2-7.1-8.9-5.3-6.7c-1.3-2,0.1-0.4,2.4,2.3c2.4,2.7,5.7,6.6,7.9,9.3c4.5,5.5,6.7,10.2,18.2,23.9c-1.1-1.4-1.3-1.4-2.4-2.8
		c4.1,5.4,8.7,9.9,13.9,16.3c3.6,3,7.3,7.9,8.8,8.3c0,0-2.9-2.9-5.8-5.9c-2.8-3-5.6-6.1-5.6-6.1c3.2,3.4,6.4,6.6,10.3,10.3
		c1.9,1.8,4,3.8,6.3,5.9c2.3,2.1,4.8,4.4,7.4,7.3c-0.9-0.8-4.3-3.8-6.7-5.8c2.5,2.6,5.1,4.7,7.4,7.4l1.5-2.1
		c-0.6-0.3-1.3-0.8-1.9-1.4c0.3,0,1,0.6,2,1l-2,2.7c-1.9-1.9-5.3-5.2-9.1-8.7c-3.8-3.5-7.6-7.5-10.5-10.3c1.5,1.9,4.9,5.3,7.5,7.7
		c2.6,2.4,4.3,3.9,2.1,2.5c3.1,2.2,6.5,5.2,9.8,8.9l2.4-3.2c-0.7-0.4-1.6-1.1-2.5-1.9c-0.9-0.8-1.7-1.8-2.6-2.8
		c-0.9-1-1.8-2.1-2.7-3.2c-1-1.1-2-2.1-3-3.2l0.9,0.3c-1.3-1.4-3.9-4.3-6.1-7.1c0,0,1.1,1.2,2.2,2.3c1.1,1.1,2.2,2.3,2.2,2.3
		c-6.6-7.3-11.2-15.1-16.7-22.7c5.6,8.1,6.2,9,5.8,8.8c-0.3-0.1-1.6-1.4,0.8,2c-3.7-4.8-5.9-8-7.5-10.4c-1.5-2.4-2.4-4-3.3-5.7
		c-1.8-3.4-3.7-7.1-10.6-18.8c1.9,3.2,6.8,12,3.7,7.2c-2.6-4.5-5.8-10.5-7.3-13.4c-9.5-15.5,1,2.6-3.2-3.8c-0.6-1.3-1.3-2.5-1.8-3.4
		c-0.5-1-1.1-1.9-1.7-2.9c-0.6-1-1.3-2-2.2-3.1c-0.9-1.1-1.9-2.4-3.6-3.6l-2.5,2.2c0.2,0.4,0.5,0.8,0.7,1.3l-0.4,0.3
		c2.4,4.7,3.9,7.2,4.9,8.7c1,1.5,1.4,2,1.8,2.4c0.8,0.8,1.3,1.5,6.5,9.3c0,0-1.3-1.5-2.5-3.1c-1.2-1.6-2.5-3.1-2.5-3.1
		s0.3,0.5,0.9,1.3c0.5,0.8,1.2,1.8,1.9,2.8c1.4,2,2.8,4,2.8,4l-1.6-1.3c3.2,4.2,5.4,7,7.5,9.7c2.1,2.7,4.2,5.5,7.4,9.5
		c-1.3-2.1,1.5,0.5,7.5,7.4c3.9,4.9-2.7-2.3,6,7.4c-2.2-2-4.6-4.1-7.9-8.7c-0.5-0.3-2.1-2-2.6-2.4c4.1,5.4,11,12.8,14.2,16.3
		c-1.2-1.3-2.6-3-3.3-3.8c0,0,3.3,3.4,6.6,6.7c1.7,1.6,3.4,3.3,4.6,4.5c1.3,1.2,2.2,2,2.2,2c2,2.2,0.2,0.7-1.6-0.9
		c2.7,2.7,4.9,4.3,8.9,8.2c-1.3-0.7-1.3-0.1-7.2-5.5c4,3.7,8,7.1,11.6,10.8l2.3-4.4c-0.1,0-0.4-0.1-0.7-0.3c-0.1-0.1-0.5-0.4-1-1
		c-0.5-0.5-1.1-1.2-1.6-1.9c-1.1-1.4-1.9-2.6-1.1-1.7c-0.7-0.9-1.8-2.1-2.6-3c-0.9-1-1.8-2-2.8-3.1c-1.9-2.2-3.8-4.5-5.8-7
		c-3.9-5-7.8-10.6-11.2-16.2c-0.4-0.5-1.2-1.6-2.8-4c-3.3-5.2-6.2-10.2-9.1-15.4c-1.5-2.6-3-5.3-4.6-8.2c-0.8-1.4-1.6-2.9-2.4-4.4
		c-0.8-1.5-1.7-3.1-2.8-4.8c-0.6-1.2-1.4-2.5-2.3-3.7l-4.7,3.4c0.7,1.4,1.4,2.8,2.2,4.1c3.5,4.7,2,2.2,1.1,0.6
		c-0.5-0.8-0.8-1.5-0.2-0.9c0.5,0.6,1.9,2.3,4.8,6.1c8.2,10.7,2.5,4.4,5.2,8.3c2.2,2.6,5.1,6.1,8.5,10.2c3.4,4.1,7.3,8.8,11,13.7
		C351.7,248.1,349.7,245.6,347.3,242.6z M332.5,210.9c-0.6-0.8-1.4-1.9-2.3-3.1l4-2.5c1.2,2,2.7,4.2,3.2,5.3
		c-1.4-1.6-2.4-3.1-3.5-5.2l-3.5,2.1C331.1,208.6,331.7,209.7,332.5,210.9z M372.8,244.9c-1.6-1.3-3.7-3.6-6-6.3
		C368.5,240.4,370.5,242.5,372.8,244.9z M407.7,238.5c0.1,0.1,0.1,0.1,0.2,0.2C411.8,243.5,410.4,241.8,407.7,238.5z M400.1,228.2
		c-0.8-1-0.8-0.9-0.5-0.4c0.6,0.6,2.3,2.9,4.2,5.6C403.3,232.6,402.4,231.2,400.1,228.2z M336.5,245.9l1.5,2
		C334.3,243.7,335.4,244.8,336.5,245.9z"/>
	<path class="st0" d="M355.6,227.5c-0.5-0.6-0.5-0.9-0.6-1C354.3,225.7,354.2,225.7,355.6,227.5z"/>
	<path class="st0" d="M350.3,245.7l0.2,0.4c0.2,0.2,0.2,0.3,0.3,0.3L350.3,245.7z"/>
	<path class="st0" d="M422.8,266.7c-1.9-1.8-3-2.8-3.6-3.5C419,263.2,419.8,264,422.8,266.7z"/>
	<path class="st0" d="M419.3,234.5l-5.8-5.7c2.7,2.7,3.7,3.9,5,5.3C418.5,233.9,417.5,232.7,419.3,234.5z"/>
	<path class="st0" d="M411.5,221.8c-0.8-0.9-1.5-2-2.2-2.9l0,0.4C412.3,223.3,414.5,226.1,411.5,221.8z"/>
	<path class="st0" d="M423.4,240.9c0.2,0.7,3.9,4.2,8.3,7.6c-0.3-0.2-0.5-0.4-0.8-0.6c0.8,0.3,0-0.4-1.5-1.7
		C427.9,244.9,425.6,242.9,423.4,240.9z"/>
	<path class="st0" d="M432.7,249.3c1.4,1,2.8,2,4.2,2.9C437.7,252.4,435.2,251.1,432.7,249.3z"/>
	<path class="st0" d="M390.3,215.7c-1.7-2.1-1.5-1-2.4-2.3c-0.6-0.6-0.1,0.1,0.8,1.2c0.9,1,2.2,2.4,3.1,3.4c0.9,1.1,1.7,2,1.7,1.8
		c0-0.1-0.2-0.4-0.7-1.1c-0.3-0.3-0.6-0.8-0.9-1.2C391.4,216.9,390.9,216.4,390.3,215.7z"/>
	<path class="st0" d="M425.8,245c0,0-0.3-0.4-0.6-0.9c-0.3-0.4-0.6-0.9-0.6-0.9l-2.6-1.9c0,0,0.9,0.9,1.8,1.8
		C424.9,244.1,425.8,245,425.8,245z"/>
	<path class="st0" d="M394.7,212.7c0,0,1.6,1.6,3.1,3.3c1.5,1.7,3.1,3.3,3.1,3.3c0-0.2,0.8,0.6,1.8,1.7
		C398.9,216.9,394.7,212.4,394.7,212.7z"/>
	<path class="st0" d="M402.7,221c2,2.1,3.9,4.1,5.1,5.3C406.7,225.1,404.4,222.6,402.7,221z"/>
	<polygon class="st0" points="416.9,236.4 415,234.4 410.6,229.8 	"/>
	<path class="st0" d="M410,239.4c0,0-1.7-1.8-3.5-3.5c-1.7-1.8-3.4-3.6-3.4-3.6c-0.8-0.6,0.9,1.4,3.5,4.1
		C408.3,238,410.9,240.6,410,239.4z"/>
	<path class="st0" d="M423.7,251.9c1.7,2,1.8,2.2,2.7,3.4l0.6-0.2c0,0-0.9-0.8-1.7-1.6C424.5,252.7,423.7,251.9,423.7,251.9z"/>
	<path class="st0" d="M409.6,241.2c-0.8-0.6-10.3-10.1-1.6-1C408.8,240.9,415.9,247.9,409.6,241.2z"/>
	<polygon class="st0" points="412.3,255.3 414.2,257 414.6,256 	"/>
	<path class="st0" d="M408.5,257.2c-3.8-4.4-4.4-4.8-4.9-5.2c-0.5-0.3-0.9-0.5-4.2-4.6c-1-1,0.4,0.7,1.7,2.4
		c1.4,1.7,2.7,3.3,1.7,2.3C407.8,257.2,410.2,260,408.5,257.2z"/>
	<path class="st0" d="M402.9,252.1c-0.8-0.8-1.6-1.7-2.5-2.6C401.8,251,402.5,251.7,402.9,252.1z"/>
	<path class="st0" d="M284.6,231.9c0,0-1.3-1.4-2.6-2.7c-1.3-1.4-2.7-2.7-2.7-2.7s0.8,0.9,1.7,1.8c0.8,0.9,1.7,1.8,1.7,1.8
		L284.6,231.9z"/>
	<path class="st0" d="M273.2,222.6c0,0-0.3-0.4-0.5-0.8c-0.3-0.4-0.6-0.8-0.6-0.8l-1.5-0.8l-6.5-3.5l3.4,6.2c0.3,0.6,0.7,0.9,1,1.2
		c0.3,0.2,0.6,0.4,0.7,0.4c0.2,0.1,0.5,0.3,0.5,0.5c0-0.2-0.2-0.5-0.3-0.6c-0.1-0.1-0.3-0.2-0.6-0.5c-0.3-0.2-0.7-0.6-1-1.2
		l-3.1-6.1l5.7,3.9C271.6,221.2,272.7,222.1,273.2,222.6z"/>
	<path class="st0" d="M343.6,228.9l0.5,0.4c-0.6-1.1-1.6-2.5-3.7-5.4L343.6,228.9z"/>
	<polygon class="st0" points="378.7,268.4 377.6,267 379.2,269.9 	"/>
	<path class="st0" d="M330.2,222.4c2.1,2.9,4.6,6.1,6.7,9C332.3,225.2,330.3,221.2,330.2,222.4z"/>
</g>
</svg>
