<?xml version="1.0" encoding="utf-8"?>
<!-- Generator: Adobe Illustrator 26.0.2, SVG Export Plug-In . SVG Version: 6.00 Build 0)  -->
<svg version="1.1" id="Objects" xmlns="http://www.w3.org/2000/svg" xmlns:xlink="http://www.w3.org/1999/xlink" x="0px" y="0px"
	 viewBox="0 0 800 800" style="enable-background:new 0 0 800 800;" xml:space="preserve">
<style type="text/css">
	.st0{fill:#FFFFFF;}
</style>
<g>
	<path class="st0" d="M782.4,517c-1-0.2-1.4-0.4-1.6-0.4c-0.3,0-0.3,0-0.4,0.1c0,0.1,0,0.1,0,0.2c0,0,0,0,0,0.1l0,0c0,0,0,0.1,0,0
		c0-0.1,0-0.1,0-0.2l0,0.3l0,0l0,0l0.1,0c0.1,0,0.2,0,0.3,0.1c0.2,0.1,0.4,0.1,0.6,0.2c0.4,0.1,0.8,0.2,1.1,0.2c0.7,0.1,1,0,0.9-0.1
		c0-0.1-0.3-0.1-0.6-0.2C782.6,517,782.4,517,782.4,517z"/>
	<polygon class="st0" points="738.6,509 739.5,508.9 732.4,508.9 	"/>
	<path class="st0" d="M694,506.3c4.2,1,16.2,0.8,24.1,1.6l1.3,0.2l3.6-0.4C713.4,507.3,700.8,506.9,694,506.3z"/>
	<path class="st0" d="M670.3,503.4c1.4,0.4-5.2-0.1,5.5,0.4c-0.5-0.1-0.7-0.1-1-0.1C673.9,503.6,672.5,503.5,670.3,503.4z"/>
	<path class="st0" d="M674.8,503.6C679.5,503.9,671.8,503.2,674.8,503.6L674.8,503.6z"/>
	<path class="st0" d="M653.1,502.4l6.2,0.2c-1.3-0.3-6.8-0.7-4.7-0.7C648.2,501.6,649.5,501.8,653.1,502.4z"/>
	<path class="st0" d="M647.2,502.5l3.2,0.1C649.9,502.5,649,502.4,647.2,502.5z"/>
	<path class="st0" d="M657.3,502.9l-6.8-0.3c0.9,0.2,1,0.4,3.1,0.1C653,502.9,654.4,502.8,657.3,502.9z"/>
	<path class="st0" d="M661.1,503.3c3.5,0.4,7.9,0.8,1.7,0.6c5.9,0.3,8.5,0.3,8,0.2C670.4,503.9,667,503.6,661.1,503.3z"/>
	<path class="st0" d="M691.7,506.9l4.6,0.5l4,0C698.3,507.4,691.4,506.7,691.7,506.9z"/>
	<path class="st0" d="M614.5,499.7c-0.4,0.1,2.1,0.5,2.5,0.7l4.6,0C619.2,500.2,614.8,499.9,614.5,499.7z"/>
	<path class="st0" d="M617,500.4l-6.9,0C616.2,500.6,617.4,500.6,617,500.4z"/>
	<polygon class="st0" points="646.1,503.2 657.3,503.4 643.9,503 	"/>
	<polygon class="st0" points="588.2,499.3 592,499 585.1,499.5 	"/>
	<path class="st0" d="M570.8,499.4c2.9-0.3-4-0.5-0.9-0.7c-4.7,0.1-8.8,0.3-12.4,0.6C561.3,499.2,565.4,499.2,570.8,499.4z"/>
	<path class="st0" d="M551.4,499.7c1.9-0.1,3.9-0.2,6.1-0.3C555.4,499.4,553.4,499.5,551.4,499.7z"/>
	<path class="st0" d="M598.4,500.1c-0.5-0.1-1.6-0.3-5.4-0.4l2.7,0.4C596.5,500.1,597.4,500.1,598.4,500.1z"/>
	<path class="st0" d="M595.8,500.1L595.8,500.1c-3,0-5.1,0-5.9,0C590.6,500.1,592.4,500.1,595.8,500.1z"/>
	<path class="st0" d="M599,500.1c-0.3,0-0.4,0-0.7,0C598.6,500.2,598.8,500.2,599,500.1z"/>
	<path class="st0" d="M628.1,501.6c-4,0-12.5-0.1-4.3,0.6C626.7,502.1,622,501.6,628.1,501.6z"/>
	<path class="st0" d="M602.4,500.7c0,0,1.8,0.1,3.7,0.1c1.8,0.1,3.7,0.1,3.7,0.1c-0.1-0.1-1.5-0.3,0.6-0.4c0,0-2,0-3.9,0
		C604.4,500.6,602.4,500.7,602.4,500.7z"/>
	<path class="st0" d="M598.8,500.8c0,0,0.9,0,1.8-0.1c0.9,0,1.8,0,1.8,0l-2.7-0.1L598.8,500.8z"/>
	<path class="st0" d="M563.9,500c-3.1,0.2-6.6,0.2-10.5,0.3c4.2,0.1,8.5,0.1,12.6,0.1C566.5,500.2,568.3,500,563.9,500z"/>
	<path class="st0" d="M579.4,500.1c-0.2,0-0.5,0-0.7,0C579.1,500.2,579.4,500.2,579.4,500.1z"/>
	<path class="st0" d="M515.1,500.6c0.2,0,0.4,0,0.6,0.1c0,0,0.1,0,0.1-0.1L515.1,500.6z"/>
	<path class="st0" d="M566.7,500.5c3.1,0.1,5,0,6.8-0.2c-2.3,0-4.8,0.1-7.5,0.1C565.7,500.4,565.6,500.5,566.7,500.5z"/>
	<path class="st0" d="M540.7,499.9c1.6,0.1,3.5,0.2,5.4,0.2C544.5,500,541.2,499.8,540.7,499.9z"/>
	<path class="st0" d="M577.6,500c0.2,0,0.3,0,0.5,0C577,499.9,577.2,500,577.6,500z"/>
	<path class="st0" d="M577.6,500c-1.6,0.1-2.9,0.2-4.2,0.3c1.9,0,3.7-0.1,5.2-0.2C578.3,500.1,577.9,500.1,577.6,500z"/>
	<path class="st0" d="M503.5,503.4c0.6-0.4,8.8-0.7,15.9-0.4c7-0.4,2.4-1.6-3.7-2.3c-0.2,0.2-0.2,0.3-7.4,0.6
		c2.5,0.2,16,0.4,9.9,0.8c-9.5,0.3-7.8-0.1-12.4-0.3c2,0.2-1.1,0.4-4.3,0.6c-3.3,0.2-6.8,0.4-5.7,0.8l8.4-0.2
		C504.2,503.1,501.2,503.3,503.5,503.4z"/>
	<path class="st0" d="M529.4,500.6l3-0.1c-3.4,0-5.8-0.1-10.2-0.4c-4.9,0.3-5.9,0.4-6.3,0.5l14.6-0.1L529.4,500.6z"/>
	<path class="st0" d="M545.7,500.4c-2.3,0.4-9.4,0.7-5.1,1.1c8.7,0,6.1-0.4,11.3-0.6c-14,0.1,4-0.2-6.1-0.5c2.8-0.1,5.2-0.1,7.6-0.1
		c-2.5-0.1-5-0.1-7.3-0.2c0.1,0,0.2,0,0.3,0l0.1,0l0,0c0.6,0.1,0.8,0.1,0.1,0.1c0,0-0.2,0-0.3,0C546.2,500.3,546,500.3,545.7,500.4
		c-4.1-0.1-0.6-0.1,0.6-0.2c0,0,0.2,0,0.2-0.1c0,0,0,0-0.1,0c0,0-3.5,0.1-7,0.1c-3.5,0.1-7,0.2-7,0.2
		C535.3,500.5,539.1,500.4,545.7,500.4z"/>
	<path class="st0" d="M616.2,502.8c-0.4-0.1-0.4-0.1-0.4-0.1C614.9,502.7,614.5,502.7,616.2,502.8z"/>
	<path class="st0" d="M610.5,502.4c1,0,1.9-0.2,5.2,0c2.9,0.2,0,0.2,0.1,0.4c2,0,7,0,0.7-0.5l-1,0c-5.7-0.4-12.9-1-11.9-1.1
		C605.2,501.6,606.7,501.9,610.5,502.4z"/>
	<path class="st0" d="M577.7,501.4l-11.7,0.2l6,0.4l-0.3-0.2C578.3,501.8,576.8,501.5,577.7,501.4z"/>
	<polygon class="st0" points="513.8,500.4 515.3,500 508.6,500.6 	"/>
	<polygon class="st0" points="498.6,500.5 499.2,500.1 495.2,500.3 	"/>
	<path class="st0" d="M598.6,530.7l3.4,0.3C600.5,530.8,599.4,530.7,598.6,530.7z"/>
	<path class="st0" d="M573.9,527.5l-0.6,0.1C574.4,527.7,574.9,527.6,573.9,527.5z"/>
	<path class="st0" d="M735.6,542.1c4.8,1.6,10.1,3.4,9.6,2.9l-1.4-0.8C740.4,543.4,737.8,542.8,735.6,542.1z"/>
	<path class="st0" d="M563.4,524c0.5,0.1,1,0.2,1.5,0.2c1.2-0.1,2.4-0.1,3.4-0.2C566.8,524,565.1,524,563.4,524z"/>
	<path class="st0" d="M559.7,525.6l-6.6-0.7C554.6,525.1,556.7,525.3,559.7,525.6z"/>
	<path class="st0" d="M665.7,553.6l-4,0.2C667.9,554.2,665.2,553.7,665.7,553.6z"/>
	<path class="st0" d="M521.2,508.7c4.3,0.5,7.7,0.9,10.7,1.2C526.7,509.1,522.6,508.4,521.2,508.7z"/>
	<path class="st0" d="M588.4,534c2.1,0.2,3,0.2,2.9,0.1C589.1,533.9,587.9,533.8,588.4,534z"/>
	<path class="st0" d="M544.3,510.9c-0.8-0.1-1.5-0.2-2.3-0.3c-3.1-0.2-6.3-0.4-10.2-0.8C535.7,510.3,540.1,510.8,544.3,510.9z"/>
	<path class="st0" d="M494.6,558.7c-0.4,0-0.8,0-1.1,0C493.4,558.8,493.9,558.8,494.6,558.7z"/>
	<path class="st0" d="M516.7,565.4c1.4-0.2,3.7-0.5,5.9-0.8C521.5,564.7,519.7,564.9,516.7,565.4z"/>
	<path class="st0" d="M437.4,498.6C440.7,498.6,437.9,498.6,437.4,498.6L437.4,498.6z"/>
	<path class="st0" d="M453.1,500.7c-0.7,0-1.2,0.1-1.3,0.2C452.1,500.7,452.5,500.7,453.1,500.7z"/>
	<path class="st0" d="M576.5,511.4c0.1,0,0.2,0,0.3,0C575.9,511.3,576,511.3,576.5,511.4z"/>
	<path class="st0" d="M442.3,498.9c-1.2-0.1-2.6-0.1-4.1-0.2C438.8,498.7,440.1,498.8,442.3,498.9z"/>
	<path class="st0" d="M441.6,498.7c1.1,0,2,0.1,2.8,0.1C444.9,498.7,444.5,498.6,441.6,498.7z"/>
	<path class="st0" d="M432.9,498.6c1.9,0,3.6,0,5.2,0.1c-0.6,0-0.9-0.1-0.7-0.1C436.5,498.6,435.1,498.6,432.9,498.6z"/>
	<path class="st0" d="M488.8,543.5c0.2,0,0.5,0.1,0.7,0.1C492.7,543.5,491.3,543.5,488.8,543.5z"/>
	<path class="st0" d="M733.7,546.6c0.2,0,0.2,0,0.4,0c-0.2,0-0.3-0.1-0.5-0.1L733.7,546.6z"/>
	<path class="st0" d="M722.1,545.4c5,0.1,7.8,0.6,11.5,1.1l-3.7-1.7L722.1,545.4z"/>
	<path class="st0" d="M657.5,540.9l-7.9-2.1c9.7,1.5,16.6,3,9.2,1c-0.3,0.3-2.4,0-5.4-0.5c-3-0.5-6.9-1.4-10.7-2.2
		c-7.8-1.6-15.6-3-16.3-2.5l-5.3-1.2c1.5,0.3,1.8,0.2,3.3,0.5c-5.1-1.2-7.1-1.3-9.4-1.3c-2.4-0.1-5.1,0-11.7-1
		c-4.6-0.7-7.9-1.3-4.7-1.1l-10.4-1c-3-0.4-2.2-0.5,0.8-0.1l-15.8-1.9l0.1,0c-2.3-0.1-7.4-0.3-10-0.4c-4-0.6,2,0.1,1-0.2l-8.8-0.6
		c-3.5-0.7,3.8-0.3,9.8,0.4c-8-2.2-7.3-0.4-24.9-3l8.3,0.7c-5.3-1.3-11.7-1.7-21.1-3.1c2.2,0.5,18.6,3.1,9.1,2.5
		c-2.7-0.4-6.2-0.8-11.4-1c0-0.5-5-0.9-11.3-1.5l0.5-0.6c-6.8-0.5-6.3-0.1-10.3-0.3c-7.5-0.8-9.1-1.5-10.8-2.1
		c-12.2-1.2,8.3,1.5-6.1,0.4c-7.4-0.8-13.2-1-20.5-0.9l0,4.4c2.7-0.1,5.6-0.2,8.9-0.3c7.1,0.3-1.2,0.4,1.3,0.6l6.3-0.4
		c1.5,0,1,0.2,0.8,0.3c5.3-0.1,0.4-0.7,8.7-0.6c1.1-0.3,5.4,0,10.6,0.5c5.2,0.4,11.5,1,16.7,0.9c2.5,0.3-1.2,0.3-0.5,0.6
		c14.1,0.2,12.1,0.2,23.7,0.2l9.8,1c-7.2-0.9,2.1-0.9,10.2-0.9c-2.6-0.4-4.7-0.7-6.2-0.9l13,0.5c1.6,0.2,0.2,0.3-1.9,0.5
		c0.9,0,1.7,0,2.4,0c4.6,0.6,2.2,0.8-1.2,0.9c-1.6-0.2-3.1-0.5-4.6-0.7c-3.2,0.2-6.2,0.4-5.6,0.8c0.8,0,2.5,0,4.2,0.1
		c-0.8,0.1-1.4,0.1-1,0.2c0.4,0.1,1.8,0,3.9,0l2.9,0.9l0.7-0.2c0,0,4.2,0.4,8.4,0.8c4.2,0.4,8.4,0.9,8.4,0.9
		c6.1,0.1,11.7,0.2,18.3,0.4c6.6,0.2,14,0.7,23.6,1.7c-4.8,0-1.1,0.7-1.5,1.3c-5.1-1.3-14.8-1.5-24.7-2.5c5.2,0.6,4,0.8,2.7,0.7
		c0,0,4.4,0.3,8.9,0.6c4.4,0.3,8.9,0.7,8.9,0.7c-0.5,0.5,3.7,0.8,8.3,1.6c-3.4-1.4,13.2,1,20.4,1.7c0.4,0.4-1.4,0.5-10.1-0.8
		c9.5,2,12.6,0.5,22,2.5c-2.1-0.3-3.3-0.5-4.1-0.5c5,0.4,17.2,2.4,14.3,2.3l-2.1-0.3c14.1,2.2,43.1,6.4,45.4,5.9
		c0.1,0.1-2,0.7-2.9,0.8c0,0,6.4,0.2,12.9,0.4c6.4,0.1,12.9,0.1,12.9,0.1c-2.3,0.5,6.1,3.2-5.8,2.2c3.4,0.5,7.6,1.1,14.8,1.5
		c-2.3-0.3-5.7-1.6-2.5-1.4c8.6,1.6,6,1,16.7,2.5c-3.5-0.4,0.5-1.3,6-0.8c-0.9,0.1,0.4,1.2-1.6,1.1c1.5,0,3,0,4.5,0
		c1.5,0,2.9,0,4.3,0.2l0.4-2.4c-1.6,0-3.1-0.1-4.7-0.3c3.4,0.3,0.7-0.8-2.2-1.7c0.7,0.2-2.2-0.3-5.7-1.1c-3.5-0.8-7.6-1.9-9.4-2.2
		l5.6,1.6c-3.7-1-6.6-1.5-9-1.9c-2.4-0.4-4.3-0.6-6.2-0.9c-3.8-0.5-7.6-1-15-2.9c1.9,0.2,4.8-0.3-2.7-2.3
		c-3.6-0.3-16.1-1.2-29.4-3.9l-2.5-0.9l-10.2-1.9c6.5,0.5,24.7,2.9,34.5,4.7c-5.6-1.6-1.5-0.8-9.9-2.8c-2.9-1,4.7,0.7,7.2,1.3
		c0,0-4.9-1.2-9.8-2.5c-4.9-1.2-9.8-2.4-9.8-2.4c0.7,0.8-15.3-2.8-14.6-2c0,0,5.4,1,10.8,2.1c5.4,1.1,10.8,2.2,10.8,2.2
		c0.7,0.9-12.8-1.2-26.8-4.2c-3.5-1,2.9-0.6,2.7-0.9c-1.9-0.2-13.4-2.3-14.7-2.7l6.1,0.8c-7.8-1.8-13-1.6-22.4-3.7
		c-3.3-0.6-9.7-2.3-10.3-2c5.2,1.5,5.9,4,2.3,4.1c-0.6-0.1-4.8-0.9-9.4-1.8c-4.6-0.9-9.5-1.7-11.4-2.2c-5.3-1.3,8.3-0.4,3.8-1.5
		c-0.2,0.2-3.2,0-4.5-0.1c-3.4-0.6,1.5-0.4-6-1.2c-1.3,0.5-15.2-1.9-3.6,0.1c-7.4-0.7-7.8-1.1-16.4-2c2.7,0.7-7.9,0.6-15.3,0
		c0.5-0.1-1.2-0.5-2-0.7c-15-1.6-23.1-2.7-37.1-4c-1.3-0.3-8-1.1-5.1-1.1c-2-0.1-3.9,0-8.2-0.3c-8.3-1.3,9.7,0.7,3.3-0.5
		c-0.6,0.3-11.3-0.4-17.5-0.6c1.9,0.7,14.3,1.2,20.5,1.5c0,0.9-10.9,0.8-25.6,0.1c-11.7-0.6-5-0.9-7.1-0.9
		c-21.9-1.7-18.8,0.1-37-1.6c-7.2-0.9-0.3-1.1-1.9-1.6c9.5,0.3,14.6,1.2,21.1,1.6l-7.9-0.8c3,0,9.4,0.3,12.9,0.7
		c-3-0.4-12.3-1.1-22.9-1.7c-10.6-0.6-22.7-1-31.2-1.2c-0.2,0-0.4,0-0.6,0l0,0.7c3-0.2,7.5-0.3,5.2-0.5l-5.2,0l0,0.2l0.2,0
		c1.6,0.1,1.1,0.3-0.2,0.3l0-0.9c2.4-0.2,7.7-0.3,3.1-0.4c7.2-0.3,15.3-0.6,25.5,0l1.9,0.7c-0.2-0.2-6.6-0.6-9.5-0.5
		c4.2-0.2,15.5,1.3,20.2,0.7l-7.1-0.7c7.2-0.1,16.2-0.3,25.2,0c-4.1-0.7-2.1,0-8.4-0.9c5.5,1.1-23-0.8-14.1,0.4
		c-6.5-1.1-11.3-0.8-19.9-1.7c0.3,0.2,3,0.4-4.5,0.2c-0.3,0.1-1.2,0.1-1.7,0.1c-0.2,0-0.3,0-0.5,0c0.2,0,0.3,0,0.4,0
		c-0.3,0-0.4,0,0.2,0c1.8,0.1,3.3,0.3,3.9,0.4c-2.6,0.3-9.4,0.2-14.5,0.4l0,3.3c2.2,0,4.1-0.1,5.3-0.1c4.5,0.2-1.9,0.2,0.6,0.5
		l6-0.2c0.6,0.4,11.8,1.1,1.3,1c0,0,2.4,0.1,4.7,0.2c2.4,0.1,4.7,0.2,4.7,0.2c5.6,0.5,13.2,1,17.9,1.1c4.5,0.4,11.3,0.3,7.4,0.3
		l14.9,0.8l0.1,0.1c14.6,1.1,30.2,1.5,46.8,3.8c4.9,0.3,10,0.7,18.2,1.6l1.6,0.5c6.3,0.5,18.9,2.3,21.7,2.2
		c6.7,1.8,30.6,3.7,41.6,5.3l0.5-0.4c7.6,1,14.9,1.9,24.3,3.2l-0.5-0.5c8.2,0.9,20.7,3.9,33.4,6.6c-0.9,0-4.1-0.8-6.4-1.3
		c14.9,4.1,32.1,6.5,45.6,10.6c3.4,0.7,5.9,1.4,8.3,2.1c-0.3-0.1-0.6-0.1-0.9-0.2c0.3,0.1,0.9,0.2,1.4,0.4c1.5,0.4,3,0.9,4.7,1.4
		c-1.4-0.5-2.8-0.9-3.9-1.2c2.6,0.6,6.6,1.6,10.6,2.4l1.6,0.9c0.3,0.1,0.6,0.1,0.9,0.2c3.8,1.1,3.2,0.5,1.2-0.3
		c2,0.4,3.8,0.7,5.3,0.9c3,1.4,10.3,2.2,14.5,4c1.3,0.1,5.8,1,10.6,1.4l0.6-3.6c-1.5-0.3-2.9-0.4-4.2-0.4c-1.3,0-2.5-0.1-3.6-0.1
		c-2.2,0-3.8,0-4.4,0.2c-0.1-0.1-1.3-0.3,0.9-0.1c-4.5-0.4-8.9-0.9-13-1l-1.8-0.8c0,0-2.5,0-4.9,0c-2.5,0-4.9-0.1-4.9-0.1
		c-5.9-1-8.3-1.5-2.4-1.3c-7.1-0.4-10-0.8-12.6-1.1c-2.6-0.3-5-0.5-11-1.1l0.6-0.3c-4.3-0.6-11.2-1.1-13.8-1.8
		c-9.5-2.1-47.5-7.4-72.2-11c4.7,1.7-11.5-1.9-12.6-1.1c-1.4-0.4-4.9-1-0.8-0.8c-12.7-1.1-19-2.3-27.9-2.3c-1.4-0.4,2.8-0.2,1.5-0.5
		c-1,0-4.1-0.1-5.4-0.4c-1.3-0.3,1.9-0.1,3.9,0c-13-1-14.4-0.2-15.4,0.5c-6.6-0.8-9.8-1-14.6-0.8c-2.3-0.4-6.1-0.9,2-0.5
		c-4.5-0.4-27.7-2-28.2-1.3c-1.4-0.2-6.3-0.4-7.5-0.4c-10.2-0.5-11.1-0.7-21.1-1.1l2.8,0.2c-4,0.6-8.3-0.2-16.4-0.3l0.2-0.1
		c-8.6-0.4-11-0.4-12.9-0.3c-1.9,0-3.4,0.1-10.3-0.1l0,2.6c0.7,0,1.8,0.1,3.1,0.2l-1-0.5c0.9-0.5,4.9-0.3,10,0.3
		c5.1,0.5,11.3,1.4,16.6,1.7l-3.8-0.6c5.8,0.2,15.9,3,21.7,3.7c1.3,0.2-2-0.1-3.8-0.2c15.1,2.2,2-0.4,13.3,0.6
		c2,0.5-2.8,0.6,4.8,1.4c3.8,0.7,22.1,1.2,32.4,2.9c-2.3-0.5-4.5-1,0.8-0.6c4,0.4,9.4,1.1,14.7,2c5.3,0.8,10.5,1.5,14.2,1.6
		c1,0.2,1.4,0.3,1.4,0.4c3.1,0.3,8.1,0.8,12.7,1.3c2.3,0.2,4.6,0.4,6.5,0.6c1.9,0.2,3.5,0.3,4.4,0.3c2.7,1.2,12.1,2.6,20.8,4.2
		c8.7,1.5,16.7,3.1,16.5,3.8c0,0,4.7,1,9.3,1.9c4.7,0.9,9.3,1.8,9.3,1.8l-0.5,0.1c11.9,2.4,16,3.2,20.3,3.8c2.7,0.8,0.7,0.4,0.4,0.4
		c3,0.8,5.3,1.6,7,2.6l0.4-3.3c-0.7,0.2-1.9,0-3-0.2c-0.6-0.1-1.1-0.2-1.8-0.2c-0.5,0-1.1-0.1-1.6-0.1c-2-0.2-3.8-0.3-5.7-0.4
		c-3.7-0.2-7.6-0.3-13.8-0.5l-1.5-0.6c-4,0-25.5-2.6-43-3c0.2,0,0.5-0.1,1.9-0.1c-9.8-0.3-21.5-1.2-31.7-1.7
		c-10.2-0.5-18.8-0.7-22.4,0l-12.9,0c16.7,0.8-2.5,0.7,4.3,1.3c-6.6-0.1-16.9-1.2-8.9-1l1.3,0.1c3-0.8-20.7-1.2-20.2-1.9
		c-13.1-0.6-26-1.5-38.8-2.2c-6.4-0.3-12.8-0.5-19.2-0.5c-3.2,0-6.4,0.1-9.5,0.3c-3.1,0.2-6.2,0.3-9.2,0.2l0.2,4.1
		c0.5,0,1,0,1.8,0.2c0.4,0.1,0.8,0.2,1.2,0.2c0.5,0.1,0.9,0.1,1.3,0.2c1.7,0.2,3.3,0.2,4.9,0.3c1.6,0.1,3.2,0.1,4.7,0.2
		c1.6,0.1,3.2,0.2,4.7,0.3l-3.5-1c0,0,2.7,0.2,5.4,0.4c2.7,0.2,5.4,0.3,5.4,0.3c2.8,0.3,3.8,0.8-3.9,0.3c4,0.7,12.9,0.3,13.1,0.2
		c15,0.9-5.9,0.6-1.3,0.8l6.3,0.2l-1.4-0.1c5.1-0.1,5.5-0.4,14.8,0c5.8,0.3,3,0.5,5.3,0.6c0,0,0.2,0.1,0.7,0.1c0.5,0,1.4,0,2.8,0.1
		l13.5,0.5l-5.4-0.8c6-0.1,12.7,0.5,6.5-0.4c4.6,0.7,17.1,1.3,29.3,2.1c12.1,0.7,23.9,1.4,26.7,1.7c4.2,0,8.4,0,12.8,0
		c2.2,0,4.4,0.1,6.8,0.2l0.9,0.1c0.3,0,0.7,0,1,0c0.6,0,1.2,0,1.8,0c0.6,0,1.2,0.1,1.8,0.1c0.6,0.1,1.1,0.2,1.5,0.3
		c-0.6-0.3-1.4-0.5-1.5-0.6c0-0.1,0.1-0.1,0.5-0.1c0.2,0,0.4,0,0.7,0.1c0.3,0,0.7,0.2,0.9,0.3l0.3-1.1c-0.8,0.3-2.2,0.5-4,0.5
		c0.8-0.4,0.2-0.5-1.3-0.6c-0.7-0.1-1.7-0.1-2.9-0.1c-1.1,0-2.3,0.1-3.7,0.1c-5.3,0.2-12,0.3-15.6,0.1c3.2,0.1-3.1,0.5-8.9,1.1
		c-5.8,0.6-11.2,1.1-6.1,1.1c-7.4,0.5-0.5-0.4-6.1-0.4c-8.7,0.9-18.3,0.8-28.6,0.7c-10.2-0.2-21-0.3-31.9,0.1
		c-0.3,0.2,3.3,0.4-1.3,0.7c0,0-2.9-0.1-5.8-0.3c-2.9-0.1-5.8-0.2-5.8-0.2c-4.3,0.3-4,1.1-11.9,1.2c1.1,0,2.8,0.1-0.1,0.4
		c-5,0.4-10,0.8-15,0.6l-0.1,3.3c3.7,0.1,7.1-0.6,10.4-0.6c3.4-0.1,6.8,0,10.3,0c6.9,0.2,13.8,0.5,20.7,0.8
		c6.9,0.4,13.8,0.9,20.7,1.7l5.2,0.6l5.2,0.5c3.4,0.4,6.7,0.9,9.8,2.1l0-3c-0.9,0.3-2.2,0.4-3.5,0.5l-4,0.3
		c-2.7,0.2-5.3,0.4-7.9,0.6c-5.4,0.3-10.7,0.8-16,1.2c5.9-0.4,2,0.1-2.5,0.7c2.9-0.3,0,0.4,0.6,0.6c0,0-4.5,0.4-9,0.8
		c-4.5,0.4-9.1,0.9-9.1,0.9c-1.6,0.6-6.4,1.3-11,2.2c-2.3,0.4-4.6,0.8-6.4,1.2c-0.9,0.2-1.7,0.4-2.3,0.6c-0.6,0.2-1.1,0.4-1.3,0.5
		c0,0,0.4-0.1,0.9-0.2c0.5-0.1,1.3-0.3,2-0.5c1.4-0.3,2.8-0.6,2.8-0.6c-3.7,1.1-1,1,2.5,0.8c3.5-0.2,7.8-0.4,7.3,0.1
		c4.1-1.1,9.7-1.7,16-2.2c6.3-0.5,13.3-1.2,20.1-2.5c3.1-0.1-2.6,0.6-0.9,0.6c3.5-0.8,7.7-1.2,15.7-1.7l-0.9,0.2
		c0.7-0.1,1.4-0.1,2.1-0.2c0.3,0,0.7-0.1,1-0.1c0.3,0,0.6-0.1,1-0.1c1.3-0.1,2.6-0.2,3.9-0.7l4.1-1.5l-4.1-1.5
		c-4.4-1.6-8.4-2-12.1-2.5c-1.9-0.2-3.7-0.4-5.4-0.6c-1.8-0.2-3.6-0.5-5.5-0.7c-7.4-0.9-15.4-1.7-26.4-2.3l1.8,0.6
		c-5.4-0.3-6.5-0.5-9-0.7c-3.1,0.2,0.7,0.4,4.5,0.6c3.9,0.2,7.8,0.4,4.9,0.7c-2.8-0.5-9.1-0.9-16.1-1.1c-3.5-0.1-7.2-0.1-10.7,0
		c-3.7,0.1-6.8,0.7-9.3,0.5l-0.1,3.7c3.3,0.2,5.8,0.2,6.9,0.3c4.2-0.3,3.6-0.4,3-0.5c-0.6-0.1-1.2-0.2,2.9-0.5l2.2,0.1l2-0.6
		c5.4-0.5,8.1-0.1,8.3,0.1c-1.3,0-3.7,0.2-5.1,0.4c6.9-0.2,19.8-0.9,22.1-0.9l-7.9,0c11.3-0.5,23.8-0.6,36.3-0.6
		c6.2,0,12.5,0,18.5-0.2c6.1-0.2,11.9-0.7,17.4-1.3l-1.7-0.1c8.3-0.9,11.6-1.1,15.2-1.3c3.5-0.2,7.2-0.2,16.4-0.7l-0.7,0.1
		c0.9-0.1,1.9-0.2,2.9-0.3c1-0.1,2.2-0.2,3.2-0.3c2.2-0.1,4.7,0,7.4-0.6l2.7-0.6l-2.1-1.7c-0.1-0.1-0.3-0.2-0.4-0.3
		c0.2,0.1,0.4,0.3,0.4,0.3l-0.6,2.4l0,0l0,0l0,0l0,0l0,0l0,0c-1.1,0.3-0.9,0.3,0.1,0.2l3.1-0.5l-2.5-2.2c-0.8-0.7-1.7-0.9-2.5-1.1
		c-0.8-0.2-1.6-0.3-2.1-0.4c-1.1-0.1-1.4-0.3,0.9-0.2c-9.2-0.2-11.4-0.2-12.9-0.1c-1.5,0.1-2.2,0.3-8.2,0.5l-2.7-0.5
		c-4.1,0.1-4.4,0.3-13.6-0.2c7.5,0.1-5.8-0.9,2.6-0.8c-19.1-2-28.5-0.9-37.3-2.5c-4.4,0.3-0.3,0.6,4.4,0.9c4.6,0.3,9.8,0.5,7.3,0.5
		c4.1,0.6-7.3,0.4-13.3,0c-6.1-0.3-10.4-1.7-25.8-2.1c1.5,0,1.6,0,3.2,0c-5.8-0.4-11.3,0-18.4-0.7c-4,0.5-9.2-0.4-10.4,0.3
		c0,0,3.5,0.1,7.1,0.2c3.5,0.1,7.1,0.2,7.1,0.2c-8-0.1-15.6,0.6-28.8-0.7c1-0.1,5-0.1,7.7,0c-3.8-0.4-7.4-0.3-11.4-0.8
		c0.6-0.4,4.9-0.1,10.1,0.2c5.2,0.3,11.4,0.6,15.7,0.4c-4.1-0.5-16.3-0.2-11.9-0.8c-3.1,0.4-6.9,0.1-11.2-0.2
		c-2.1-0.2-4.5-0.4-6.9-0.4c-1.2,0-2.4-0.1-3.6-0.1c-0.6,0-1.2,0-1.8-0.1c-0.3,0-0.6,0-0.9,0l-0.9-0.1c0,0,0.2-0.1,0.4-0.2
		c0.2-0.1,0.4-0.2,0.4-0.2c-0.4-0.1-0.9-0.1-1.4-0.2c-0.6-0.1-1.4-0.1-2.3,0l0.2,4.1c1.5-0.1,3.4-0.1,5.1-0.2
		c-1.7,0.3-3.3,0.5-5.1,0.6l-0.2-5c0.3,0,0.6-0.1,0.8-0.1c-0.3,0-0.6,0-0.8,0.1l0.2,5.1c4.3-0.2,8.3-0.4,12.2-0.4
		c3.9,0,7.8,0,11.7-0.1c-8.4,0-9.3,0.1-9.1-0.2c0.3-0.2,1.7-0.5-1.8-0.5c5.2-0.4,8.5-0.4,11-0.3c2.5,0.1,4,0.3,5.7,0.5
		c3.3,0.5,6.9,0.9,18.6,1.5c-3.2-0.1-11.9-0.9-6.9-0.9c4.4,0.3,10.3,0.9,13.1,1.3c15.5,0.7-2.4-0.6,4.3-0.5
		c5.3,0.9,7.6,0.2,14.5,0.3l0,0.5c17.7,1.2,4.7-0.8,20.7,0.3l-6.8,0.4l8.3,0.2l-1.7,0.5c9.1,0,11.9,0.2,20.8,0.6
		c-2.1-0.4,1.2-0.8,9-0.6c5.3,0.4-3,0.4,8.1,0.6c-2.5,0.2-5.3,0.5-10.1,0c-0.5,0.1-2.5,0.2-3,0.4c5.8,0.5,14.5,0.5,18.5,0.6
		c-1.5-0.1-3.4-0.2-4.3-0.3c0,0,4,0,8.1-0.1c4,0,8.1,0,8.1,0c2.5,0.3,0.5,0.3-1.5,0.4c3.3,0.1,5.5,0,10.3,0.2
		c-1.3,0.3-1,0.7-7.8,0.6l15.3,0.4c1,0.2,7.8,0.9,5.8,1c8.5,0.7,20.9,0.6,32.1,1.7c0.6,0,1.8,0,4.2,0.1c4.7,0.4,9.2,0.9,13.8,1.3
		c2.3,0.2,4.6,0.4,7.1,0.6c0.6,0,1.2,0.1,1.8,0.1l0.5,0l0.4,0l0.9,0.1c0.6,0.1,1.3,0.2,2.1,0.2c0.8,0,1.7,0.1,2.8-0.2l7-1.8
		l-6.3-3.3c-1.3-0.7-2.7-1.2-4.1-1.6c0,0-1.8-0.8-3.6-1.4c-1.7-0.6-3.4-1.2-3.4-1.2c-4.8-1.1-2.5-0.3-1,0.3c1.4,0.6,2.2,1-5.9-0.7
		c-11.5-2.2-4.1-1.5-8.1-2.5c-5.8-0.8-15.7-1.9-26-4.8C651.6,539.6,654.3,540.3,657.5,540.9z M537,523.9c2.4,0.1,7.1,0.3,8.7,0.8
		C543,524.9,541,524.5,537,523.9z M581.1,526.2c-1.8,0-4.4-0.3-7.5-0.6C575.9,525.6,578.4,525.9,581.1,526.2z M462.2,504.5
		c0.1,0,0.2,0,0.3,0C467.6,505,465.8,504.8,462.2,504.5z M451.3,503.8c-1.1,0-1,0.1-0.6,0.2c0.8-0.1,3.2,0,6,0.1
		C456,504,454.6,503.8,451.3,503.8z M523.1,548.1l-2.1-0.2C525.7,547.9,524.4,548,523.1,548.1z"/>
	<path class="st0" d="M560.2,525.4c-0.7-0.1-0.8-0.2-1-0.3C558.3,525.1,558.3,525.2,560.2,525.4z"/>
	<path class="st0" d="M666.4,553.5l-0.4,0c-0.2,0-0.3,0-0.4,0.1L666.4,553.5z"/>
	<path class="st0" d="M620,514.5c2.2,0.3,3.5,0.6,4.3,0.8C624.4,515.2,623.4,514.9,620,514.5z"/>
	<path class="st0" d="M470.9,499.3l-7-0.1c3.4,0.1,4.6,0.2,6.3,0.4C470,499.4,468.7,499.2,470.9,499.3z"/>
	<path class="st0" d="M531.4,502.9c1-0.1,2.2,0,3.2-0.1l-0.3-0.2C530,502.6,526.9,502.8,531.4,502.9z"/>
	<path class="st0" d="M477.3,501.1c0.5,0.4,4.9,0.5,9.8,0.5c-0.3,0-0.6,0-0.9,0C487.7,501.1,482.5,501.1,477.3,501.1z"/>
	<path class="st0" d="M488.2,501.7c1.5,0,3,0.1,4.5,0.1C493.3,501.5,490.9,501.7,488.2,501.7z"/>
	<path class="st0" d="M437.5,503.8c-2.3-0.1-1.5,0.5-2.8,0.3C432.2,504.5,450.2,503.7,437.5,503.8z"/>
	<polygon class="st0" points="481.2,502.6 479.5,502.1 476.7,502.4 	"/>
	<path class="st0" d="M442.6,501.1l7.8,0.3c-0.1-0.1,0.9-0.1,2.1-0.1C447.7,501.1,442.4,500.9,442.6,501.1z"/>
	<path class="st0" d="M452.5,501.2c2.5,0.1,4.9,0.1,6.3,0.1C457.4,501.3,454.5,501.2,452.5,501.2z"/>
	<polygon class="st0" points="470.5,502.4 468.2,502.2 462.7,502 	"/>
	<path class="st0" d="M505.8,505.6l8.5,0.5c0.9-0.1-1.4-0.4-4.6-0.6C507.6,505.5,504.5,505.3,505.8,505.6z"/>
	<path class="st0" d="M480.1,502.4c2.3,0.3,2.4,0.4,3.7,0.6l0.3-0.6L480.1,502.4z"/>
	<path class="st0" d="M504.9,504c0.9-0.1,12.4,0.4,1.6-0.3C505.7,503.7,497.1,503.3,504.9,504z"/>
	<polygon class="st0" points="632.9,517.9 630.7,517.6 630.9,518.6 	"/>
	<path class="st0" d="M744.3,538.9c-9.7-2.6-2.5,0.1-11.3-2.4c-2.4-0.3,7.2,2,4.8,1.7C743.8,539.3,746.9,540.2,744.3,538.9z"/>
	<path class="st0" d="M737.9,538.1c-1-0.2-2-0.4-3.1-0.6C736.5,537.9,737.3,538,737.9,538.1z"/>
	<polygon class="st0" points="492.9,568.4 486.4,569.4 490.6,568.9 	"/>
	<path class="st0" d="M480.7,571.7c0,0-0.4-0.1-0.8-0.2c-0.4-0.1-0.7-0.2-0.7-0.2c-0.8,0.3-1.5,0.5-2.2,0.6l0.6,3.7
		c0.6-0.3,1.2-0.7,1.5-1.2c-0.3,0.3-0.9,0.8-1.6,1l-0.6-3.4C478.2,572.2,479.9,571.8,480.7,571.7z"/>
	<path class="st0" d="M519.2,520.8l-0.5,0.1c1,0.3,2.5,0.4,5.5,0.8L519.2,520.8z"/>
	<polygon class="st0" points="606.9,531 605.4,530.8 608.1,531.8 	"/>
	<path class="st0" d="M680,544.1c-3-0.7-6.5-1.2-9.5-1.8C677,543.4,680.7,545,680,544.1z"/>
</g>
</svg>
